<svg width="17" height="17" viewBox="0 0 17 17" fill="none" xmlns="http://www.w3.org/2000/svg">
<path d="M7 8C7.74548 8 8.47423 7.7654 9.09407 7.32588C9.71392 6.88635 10.197 6.26164 10.4823 5.53073C10.7676 4.79983 10.8422 3.99556 10.6968 3.21964C10.5514 2.44372 10.1924 1.73098 9.66525 1.17157C9.13811 0.612164 8.4665 0.231202 7.73534 0.0768607C7.00418 -0.0774802 6.24632 0.00173313 5.55758 0.304484C4.86884 0.607234 4.28017 1.11992 3.866 1.77772C3.45183 2.43552 3.23077 3.20888 3.23077 4C3.23077 5.06087 3.62788 6.07828 4.33475 6.82843C5.04162 7.57857 6.00034 8 7 8ZM7 9.14286C4.66375 9.14286 0 10.6743 0 13.7143V16H14V13.7143C14 10.6743 9.33625 9.14286 7 9.14286Z" fill="#E0E0E0"/>
<path d="M16.4973 11.1909C16.2474 11.5517 16.1147 11.3972 16.1894 11.1909C16.3883 10.6448 16.3955 8.7005 14.7378 8.45795L14.7366 14.8C14.7366 15.7114 13.7091 17 11.7767 17C10.7954 17 10 16.521 10 15.625C10 14.4595 11.1412 13.755 12.3689 13.755C13.1554 13.755 13.5534 13.975 13.5534 13.975V6H14.7378C14.7378 7.4718 18.2829 8.6092 16.4973 11.1909Z" fill="#828282"/>
</svg>
