<svg width="17" height="16" viewBox="0 0 17 16" fill="none" xmlns="http://www.w3.org/2000/svg">
<path d="M15.6502 2.799C15.5558 2.359 15.093 2 14.6209 2H8.82412C8.35283 2 7.69267 1.682 7.35919 1.293L6.85217 0.705C6.51869 0.316 5.85939 0 5.38809 0H2.61902C2.14687 0 1.71811 0.447 1.66622 0.994L1.41781 4H15.8212L15.6502 2.799ZM16.5069 5H0.493085C0.424372 5.00005 0.356425 5.01698 0.293598 5.04969C0.230771 5.0824 0.174449 5.13017 0.128239 5.18995C0.0820294 5.24973 0.046951 5.32019 0.0252509 5.39683C0.00355083 5.47347 -0.00429243 5.55459 0.00222352 5.635L0.787432 15.304C0.803075 15.4944 0.878475 15.6712 0.998942 15.7999C1.11941 15.9286 1.27631 15.9999 1.43908 16H15.5609C15.7237 15.9999 15.8806 15.9286 16.0011 15.7999C16.1215 15.6712 16.1969 15.4944 16.2126 15.304L16.9978 5.635C17.0043 5.55459 16.9964 5.47347 16.9747 5.39683C16.953 5.32019 16.918 5.24973 16.8718 5.18995C16.8256 5.13017 16.7692 5.0824 16.7064 5.04969C16.6436 5.01698 16.5756 5.00005 16.5069 5Z" fill="#E0E0E0"/>
<path d="M10.6409 10.3033C10.4624 10.5329 10.3677 10.4345 10.421 10.3033C10.5631 9.95575 10.5682 8.7185 9.38415 8.56415L9.38331 12.6C9.38331 13.1799 8.64937 14 7.26906 14C6.56811 14 6 13.6951 6 13.125C6 12.3833 6.81516 11.935 7.69208 11.935C8.25385 11.935 8.53811 12.075 8.53811 12.075V7H9.38415C9.38415 7.9366 11.9163 8.6604 10.6409 10.3033Z" fill="#828282"/>
</svg>
