<svg width="24" height="21" viewBox="0 0 24 21" fill="none" xmlns="http://www.w3.org/2000/svg">
<path d="M0.276261 2.10195C2.91348 5.48334 7.78321 11.75 7.78321 11.75V19.5833C7.78321 20.3014 8.37071 20.8889 9.08876 20.8889H11.6999C12.4179 20.8889 13.0054 20.3014 13.0054 19.5833V11.75C13.0054 11.75 17.8621 5.48334 20.4993 2.10195C20.649 1.90921 20.7415 1.67833 20.7663 1.4356C20.7911 1.19287 20.7473 0.948035 20.6398 0.728985C20.5323 0.509934 20.3655 0.325466 20.1583 0.196586C19.9511 0.0677059 19.7119 -0.00040738 19.4679 1.83305e-06H1.30765C0.224038 1.83305e-06 -0.389573 1.24028 0.276261 2.10195Z" fill="#C8C8C8"/>
<path d="M23.4995 10.4445H16.9717L20.2356 14.3611L23.4995 10.4445Z" fill="#C4C4C4"/>
</svg>
