<svg width="21" height="19" viewBox="0 0 21 19" fill="none" xmlns="http://www.w3.org/2000/svg">
<path d="M4.55334 14.4999V14.9999L4.55334 17.7504C4.55334 17.7505 4.55334 17.7506 4.55334 17.7507C4.55362 17.9113 4.60619 18.0674 4.70309 18.1954C4.82702 18.3569 5.00932 18.4634 5.2109 18.4921C5.41269 18.5207 5.61767 18.4691 5.78178 18.3482L4.55334 14.4999ZM4.55334 14.4999H4.05334H3.29334C1.74435 14.4999 0.5 13.2622 0.5 11.7496V3.25027C0.5 1.7377 1.74435 0.5 3.29334 0.5H16.9734C18.5223 0.5 19.7667 1.7377 19.7667 3.25027V11.7496C19.7667 13.2633 18.5225 14.4999 16.9734 14.4999H11.1593H10.9948L10.8624 14.5976L5.78206 18.348L4.55334 14.4999Z" stroke="#C8C8C8"/>
</svg>
