<svg width="173" height="173" viewBox="0 0 173 173" fill="none" xmlns="http://www.w3.org/2000/svg">
<rect x="2" y="2" width="169" height="169" rx="82.5" fill="url(#paint0_linear)" stroke="#ECECEC" stroke-width="4"/>
<g filter="url(#filter0_d)">
<path fill-rule="evenodd" clip-rule="evenodd" d="M82.864 30C77.3411 30 72.864 34.4771 72.864 40V65.8533H45.8447C40.3218 65.8533 35.8447 70.3304 35.8447 75.8533L35.8447 78.5426C35.8447 84.0654 40.3219 88.5426 45.8447 88.5426H72.864V143C72.864 148.523 77.3411 153 82.864 153H89.1358C94.6587 153 99.1358 148.523 99.1358 143V88.5426H126.155C131.678 88.5426 136.155 84.0654 136.155 78.5426V75.8533C136.155 70.3304 131.678 65.8533 126.155 65.8533H99.1358V40C99.1358 34.4772 94.6587 30 89.1358 30H82.864Z" fill="#FACB01"/>
<path fill-rule="evenodd" clip-rule="evenodd" d="M90.33 30H87.1941V153H90.33C95.8529 153 100.33 148.523 100.33 143V88.5426H126.155C131.678 88.5426 136.155 84.0654 136.155 78.5426V75.8533C136.155 70.3304 131.678 65.8533 126.155 65.8533H100.33V40C100.33 34.4772 95.8529 30 90.33 30Z" fill="#FFEA37"/>
</g>
<defs>
<filter id="filter0_d" x="24.8447" y="23" width="122.311" height="145" filterUnits="userSpaceOnUse" color-interpolation-filters="sRGB">
<feFlood flood-opacity="0" result="BackgroundImageFix"/>
<feColorMatrix in="SourceAlpha" type="matrix" values="0 0 0 0 0 0 0 0 0 0 0 0 0 0 0 0 0 0 127 0"/>
<feOffset dy="4"/>
<feGaussianBlur stdDeviation="5.5"/>
<feColorMatrix type="matrix" values="0 0 0 0 0 0 0 0 0 0 0 0 0 0 0 0 0 0 0.25 0"/>
<feBlend mode="normal" in2="BackgroundImageFix" result="effect1_dropShadow"/>
<feBlend mode="normal" in="SourceGraphic" in2="effect1_dropShadow" result="shape"/>
</filter>
<linearGradient id="paint0_linear" x1="86" y1="20" x2="86.5" y2="173" gradientUnits="userSpaceOnUse">
<stop offset="0.234375" stop-color="white"/>
<stop offset="1" stop-color="#ECECEC"/>
</linearGradient>
</defs>
</svg>
