<svg width="20" height="19" viewBox="0 0 20 19" fill="none" xmlns="http://www.w3.org/2000/svg">
<path d="M10.001 19C9.6922 18.9997 9.39066 18.9039 9.13554 18.7249C5.35655 16.085 3.71995 14.2723 2.81799 13.1433C0.894839 10.7319 -0.0263508 8.25523 0.00057328 5.57374C0.0303821 2.50042 2.42567 0 5.3402 0C7.30182 0 8.70572 1.05182 9.58075 2.01953C9.63468 2.07822 9.69967 2.12497 9.77176 2.15693C9.84384 2.18888 9.92151 2.20536 10 2.20536C10.0785 2.20536 10.1562 2.18888 10.2282 2.15693C10.3003 2.12497 10.3653 2.07822 10.4192 2.01953C11.2952 1.05182 12.6982 0 14.6598 0C17.5743 0 19.9696 2.50042 19.9994 5.57374C20.0264 8.25523 19.1042 10.7319 17.182 13.1433C16.2801 14.2752 14.6435 16.085 10.8645 18.7249C10.6099 18.9035 10.3091 18.9993 10.001 19Z" fill="#D40000"/>
</svg>
