<svg width="25" height="20" viewBox="0 0 25 20" fill="none" xmlns="http://www.w3.org/2000/svg">
<path d="M12.5001 14.2856C14.4726 14.2856 16.0716 12.6866 16.0716 10.7142C16.0716 8.74174 14.4726 7.14276 12.5001 7.14276C10.5277 7.14276 8.92871 8.74174 8.92871 10.7142C8.92871 12.6866 10.5277 14.2856 12.5001 14.2856Z" fill="#C8C8C8"/>
<path d="M22.3214 3.57143H19.029C18.8616 3.57143 18.654 3.46317 18.4922 3.29241L17.0446 1.00781C17.0217 0.971555 16.9962 0.937048 16.9682 0.904576C16.4682 0.321429 15.7924 0 15.067 0H9.93304C9.20759 0 8.53181 0.321429 8.03181 0.904576C8.0038 0.937048 7.97825 0.971555 7.95536 1.00781L6.50781 3.29576C6.38393 3.4308 6.20982 3.57478 6.02679 3.57478V3.12835C6.02679 2.89155 5.93272 2.66445 5.76527 2.497C5.59783 2.32956 5.37073 2.23549 5.13393 2.23549H3.79464C3.55784 2.23549 3.33074 2.32956 3.1633 2.497C2.99585 2.66445 2.90179 2.89155 2.90179 3.12835V3.57478H2.67857C1.9684 3.57552 1.28752 3.85796 0.785351 4.36013C0.283182 4.8623 0.000738612 5.54317 0 6.25335V16.9643C0.000738612 17.6745 0.283182 18.3553 0.785351 18.8575C1.28752 19.3597 1.9684 19.6421 2.67857 19.6429H22.3214C23.0316 19.6421 23.7125 19.3597 24.2146 18.8575C24.7168 18.3553 24.9993 17.6745 25 16.9643V6.25C24.9993 5.53983 24.7168 4.85895 24.2146 4.35678C23.7125 3.85461 23.0316 3.57217 22.3214 3.57143ZM12.5 16.0714C11.4405 16.0714 10.4047 15.7572 9.52373 15.1686C8.64275 14.5799 7.95612 13.7433 7.55065 12.7644C7.14518 11.7855 7.03909 10.7083 7.24579 9.66916C7.4525 8.62998 7.96272 7.67542 8.71193 6.92621C9.46114 6.177 10.4157 5.66679 11.4549 5.46008C12.4941 5.25337 13.5712 5.35946 14.5501 5.76493C15.529 6.1704 16.3657 6.85704 16.9543 7.73802C17.543 8.61899 17.8571 9.65474 17.8571 10.7143C17.8555 12.1346 17.2906 13.4963 16.2863 14.5006C15.282 15.5049 13.9203 16.0698 12.5 16.0714Z" fill="#C8C8C8"/>
</svg>
