<svg width="21" height="23" viewBox="0 0 21 23" fill="none" xmlns="http://www.w3.org/2000/svg">
<path d="M3.59091 13.9545C5.02183 13.9545 6.18182 12.7945 6.18182 11.3636C6.18182 9.93263 5.02183 8.77264 3.59091 8.77264C2.15999 8.77264 1 9.93263 1 11.3636C1 12.7945 2.15999 13.9545 3.59091 13.9545Z" stroke="#C8C8C8" stroke-width="2" stroke-linecap="round" stroke-linejoin="round"/>
<path d="M17.4093 6.18176C18.8402 6.18176 20.0002 5.02177 20.0002 3.59085C20.0002 2.15993 18.8402 0.999939 17.4093 0.999939C15.9783 0.999939 14.8184 2.15993 14.8184 3.59085C14.8184 5.02177 15.9783 6.18176 17.4093 6.18176Z" stroke="#C8C8C8" stroke-width="2" stroke-linecap="round" stroke-linejoin="round"/>
<path d="M17.4093 21.7272C18.8402 21.7272 20.0002 20.5672 20.0002 19.1363C20.0002 17.7054 18.8402 16.5454 17.4093 16.5454C15.9783 16.5454 14.8184 17.7054 14.8184 19.1363C14.8184 20.5672 15.9783 21.7272 17.4093 21.7272Z" stroke="#C8C8C8" stroke-width="2" stroke-linecap="round" stroke-linejoin="round"/>
<path d="M15.1511 4.8609L5.84863 10.0935M5.84863 12.6336L15.1511 17.8662L5.84863 12.6336Z" stroke="#C8C8C8" stroke-width="2" stroke-linecap="round" stroke-linejoin="round"/>
</svg>
