<svg width="22" height="22" viewBox="0 0 22 22" fill="none" xmlns="http://www.w3.org/2000/svg">
<path d="M11 0C4.92525 0 0 4.92525 0 11C0 17.0748 4.92525 22 11 22C17.0748 22 22 17.0748 22 11C22 4.92525 17.0748 0 11 0ZM9.86883 6.6715L15.8317 10.2117C15.9685 10.2928 16.0819 10.4082 16.1606 10.5464C16.2393 10.6846 16.2806 10.8409 16.2806 11C16.2806 11.1591 16.2393 11.3154 16.1606 11.4536C16.0819 11.5918 15.9685 11.7072 15.8317 11.7883L9.86883 15.3285C9.66005 15.4525 9.42216 15.519 9.17934 15.5212C8.93652 15.5235 8.69744 15.4614 8.48641 15.3412C8.27538 15.2211 8.09993 15.0472 7.9779 14.8373C7.85587 14.6273 7.79161 14.3888 7.79167 14.146V7.854C7.79161 7.61117 7.85587 7.37266 7.9779 7.16272C8.09993 6.95278 8.27538 6.7789 8.48641 6.65876C8.69744 6.53862 8.93652 6.47652 9.17934 6.47875C9.42216 6.48099 9.66005 6.54749 9.86883 6.6715Z" fill="#EDD81F"/>
</svg>
