<svg width="13" height="22" viewBox="0 0 13 30" fill="none" xmlns="http://www.w3.org/2000/svg">
<path d="M11.7664 5.89099H0.522461V29.5944H11.7664V5.89099Z" fill="#EDD81F"/>
<path d="M11.7664 24.1237H0.522461V29.8976H11.7664V24.1237Z" fill="#FFED4A"/>
<path d="M8.83398 7.74939C8.8431 7.79497 8.84614 7.84056 8.84614 7.88614C8.84614 7.83752 8.85222 7.79193 8.86133 7.74939H8.83398Z" fill="#FFED4A"/>
<path d="M7.11426 7.81201C7.1173 7.83632 7.12034 7.86063 7.12034 7.88798C7.12034 7.86367 7.12641 7.83936 7.12641 7.81201H7.11426Z" fill="#FFED4A"/>
<path d="M10.5449 7.68981C10.5601 7.75362 10.5723 7.82048 10.5723 7.88733V7.81744C10.5723 7.77186 10.5783 7.72931 10.5875 7.68677L10.5449 7.68981Z" fill="#FFED4A"/>
<path d="M11.1922 5.58679H1.40088C0.747518 5.58679 0.21875 6.11556 0.21875 6.76892V7.88723V8.64696V12.6492C0.21875 13.0807 0.568223 13.491 1.00278 13.491H1.16081C1.59233 13.491 2.04209 13.0837 2.04209 12.6492V9.63156C2.04209 9.18788 2.20011 8.62872 2.64683 8.62872H2.99934C3.44301 8.62872 3.56153 9.18788 3.56153 9.63156V10.2819C3.56153 10.7134 4.02952 11.1115 4.4732 11.1115C4.92296 11.1115 5.38487 10.7134 5.38487 10.2819V8.75028C5.38487 8.31876 5.7465 8.02094 6.18106 8.02094H6.33908C6.7706 8.02094 7.2082 8.31876 7.2082 8.75028V10.3639V11.227V12.09C7.2082 12.5215 7.47259 12.8832 7.90411 12.8832H8.06213C8.49365 12.8832 8.72461 12.5246 8.72461 12.09V10.3639V9.61333C8.72461 9.1818 9.19564 8.93261 9.62716 8.93261H9.78518C10.2167 8.93261 10.5449 9.1818 10.5449 9.61333V10.2819C10.5449 10.7134 11.1193 11.0659 11.3441 11.0659C11.7909 11.0659 12.3682 10.7134 12.3682 10.2819V10.0357C12.3682 10.1938 12.3682 10.2393 12.3682 10.0904V6.76892C12.3743 6.11556 11.8456 5.58679 11.1922 5.58679ZM5.39702 7.87508C5.39702 7.87812 5.39702 7.88419 5.39702 7.88723V7.87508ZM7.114 7.81126H7.12919C7.12615 7.83557 7.12312 7.85988 7.12312 7.88723C7.12008 7.86292 7.11704 7.83861 7.114 7.81126ZM8.83401 7.75048H8.86136C8.85224 7.79607 8.84617 7.84165 8.84617 7.88723C8.84617 7.83861 8.84009 7.79607 8.83401 7.75048ZM10.5723 7.88723C10.5723 7.81734 10.5601 7.75352 10.5449 7.68971H10.5905C10.5814 7.73225 10.5753 7.77479 10.5753 7.82038V7.88723H10.5723Z" fill="#FFED4A"/>
<path d="M7.85434 3.73513C7.85434 4.68379 7.12128 5.45384 6.21819 5.45384C5.31509 5.45384 4.58203 4.68379 4.58203 3.73513C4.58203 2.78646 6.21819 0 6.21819 0C6.21819 0 7.85434 2.78646 7.85434 3.73513Z" fill="#D50606"/>
</svg>
