<svg width="29" height="22" viewBox="0 0 29 22" fill="none" xmlns="http://www.w3.org/2000/svg">
<path d="M15.5966 14.137C13.271 14.4994 11.2944 12.8586 10.663 10.5908C10.0383 8.34524 9.20674 1.81755 17.6554 0.501343C17.6554 0.501343 18.6626 6.96011 19.025 9.28793C19.3874 11.6135 17.9244 13.7746 15.5966 14.137Z" fill="#FFED4A"/>
<path d="M25.5213 7.65076C25.5213 7.65076 17.3728 2.1458 13.9845 9.99859L0.526673 8.07096C0.526673 8.07096 -1.01632 17.4245 7.12773 20.5727C15.0205 23.6231 20.53 18.0404 21.6928 16.5218C25.1478 12.0129 25.5213 7.65076 25.5213 7.65076Z" fill="#EDD81F"/>
<path d="M26.9539 10.18C26.5203 8.30578 26.0868 6.43152 25.7021 4.58838L26.9539 10.18Z" fill="#86A36B"/>
<path d="M27.2958 10.0838C26.8645 8.22292 26.4354 6.362 26.0441 4.49218C25.9507 4.04529 25.2659 4.23427 25.3593 4.68116C25.7506 6.55098 26.1797 8.41191 26.611 10.2728C26.7133 10.7175 27.3981 10.5307 27.2958 10.0838Z" fill="#86A36B"/>
<path d="M25.7619 6.47669C25.0638 6.88133 23.5475 6.73682 23.1006 5.05598C24.9704 4.60687 25.5618 5.61626 25.9487 6.36774" fill="#86A36B"/>
<path d="M25.6705 6.32365C25.2948 6.53709 24.8034 6.53042 24.3943 6.38146C23.7918 6.16135 23.4316 5.60329 23.2693 5.00744C23.2271 5.08081 23.1871 5.15195 23.1448 5.22532C23.7651 5.08081 24.4521 5.04523 24.9991 5.42098C25.3659 5.67221 25.5927 6.07019 25.7906 6.45705C25.8951 6.65937 26.2019 6.4815 26.0974 6.27696C25.8639 5.8234 25.5883 5.3854 25.1547 5.09859C24.5322 4.68506 23.7473 4.71841 23.0492 4.88293C22.9558 4.90517 22.9003 5.01189 22.9247 5.10082C23.1204 5.81673 23.5628 6.44149 24.272 6.71273C24.7701 6.90394 25.377 6.89504 25.8462 6.62824C26.0485 6.51708 25.8706 6.21026 25.6705 6.32365Z" fill="#86A36B"/>
<path d="M26.4662 6.08412C26.3706 5.2815 27.1043 3.94751 28.8252 4.20319C28.4961 6.09746 27.3356 6.24198 26.4929 6.29756" fill="#86A36B"/>
<path d="M26.6443 6.08427C26.6065 5.74855 26.7044 5.42394 26.8867 5.13269C27.1068 4.78363 27.4558 4.53239 27.8538 4.42122C28.154 4.33896 28.4719 4.33007 28.7787 4.37453C28.7365 4.30116 28.6965 4.23002 28.6542 4.15665C28.5608 4.67913 28.3919 5.21717 28.0028 5.59736C27.7338 5.85749 27.4025 5.99089 27.0423 6.05982C26.8622 6.09317 26.6932 6.10873 26.4931 6.12207C26.2664 6.13763 26.2641 6.49336 26.4931 6.4778C26.8756 6.45112 27.2602 6.40888 27.6159 6.26214C28.065 6.0776 28.4208 5.7441 28.6498 5.315C28.8276 4.98372 28.9321 4.6191 28.9966 4.25225C29.0122 4.16776 28.9744 4.0477 28.8721 4.03436C28.2851 3.94988 27.6693 4.01213 27.1668 4.35008C26.7822 4.60798 26.4954 4.99484 26.3597 5.43728C26.2953 5.64405 26.2641 5.87083 26.2886 6.0865C26.2997 6.1821 26.362 6.26436 26.4665 6.26436C26.5554 6.26214 26.6554 6.17988 26.6443 6.08427Z" fill="#86A36B"/>
<path d="M25.6572 4.74318C23.7652 3.2958 24.8412 1.03912 24.9257 1.07914C25.615 1.61274 26.7066 3.16907 25.7217 4.84546" fill="#86A36B"/>
<path d="M25.782 4.6166C25.2973 4.24086 24.9349 3.7495 24.7904 3.14921C24.6882 2.71788 24.7015 2.2621 24.8038 1.83077C24.8393 1.67736 24.8838 1.52395 24.9461 1.37944C24.9594 1.35053 24.9861 1.29495 25.0061 1.25715C25.0128 1.24159 25.0261 1.22825 25.0328 1.21269C25.0439 1.18378 25.0283 1.20824 25.035 1.21046C25.0461 1.21269 24.8171 1.23937 24.826 1.2238C24.826 1.22603 24.8727 1.2616 24.8794 1.26827C24.9127 1.30829 24.9638 1.34386 25.0016 1.37944C25.0972 1.47059 25.1862 1.57064 25.2684 1.67292C25.4463 1.89525 25.5953 2.14204 25.7087 2.40217C26.0488 3.18033 25.9866 4.02075 25.5664 4.75445C25.453 4.95232 25.7598 5.13241 25.8732 4.93454C26.2956 4.19862 26.409 3.34708 26.1378 2.53557C25.9399 1.93972 25.5664 1.36832 25.075 0.972568C24.7637 0.723555 24.6059 1.25271 24.5347 1.46837C24.3791 1.93972 24.328 2.4533 24.3924 2.94688C24.4969 3.72282 24.9149 4.38982 25.5286 4.86784C25.7087 5.00791 25.9621 4.75667 25.782 4.6166Z" fill="#86A36B"/>
<path d="M12.7133 14.281C10.919 15.8062 8.37554 15.4393 6.65246 13.8341C4.94717 12.2466 0.827346 7.11519 7.34392 1.5791C7.34392 1.5791 11.5771 6.56158 13.1023 8.35581C14.6253 10.1478 14.5075 12.7558 12.7133 14.281Z" fill="#FFED4A"/>
<path d="M23.8915 6.77271C23.8915 6.77271 22.5753 8.80483 25.0587 9.87647L27.1575 7.06618L23.8915 6.77271Z" fill="#FFED4A"/>
<path d="M21.2971 8.52139C21.1282 8.91492 20.6702 9.09501 20.2766 8.92604C19.8831 8.75707 19.7008 8.29906 19.872 7.90553C20.041 7.512 20.499 7.32969 20.8925 7.50089C21.286 7.66986 21.4683 8.12787 21.2971 8.52139Z" fill="#AD803D"/>
</svg>
