<svg width="22" height="26" viewBox="0 0 22 26" fill="none" xmlns="http://www.w3.org/2000/svg">
<path d="M19.7626 0H2.2374C1.00237 0 0 0.944523 0 2.10827V23.8917C0 25.0555 1.00237 26 2.2374 26H19.7626C20.9976 26 22 25.0555 22 23.8917V2.10827C22 0.944523 20.9976 0 19.7626 0ZM9.254 6.78377H10.089V5.84744C10.089 5.37415 10.4956 4.99102 10.9978 4.99102C11.5001 4.99102 11.9067 5.37415 11.9067 5.84744V6.78377H12.7416C13.2439 6.78377 13.6505 7.1669 13.6505 7.64019C13.6505 8.11348 13.2439 8.49661 12.7416 8.49661H11.9067V10.7094C11.9067 11.1827 11.5001 11.5658 10.9978 11.5658C10.4956 11.5658 10.089 11.1827 10.089 10.7094V8.49661H9.254C8.75173 8.49661 8.34513 8.11348 8.34513 7.64019C8.34513 7.1669 8.75173 6.78377 9.254 6.78377ZM15.8923 20.2489H6.10773C5.56632 20.2489 5.12927 19.837 5.12927 19.3269C5.12927 18.8167 5.56632 18.4049 6.10773 18.4049H15.8923C16.4337 18.4049 16.8707 18.8167 16.8707 19.3269C16.8707 19.837 16.4315 20.2489 15.8923 20.2489ZM15.8923 17.3805H6.10773C5.56632 17.3805 5.12927 16.9686 5.12927 16.4585C5.12927 15.9483 5.56632 15.5365 6.10773 15.5365H15.8923C16.4337 15.5365 16.8707 15.9483 16.8707 16.4585C16.8707 16.9686 16.4315 17.3805 15.8923 17.3805Z" fill="#EDD81F"/>
</svg>
