<svg width="23" height="22" viewBox="0 0 23 22" fill="none" xmlns="http://www.w3.org/2000/svg">
<path d="M8.4432 18.9437C8.4432 20.6325 6.73151 22.0003 4.62248 22.0003C2.51344 22.0003 0.801758 20.6325 0.801758 18.9437C0.801758 17.2565 2.51344 15.8871 4.62248 15.8871C6.73151 15.8871 8.4432 17.2565 8.4432 18.9437ZM22.1978 15.8871C22.1978 17.5759 20.4861 18.9437 18.3771 18.9437C16.268 18.9437 14.5563 17.5759 14.5563 15.8871C14.5563 14.1984 16.268 12.8306 18.3771 12.8306C20.4861 12.8306 22.1978 14.1984 22.1978 15.8871Z" fill="#EDD81F"/>
<path fill-rule="evenodd" clip-rule="evenodd" d="M20.6696 15.887V2.13245H22.1979V15.887H20.6696ZM8.44333 3.66073V18.9436H6.91504V3.66073H8.44333Z" fill="#EDD81F"/>
<path d="M6.91504 3.51632C6.91503 3.13745 7.05576 2.77208 7.30991 2.4911C7.56407 2.21012 7.91353 2.03356 8.2905 1.99567L20.5168 0.773042C20.7293 0.751683 20.944 0.775107 21.1469 0.841803C21.3498 0.908499 21.5364 1.01699 21.6948 1.16027C21.8532 1.30355 21.9799 1.47844 22.0665 1.67366C22.1532 1.86888 22.1979 2.0801 22.1979 2.29369V3.66151L6.91504 5.18979V3.51632Z" fill="#EDD81F"/>
</svg>
