<svg width="24" height="24" viewBox="0 0 24 24" fill="none" xmlns="http://www.w3.org/2000/svg">
<path d="M9.6 24V19.2C9.6 18.5635 9.85286 17.953 10.3029 17.5029C10.753 17.0529 11.3635 16.8 12 16.8C12.6365 16.8 13.247 17.0529 13.6971 17.5029C14.1471 17.953 14.4 18.5635 14.4 19.2V24H19.2V12C19.2 11.7929 19.1463 11.5894 19.0444 11.4092C18.9424 11.229 18.7955 11.0782 18.618 10.9716L13.2 7.7208V4.8H15.6V2.4H13.2V0H10.8V2.4H8.4V4.8H10.8V7.7208L5.382 10.9716C5.20451 11.0782 5.05763 11.229 4.95564 11.4092C4.85366 11.5894 4.80004 11.7929 4.8 12V24H9.6ZM1.2 24H3.6V14.2584L0.6636 15.7272C0.464128 15.8266 0.296338 15.9796 0.179104 16.1691C0.0618702 16.3587 -0.000156721 16.5771 2.97374e-07 16.8V22.8C2.97374e-07 23.1183 0.126428 23.4235 0.351472 23.6485C0.576516 23.8736 0.881741 24 1.2 24ZM23.3364 15.726L20.4 14.2584V24H22.8C23.1183 24 23.4235 23.8736 23.6485 23.6485C23.8736 23.4235 24 23.1183 24 22.8V16.8C24 16.3452 23.7432 15.93 23.3364 15.726Z" fill="#EDD81F"/>
</svg>
