<svg width="18" height="30" viewBox="0 0 18 30" fill="none" xmlns="http://www.w3.org/2000/svg">
<path d="M17.7884 8.50885C17.5715 8.47967 16.7189 8.41944 16.1349 8.41944C15.7257 8.41944 15.0335 8.40486 14.6513 8.39686C14.2945 8.79463 13.8244 9.06549 13.3088 9.17043C12.843 7.86044 11.758 6.82995 10.3867 6.40975C10.4041 6.31658 10.4292 6.22483 10.4593 6.13542C11.9283 6.58197 13.0955 7.68681 13.5891 9.09185C13.8439 9.0059 14.0837 8.87867 14.2997 8.71494C14.0126 7.96512 13.5665 7.29086 12.9941 6.74148C12.3757 6.14826 11.6374 5.70347 10.8324 5.43902L10.8726 5.39055C12.4795 5.92697 13.7581 7.13862 14.3499 8.67448C14.4353 8.60531 14.5166 8.53002 14.5914 8.45097C13.9645 6.92829 12.6905 5.72181 11.0972 5.15246C11.1507 5.10352 11.2055 5.05694 11.2639 5.01223C11.1753 4.59063 10.9584 3.45191 10.9584 2.61905C10.9584 1.57773 11.1132 0.923207 11.1132 0.53595C11.1128 0.149162 11.0205 0 10.5584 0C10.1269 0 9.13552 0.0522304 9.00264 0.0592885C8.8693 0.0522304 7.87703 0 7.44642 0C6.9843 0 6.89206 0.149162 6.89206 0.535479C6.89206 0.922737 7.0464 1.57726 7.0464 2.61858C7.0464 3.45144 6.82767 4.59016 6.74228 5.01176C7.18842 5.35667 7.50624 5.85027 7.61811 6.41398C6.25413 6.83747 5.17053 7.86655 4.70658 9.17467C4.61035 9.15519 4.51534 9.12973 4.42209 9.09844C4.91252 7.69622 6.07239 6.59232 7.53637 6.14201C7.45207 5.88976 7.32651 5.65422 7.16513 5.44561C6.36595 5.71015 5.63317 6.15292 5.01892 6.74242C4.44481 7.29555 3.99731 7.97335 3.70882 8.72671L3.65859 8.68718C4.24675 7.15039 5.52214 5.93685 7.12403 5.39479C7.05575 5.31013 6.98158 5.23071 6.9021 5.15716C5.31026 5.7317 4.03852 6.94099 3.41475 8.46509C3.39329 8.44156 3.37228 8.41944 3.35265 8.39639C2.97089 8.40439 2.27772 8.41897 1.86902 8.41897C1.28453 8.41897 0.431981 8.4792 0.215077 8.50838C-1.2248e-07 8.53755 0 8.83634 0 9.22266C0 9.61086 0.0621028 12.1094 0.0621028 12.4078C0.0621028 12.7052 0.21462 12.883 0.55436 12.883H3.31703C3.35082 12.8364 3.38781 12.7917 3.42525 12.7475C4.06272 14.2852 5.35957 15.495 6.9779 16.0554L6.97973 15.9806C7.14321 15.8305 7.2834 15.6583 7.39892 15.4715C5.80571 14.9826 4.54082 13.7865 3.99514 12.2661C4.01295 12.2553 4.03075 12.244 4.05039 12.2332C4.31382 12.9705 4.74234 13.6335 5.30113 14.1681C5.90652 14.7508 6.63615 15.179 7.43135 15.4183C7.4971 15.3049 7.55236 15.1859 7.59848 15.0631C6.09705 14.6226 4.90522 13.4961 4.41342 12.0629C4.50456 12.0281 4.59757 11.9987 4.69197 11.9749C5.15591 13.3239 6.27833 14.3822 7.69072 14.7939C7.5798 15.2534 7.33561 15.6672 6.99069 15.9801L6.48976 30H11.5096L11.0087 16.0625C12.6325 15.5077 13.9343 14.2979 14.5759 12.764C14.4126 12.5719 14.2214 12.407 14.0092 12.2751C13.4604 13.7973 12.1886 14.9915 10.5936 15.4757C10.5817 15.4589 10.5704 15.4416 10.5598 15.424C11.3615 15.1852 12.0973 14.7549 12.7074 14.1681C13.2632 13.6355 13.6908 12.9767 13.9563 12.244C13.8401 12.1759 13.7189 12.1176 13.5937 12.0695C13.0982 13.5056 11.9009 14.6311 10.3927 15.0678C10.3599 14.9794 10.332 14.8893 10.3091 14.7977C11.7265 14.3874 12.853 13.3286 13.3188 11.9786C13.8764 12.1198 14.3554 12.4445 14.6828 12.883H17.4454C17.7847 12.883 17.9377 12.7047 17.9377 12.4078C17.9377 12.1094 17.9998 9.61086 17.9998 9.22266C18.0012 8.83729 18.0012 8.53896 17.7861 8.50932L17.7884 8.50885ZM5.85868 7.55223C6.36434 7.06665 6.97143 6.70717 7.63318 6.50151C7.65099 6.61867 7.66149 6.73725 7.66149 6.85818C7.66149 8.16535 6.56373 9.22501 5.21162 9.22501C5.06915 9.22501 4.93079 9.21419 4.79745 9.19208C5.02228 8.56822 5.38572 8.00726 5.85868 7.55411V7.55223ZM7.7099 14.7097C7.01892 14.5078 6.3844 14.1396 5.85868 13.6354C5.37679 13.172 5.00841 12.5974 4.78375 11.9589C4.95446 11.9228 5.12823 11.9043 5.3025 11.9038C6.65597 11.9038 7.75419 12.9635 7.75419 14.2707C7.75419 14.4208 7.73821 14.5671 7.7099 14.7097ZM10.3689 6.49962C11.0349 6.70452 11.6458 7.06543 12.1539 7.55411C12.6266 8.0068 12.9902 8.56684 13.2161 9.18972C13.0751 9.21387 12.9324 9.22583 12.7896 9.22548C11.437 9.22548 10.342 8.16723 10.342 6.85865C10.3421 6.73782 10.3511 6.61718 10.3689 6.49774V6.49962ZM12.1544 13.6359C11.6268 14.1438 10.9884 14.5135 10.2931 14.7139C10.2634 14.5683 10.2484 14.4199 10.2484 14.2711C10.2484 12.9644 11.3461 11.9043 12.6978 11.9043C12.8809 11.9043 13.0585 11.9241 13.2288 11.9612C13.0059 12.6 12.6374 13.1743 12.1544 13.6359Z" fill="#EDD81F"/>
</svg>
