<svg width="17" height="29" viewBox="0 0 17 29" fill="none" xmlns="http://www.w3.org/2000/svg">
<path d="M0.840018 6.81452C1.92166 9.88873 3.86958 11.7106 6.64309 12.2535V16.5101C6.64309 17.1472 6.95897 17.7094 7.43996 18.0496C6.95897 18.3899 6.64309 18.9521 6.64309 19.5891C6.64309 20.2262 6.95897 20.7884 7.43996 21.1287C6.95897 21.4689 6.64309 22.0311 6.64309 22.6682V24.7531C4.00598 25.2622 2.08199 26.821 2.08199 28.6598C2.08199 28.848 2.23275 29 2.41941 29H14.5951C14.7817 29 14.9325 28.848 14.9325 28.6598C14.9325 26.821 13.0085 25.2622 10.3714 24.7531V22.6682C10.3714 22.0311 10.0555 21.4689 9.57453 21.1287C10.0555 20.7884 10.3714 20.2262 10.3714 19.5891C10.3714 18.9521 10.0555 18.3899 9.57453 18.0496C10.0555 17.7094 10.3714 17.1472 10.3714 16.5101V12.2535C13.1449 11.7106 15.0928 9.88873 16.1745 6.81452C16.598 5.61041 16.8444 1.26685 17 0H-5.47718e-06C0.155541 1.26926 0.416454 5.61041 0.840018 6.81452Z" fill="#EDD81F"/>
</svg>
