<svg width="287" height="184" viewBox="0 0 287 184" fill="none" xmlns="http://www.w3.org/2000/svg">
<path opacity="0.4" d="M283.196 47.0857C276.951 34.1991 263.641 26.6688 250.074 22.0798C220.559 12.0959 180.801 36.3047 149.807 34.5233C106.811 32.0548 63.4671 5.39239 24.2068 24.8368C6.62768 33.5478 -3.40946 48.1445 1.46453 67.0535C3.73608 75.8597 7.95126 83.9878 13.3797 91.3783C18.5071 98.3614 25.5364 106.466 22.5911 115.867C18.2001 129.898 8.40139 141.298 21.5597 154.595C42.2779 175.532 68.6839 167.621 93.3489 158.717C120.306 148.989 146.167 145.575 174.6 151.695C201.027 157.382 228.214 166.131 255.32 158.785C271.838 154.309 278.027 139.29 269.132 124.694C257.389 105.425 274.068 90.3969 282.099 73.7214C286.07 65.4803 287.927 56.8406 283.196 47.0857Z" fill="url(#paint0_linear)"/>
<path opacity="0.26" d="M209.43 13.3513C225.662 31.9005 281.992 11.2933 281.399 45.492C280.704 85.5347 225.343 97.3149 243.271 125.458C261.196 153.602 238.209 175.17 166.176 174.575C94.1389 173.98 -18.5531 148.638 9.36725 110.276C37.2846 71.9135 18.683 69.9447 17.3236 52.9926C15.9613 36.0375 30.0854 -1.15016 85.8755 29.8633C141.666 60.8768 168.328 -33.6179 209.43 13.3513Z" fill="url(#paint1_linear)"/>
<path d="M149.449 115.118C151.759 104.149 157.444 95.013 164.685 89.2404C171.16 84.0804 175.45 76.6393 176.49 68.4487C176.6 67.5863 176.746 66.7208 176.928 65.8494C179.707 52.6565 190.06 43.66 200.055 45.7537C210.05 47.8474 215.899 60.2403 213.121 73.4333C212.552 76.1307 211.669 78.6527 210.533 80.9398C206.914 88.2381 206.056 96.6339 208.441 104.426C210.572 111.388 210.992 119.43 209.26 127.653C206.679 139.918 199.876 149.893 191.395 155.434C188.188 157.531 185.373 160.192 183.132 163.294C179.408 168.445 173.715 171.274 168.101 170.096C162.047 168.826 157.787 163.256 156.824 156.344C156.279 152.433 154.97 148.677 153.101 145.194C148.692 136.968 147.115 126.208 149.449 115.118Z" fill="url(#paint2_linear)"/>
<path opacity="0.57" d="M193.601 59.0566C190.459 67.503 187.591 76.0415 184.816 84.6097C184.121 86.7511 183.46 88.9043 182.792 91.0545L181.79 94.2814L180.815 97.5172C180.175 99.6763 179.504 101.827 178.887 103.992L177.036 110.49C175.858 114.838 174.642 119.174 173.548 123.546C172.996 125.729 172.403 127.903 171.896 130.098L170.346 136.674C168.367 145.462 166.608 154.307 165.302 163.22L165.687 163.28L166.918 156.647L167.222 154.988L167.568 153.337L168.265 150.036L168.957 146.735C169.186 145.634 169.455 144.543 169.702 143.446C170.212 141.257 170.701 139.062 171.225 136.876C173.375 128.141 175.637 119.436 178.082 110.778C179.337 106.46 180.556 102.13 181.841 97.8175L182.795 94.5817L183.779 91.3549C184.431 89.2017 185.087 87.0514 185.761 84.9042C187.076 80.6007 188.42 76.3062 189.8 72.0235C191.157 67.7349 192.558 63.4553 193.968 59.1845L193.601 59.0566Z" fill="white"/>
<path opacity="0.5" d="M205.194 83.4652C205.287 83.4473 205.373 83.3908 205.421 83.3016C211.314 72.6336 210.366 64.6067 208.53 59.753C206.539 54.48 203.191 51.7796 203.048 51.6665C202.905 51.5535 202.699 51.5773 202.589 51.7201C202.476 51.8599 202.5 52.068 202.64 52.1811C202.672 52.2078 206.005 54.9023 207.928 60.0177C209.702 64.7375 210.608 72.5563 204.846 82.9893C204.759 83.1469 204.816 83.3462 204.974 83.4324C205.045 83.4681 205.123 83.48 205.194 83.4652Z" fill="white"/>
<path d="M192.552 134.464C196.841 128.67 202.607 124.842 208.378 123.397C213.538 122.103 218.034 118.897 220.839 114.389C221.134 113.916 221.45 113.446 221.793 112.988C226.95 106.02 235.401 103.515 240.669 107.397C245.936 111.278 246.023 120.072 240.865 127.04C239.81 128.465 238.618 129.702 237.345 130.737C233.276 134.038 230.524 138.716 229.827 143.9C229.204 148.534 227.29 153.343 224.076 157.688C219.28 164.165 212.638 168.186 206.208 169.168C203.775 169.54 201.42 170.349 199.28 171.562C195.727 173.581 191.649 173.721 188.691 171.541C185.502 169.192 184.512 164.802 185.803 160.51C186.533 158.081 186.778 155.541 186.623 153.007C186.25 147.026 188.214 140.322 192.552 134.464Z" fill="url(#paint3_linear)"/>
<path opacity="0.57" d="M233.335 113.446C229.239 117.545 225.275 121.771 221.358 126.038C220.377 127.106 219.414 128.186 218.448 129.265L216.999 130.883L215.562 132.513C214.608 133.604 213.643 134.681 212.701 135.784L209.878 139.089C208.023 141.316 206.154 143.526 204.342 145.789C203.436 146.919 202.505 148.029 201.62 149.177L198.952 152.606C195.44 157.215 192.042 161.915 188.891 166.774L189.1 166.911L191.598 163.363L192.221 162.474L192.865 161.602L194.156 159.859L195.443 158.114C195.873 157.531 196.323 156.966 196.761 156.389C197.646 155.244 198.52 154.093 199.411 152.954C203.006 148.421 206.661 143.939 210.408 139.532C212.298 137.343 214.17 135.136 216.075 132.959L217.5 131.323L218.94 129.7C219.9 128.617 220.857 127.531 221.826 126.458C223.745 124.293 225.683 122.142 227.636 120.007C229.579 117.863 231.541 115.733 233.508 113.613L233.335 113.446Z" fill="white"/>
<path opacity="0.5" d="M231.985 130.178C232.048 130.196 232.116 130.19 232.176 130.152C239.148 125.542 241.125 120.367 241.557 116.84C242.025 113.006 240.851 110.309 240.803 110.196C240.752 110.083 240.621 110.032 240.508 110.083C240.394 110.133 240.344 110.264 240.394 110.377C240.406 110.404 241.572 113.092 241.113 116.81C240.69 120.236 238.752 125.268 231.934 129.777C231.83 129.845 231.803 129.985 231.872 130.086C231.893 130.131 231.937 130.163 231.985 130.178Z" fill="white"/>
<path d="M77.5524 170.849C77.5524 170.849 75.6654 157.805 90.3769 156.803C105.085 155.801 176.872 158.308 176.872 158.308C176.872 158.308 173.855 172.857 176.872 179.129C163.043 179.004 83.0852 179.129 83.0852 179.129C83.0852 179.129 77.0814 176.25 77.5524 170.849Z" fill="url(#paint4_linear)"/>
<path d="M178.252 177.534C166.456 177.534 89.4349 177.534 87.7327 177.534C85.8874 177.534 78.8492 178.01 79.0161 170.153C79.0966 166.376 81.1148 164.071 83.1866 162.596C85.1094 161.228 87.4107 160.585 89.7717 160.585C101.851 160.585 163.749 160.585 172.215 160.585C181.602 160.585 178.836 152.543 178.836 152.543L178.753 152.558L90.5826 152.442C90.5826 152.442 77.5077 160.163 76.1126 168.038C75.7817 169.9 75.8384 171.628 76.1126 173.097C76.9115 177.365 80.6527 180.512 85.0021 180.512H178.252C179.084 180.512 179.76 179.854 179.76 179.025C179.76 178.192 179.086 177.534 178.252 177.534Z" fill="url(#paint5_linear)"/>
<path d="M172.928 44.5942H88.7731V158.501H172.928C176.147 158.501 178.502 155.702 178.502 152.49V50.233C178.502 47.0211 176.147 44.5942 172.928 44.5942Z" fill="url(#paint6_linear)"/>
<path d="M88.7731 44.4189C88.7731 44.4189 75.1796 47.1164 76.1842 57.5583C77.1888 68.0002 76.1394 168.021 76.1394 168.021C76.1394 168.021 80.1281 158.305 88.7731 158.305C88.7731 136.731 88.7731 44.4189 88.7731 44.4189Z" fill="url(#paint7_linear)"/>
<path d="M167.771 162.477C167.771 162.581 167.687 162.665 167.583 162.665H101.779C101.675 162.665 101.592 162.581 101.592 162.477V162.26C101.592 162.156 101.675 162.073 101.779 162.073H167.58C167.684 162.073 167.768 162.156 167.768 162.26V162.477H167.771Z" fill="url(#paint8_linear)"/>
<path d="M169.261 168.908C169.261 169.012 169.127 169.208 169.005 169.208H92.4725C92.3503 169.208 92.0522 169.012 92.0522 168.908V168.631C92.0522 168.527 92.3503 168.613 92.4725 168.613H169.008C169.13 168.613 169.264 168.527 169.264 168.631V168.908H169.261Z" fill="url(#paint9_linear)"/>
<path d="M170.752 174.781C170.752 174.989 170.582 175.158 170.373 175.158H122.241C122.032 175.158 121.863 174.989 121.863 174.781V174.641C121.863 174.433 122.032 174.263 122.241 174.263H170.376C170.585 174.263 170.754 174.433 170.754 174.641V174.781H170.752Z" fill="url(#paint10_linear)"/>
<g opacity="0.9">
<path opacity="0.9" d="M146.572 78.4985H134.979V62.9799C134.979 62.1501 134.329 61.5464 133.498 61.5464H129.473C128.638 61.5464 127.825 62.1501 127.825 62.9799V78.4985H115.895C115.06 78.4985 114.41 79.2063 114.41 80.0391V84.054C114.41 84.8838 115.063 85.6362 115.895 85.6362H127.825V129.709C127.825 130.539 128.641 131.139 129.473 131.139H133.498C134.329 131.139 134.979 130.539 134.979 129.709V85.6362H146.572C147.407 85.6362 148.096 84.8838 148.096 84.054V80.0391C148.096 79.2093 147.404 78.4985 146.572 78.4985Z" fill="#DDDEE0"/>
</g>
<path d="M91.7541 146.132C91.5901 146.132 91.456 145.998 91.456 145.834V103.9C91.456 103.736 91.5901 103.603 91.7541 103.603C91.9181 103.603 92.0522 103.736 92.0522 103.9V145.834C92.0522 145.998 91.9181 146.132 91.7541 146.132Z" fill="#DDDEE0"/>
<path d="M91.7541 97.6543C91.5901 97.6543 91.456 97.5205 91.456 97.3569V77.1333C91.456 76.9698 91.5901 76.8359 91.7541 76.8359C91.9181 76.8359 92.0522 76.9698 92.0522 77.1333V97.3569C92.0522 97.5205 91.9181 97.6543 91.7541 97.6543Z" fill="#DDDEE0"/>
<path d="M91.7541 59.5867C91.5901 59.5867 91.456 59.4528 91.456 59.2893V47.9878C91.456 47.8243 91.5901 47.6904 91.7541 47.6904C91.9181 47.6904 92.0522 47.8243 92.0522 47.9878V59.2893C92.0522 59.4528 91.9181 59.5867 91.7541 59.5867Z" fill="#DDDEE0"/>
<path opacity="0.8" d="M72.4489 35.1516C71.7215 31.7106 69.9121 32.8913 66.8833 31.8326C63.8546 30.7738 64.74 26.9967 62.8619 25.8309C60.3549 24.2785 58.0535 25.7209 56.4944 27.7581C53.9039 31.1456 52.1332 28.3916 49.0359 29.7656C47.2622 30.5537 48.0193 31.6541 45.6196 32.0973C43.9443 32.4066 42.1288 31.6779 40.4743 32.124C39.2521 32.4541 38.3638 33.0341 38.0925 34.2178C38.4383 34.3813 38.796 34.5271 39.1657 34.6579C43.7922 36.3204 50.1031 35.7672 54.7803 36.0111C56.3752 36.0914 72.9646 37.5903 72.4489 35.1516Z" fill="white"/>
<path opacity="0.9" d="M245.817 28.1062C244.195 26.1314 241.775 25.3165 239.405 25.9084C236.82 26.5537 235.359 29.0162 232.954 30.0036C228.756 31.7226 222.955 28.3263 219.769 32.7576C215.869 38.1793 212.859 34.1138 212.859 37.7897C212.859 41.4686 239.789 38.7563 253.076 38.9526C254.996 38.9793 263.331 38.8396 259.741 34.8662C258.626 33.632 257.038 33.4238 255.556 33.1353C253.624 32.7576 249.031 32.5524 247.629 31.0535C246.875 30.2475 246.586 29.0876 245.906 28.2222C245.88 28.1805 245.85 28.1448 245.817 28.1062Z" fill="white"/>
<path d="M177.715 134.069C177.673 134.147 175.116 136.026 175.116 136.026C175.116 136.026 175.682 140.062 177.978 141.653C180.502 143.405 184.065 140.211 184.065 140.211C184.065 140.211 186.9 140.883 188.408 134.994C188.754 133.644 186.757 133.528 184.345 133.778C181.236 134.096 177.715 134.069 177.715 134.069Z" fill="url(#paint11_linear)"/>
<path d="M172.931 147.833C173.932 147.146 175.038 146.629 176.213 146.311C176.654 146.192 179.033 146.882 180.505 146.849C182.527 146.801 184.581 145.885 186.247 146.299C187.901 146.709 189.255 147.247 190.036 147.801C192.376 149.46 193.75 152.556 194.585 155.622C192.999 157.246 191.005 157.966 191.005 157.966L190.635 172.869L181.802 177.378L171.72 172.328L172.081 157.764C172.081 157.764 168.879 156.277 168.644 155.735C168.411 155.194 170.105 149.769 172.931 147.833Z" fill="url(#paint12_linear)"/>
<path d="M168.796 155.67C168.796 155.67 164.506 167.536 174.29 172.414C176.32 172.143 175.539 168.78 175.539 168.78C175.539 168.78 171.288 167.84 172.564 157.942C171.389 156.976 168.796 155.67 168.796 155.67Z" fill="url(#paint13_linear)"/>
<path d="M194.379 155.67C194.379 155.67 197.33 168.057 188.885 172.414C186.855 172.143 187.636 168.78 187.636 168.78C187.636 168.78 191.061 167.096 190.611 157.942C191.786 156.976 194.379 155.67 194.379 155.67Z" fill="url(#paint14_linear)"/>
<path d="M176.213 146.311C176.213 146.311 177.104 150.171 181.439 150.091C185.853 150.01 186.247 146.299 186.247 146.299L183.364 145.683L183.123 142.477L178.785 142.798L178.705 145.844L176.213 146.311Z" fill="url(#paint15_linear)"/>
<path d="M179.393 133.395C179.393 133.395 174.424 143.001 180.321 145.329C184.479 146.974 187.088 138.95 186.309 136.779C185.108 133.418 184.315 133.817 184.315 133.817L179.393 133.395Z" fill="url(#paint16_linear)"/>
<path d="M187.502 132.52C189.958 133.192 187.86 138.506 184.163 137.248C180.467 135.993 179.015 136.011 178.437 137.022C177.861 138.037 177.736 141.632 176.487 139.854C175.116 137.906 174.353 133.992 176.034 132.731C177.536 131.604 177.885 129.858 179.686 129.917C182.076 129.998 183.925 128.942 185.004 129.703C186.244 130.584 185.695 132.026 187.502 132.52Z" fill="url(#paint17_linear)"/>
<path d="M178.21 137.852C178.21 137.852 177.149 136.713 176.979 138.087C176.809 139.458 177.355 141.224 177.992 140.255C178.633 139.285 178.21 137.852 178.21 137.852Z" fill="url(#paint18_linear)"/>
<path d="M192.811 156.476C192.668 156.369 192.447 156.333 192.275 156.384L180.962 159.62L169.771 156.387C169.598 156.336 169.225 156.372 169.082 156.479C168.939 156.586 168.665 156.756 168.665 156.934V157.517L180.887 161.645L193.109 158.186V156.934C193.109 156.753 192.954 156.583 192.811 156.476Z" fill="white"/>
<path d="M180.738 159.62L169.079 156.854C168.906 156.812 168.727 156.854 168.59 156.964C168.453 157.074 168.376 157.243 168.379 157.419L168.644 170.368C168.65 170.633 168.838 170.862 169.1 170.912L181.039 173.354L180.738 159.62Z" fill="url(#paint19_linear)"/>
<path d="M181.647 159.619L193.306 156.853C193.479 156.812 193.658 156.853 193.795 156.963C193.932 157.073 194.01 157.243 194.007 157.418L193.741 170.367C193.735 170.632 193.547 170.861 193.285 170.912L181.346 173.353L181.647 159.619Z" fill="url(#paint20_linear)"/>
<path d="M182.079 159.664C182.079 159.348 181.823 159.096 181.51 159.096H179.969C179.653 159.096 179.4 159.351 179.4 159.664V172.8C179.4 173.115 179.656 173.368 179.969 173.368H181.51C181.826 173.368 182.079 173.112 182.079 172.8V159.664Z" fill="url(#paint21_linear)"/>
<g opacity="0.9">
<path opacity="0.9" d="M190.999 163.304L189.043 163.619L188.995 160.949C188.992 160.806 188.876 160.708 188.736 160.732L188.056 160.848C187.916 160.871 187.806 161.005 187.809 161.151L187.863 163.813L185.856 164.134C185.719 164.155 185.609 164.289 185.615 164.428L185.633 165.103C185.636 165.243 185.749 165.338 185.886 165.318L187.886 165.002L188.036 172.336C188.039 172.473 188.152 172.568 188.289 172.547L188.951 172.458C189.088 172.44 189.198 172.316 189.195 172.179L189.067 164.818L191.02 164.512C191.16 164.491 191.273 164.357 191.273 164.214L191.264 163.527C191.258 163.378 191.142 163.283 190.999 163.304Z" fill="#DDDEE0"/>
</g>
<path d="M170.874 161.764C170.614 161.083 169.231 161.835 168.76 162.118C168.724 162.139 168.683 162.142 168.647 162.124C168.611 162.106 168.584 162.07 168.581 162.032L168.453 161.023L168.012 161.984C167.305 163.025 167.875 165.583 167.875 165.583C168.045 166.698 169.365 166.347 170.346 166.014C171.324 165.678 171.187 162.585 170.874 161.764Z" fill="url(#paint22_linear)"/>
<path d="M191.514 161.764C191.774 161.083 193.157 161.835 193.628 162.118C193.664 162.139 193.705 162.142 193.741 162.124C193.777 162.106 193.804 162.07 193.807 162.032L193.935 161.023L194.376 161.984C195.083 163.025 194.513 165.583 194.513 165.583C194.343 166.698 193.023 166.347 192.042 166.014C191.061 165.678 191.198 162.585 191.514 161.764Z" fill="url(#paint23_linear)"/>
<path d="M199.471 177.116C197.253 176.608 192.131 176.881 192.131 176.881L191.923 177.443L191.577 180.242C191.577 180.242 196.457 181.119 198.863 181.116C199.107 181.116 199.334 181.081 199.536 181.015C199.611 180.95 199.682 180.881 199.748 180.807C200.771 179.698 200.475 178.065 199.471 177.116Z" fill="url(#paint24_linear)"/>
<path d="M199.691 177.172C199.623 177.151 199.548 177.134 199.471 177.116C200.475 178.064 200.771 179.697 199.748 180.809C199.679 180.884 199.608 180.952 199.536 181.018C201.34 180.459 201.555 177.696 199.691 177.172Z" fill="url(#paint25_linear)"/>
<path d="M190.659 176.723L191.526 176.759C191.991 176.78 192.433 177.006 192.746 177.386C193.059 177.77 193.22 178.276 193.193 178.79C193.172 179.201 193.002 179.584 192.725 179.858C192.447 180.131 192.081 180.268 191.708 180.241L190.382 180.146L190.659 176.723Z" fill="url(#paint26_linear)"/>
<path d="M195.306 179.697C195.249 179.697 195.199 179.655 195.184 179.593C194.963 178.706 194.102 177.817 194.093 177.808C194.042 177.755 194.036 177.665 194.087 177.606C194.134 177.549 194.215 177.544 194.269 177.597C194.307 177.636 195.193 178.549 195.434 179.512C195.452 179.587 195.413 179.667 195.345 179.688C195.33 179.694 195.318 179.697 195.306 179.697Z" fill="url(#paint27_linear)"/>
<path d="M194.132 179.626C194.12 179.626 194.108 179.623 194.093 179.62C194.024 179.597 193.989 179.516 194.01 179.442C194.299 178.413 195.393 177.589 195.44 177.556C195.5 177.512 195.581 177.53 195.619 177.595C195.658 177.66 195.643 177.75 195.584 177.791C195.572 177.8 194.519 178.594 194.257 179.525C194.239 179.588 194.188 179.626 194.132 179.626Z" fill="url(#paint28_linear)"/>
<path d="M197.658 179.834C197.599 179.834 197.548 179.789 197.533 179.724C197.351 178.829 196.529 177.892 196.523 177.883C196.472 177.826 196.475 177.737 196.526 177.681C196.576 177.624 196.657 177.627 196.707 177.684C196.743 177.725 197.587 178.686 197.787 179.661C197.801 179.739 197.76 179.813 197.688 179.831C197.679 179.834 197.67 179.834 197.658 179.834Z" fill="url(#paint29_linear)"/>
<path d="M196.493 179.7C196.478 179.7 196.463 179.697 196.451 179.692C196.385 179.665 196.35 179.581 196.374 179.51C196.707 178.499 197.837 177.735 197.885 177.702C197.945 177.66 198.025 177.684 198.061 177.749C198.097 177.818 198.079 177.904 198.016 177.946C198.004 177.952 196.916 178.689 196.615 179.608C196.594 179.665 196.543 179.7 196.493 179.7Z" fill="url(#paint30_linear)"/>
<path d="M161.486 176.848C163.716 176.408 168.829 176.839 168.829 176.839L169.023 177.407L169.297 180.215C169.297 180.215 164.399 180.944 161.993 180.866C161.749 180.857 161.525 180.816 161.322 180.744C161.251 180.676 161.179 180.608 161.114 180.53C160.124 179.388 160.458 177.764 161.486 176.848Z" fill="url(#paint31_linear)"/>
<path d="M161.266 176.896C161.334 176.878 161.409 176.863 161.486 176.848C160.458 177.767 160.124 179.391 161.117 180.533C161.182 180.61 161.254 180.679 161.325 180.747C159.534 180.129 159.391 177.363 161.266 176.896Z" fill="url(#paint32_linear)"/>
<path d="M170.304 176.727L169.437 176.735C168.972 176.741 168.525 176.956 168.203 177.327C167.881 177.699 167.705 178.202 167.72 178.716C167.732 179.127 167.89 179.516 168.161 179.799C168.432 180.078 168.796 180.23 169.166 180.215L170.495 180.162L170.304 176.727Z" fill="url(#paint33_linear)"/>
<path d="M165.585 179.555C165.642 179.555 165.693 179.517 165.711 179.454C165.955 178.577 166.837 177.714 166.846 177.705C166.9 177.655 166.906 177.563 166.858 177.506C166.811 177.447 166.73 177.441 166.676 177.491C166.638 177.53 165.728 178.416 165.463 179.371C165.442 179.445 165.481 179.525 165.55 179.549C165.561 179.552 165.573 179.555 165.585 179.555Z" fill="url(#paint34_linear)"/>
<path d="M166.76 179.519C166.772 179.519 166.784 179.519 166.799 179.513C166.867 179.492 166.906 179.412 166.888 179.338C166.623 178.3 165.553 177.443 165.505 177.408C165.448 177.363 165.368 177.378 165.326 177.44C165.284 177.503 165.299 177.592 165.356 177.64C165.365 177.648 166.399 178.475 166.641 179.415C166.656 179.478 166.706 179.516 166.76 179.519Z" fill="url(#paint35_linear)"/>
<path d="M163.23 179.621C163.29 179.621 163.344 179.579 163.359 179.514C163.564 178.625 164.408 177.715 164.417 177.706C164.467 177.652 164.47 177.56 164.42 177.503C164.369 177.447 164.289 177.444 164.238 177.5C164.202 177.539 163.332 178.476 163.111 179.442C163.093 179.52 163.135 179.597 163.204 179.615C163.209 179.618 163.221 179.621 163.23 179.621Z" fill="url(#paint36_linear)"/>
<path d="M164.402 179.522C164.417 179.522 164.432 179.519 164.447 179.513C164.515 179.489 164.551 179.409 164.527 179.331C164.217 178.308 163.108 177.511 163.06 177.478C163.001 177.437 162.92 177.455 162.882 177.52C162.843 177.586 162.861 177.675 162.92 177.716C162.932 177.725 163.999 178.493 164.28 179.421C164.298 179.483 164.348 179.519 164.402 179.522Z" fill="url(#paint37_linear)"/>
<path d="M200.091 168.342C199.086 166.034 196.627 165.659 194.534 166.739C194.498 166.786 181.245 173.564 169.556 176.532C169.89 177.603 170.063 178.742 170.102 179.86C170.108 180.11 170.105 180.357 170.09 180.598C179.054 180.14 188.781 177.157 197.14 174.537C199.73 173.704 201.206 170.902 200.091 168.342Z" fill="url(#paint38_linear)"/>
<path d="M190.721 180.036C190.686 178.745 190.939 177.544 191.476 176.434C191.491 176.384 191.508 176.333 191.526 176.286C190.859 176.08 189.997 175.801 188.864 175.417C180.565 172.583 174.233 169.722 168.191 166.43C165.842 165.151 163.174 166.007 162.422 168.779C161.752 171.254 163.224 173.365 165.46 174.109C172.15 176.33 168.668 175.712 170.85 176.414C176.717 178.225 184.017 179.872 190.736 180.321C190.73 180.223 190.724 180.131 190.721 180.036Z" fill="url(#paint39_linear)"/>
<path d="M216.981 108.09C216.981 108.09 214.442 105.99 215.133 103.813C215.133 103.813 215.208 101.731 215.768 102.734C216.329 103.736 216.981 108.09 216.981 108.09Z" fill="url(#paint40_linear)"/>
<path d="M216.266 106.582C216.266 106.582 216.266 118.407 221.462 117.444C224.637 116.855 226.515 104.117 226.515 104.117C226.515 104.117 223.23 96.8185 222.863 99.2066C220.198 116.572 218.21 103.281 216.266 106.582Z" fill="url(#paint41_linear)"/>
<path d="M230.22 176.762C230.22 176.762 230.614 178.977 230.804 181.172C230.879 182.029 230.217 182.775 229.356 182.811C226.428 182.933 220.165 183.168 217.917 183.07C217.581 183.055 217.36 182.71 217.482 182.398C217.587 182.136 217.789 181.922 218.046 181.806L228.39 177.062L230.22 176.762Z" fill="url(#paint42_linear)"/>
<path d="M230.542 175.461L230.226 178.111C230.226 178.111 228.414 178.953 227.177 178.004L227.928 175.051L230.542 175.461Z" fill="url(#paint43_linear)"/>
<path d="M230.304 125.631C230.441 126.324 231.034 160.172 227.409 175.34C227.349 175.587 227.475 175.842 227.713 175.938C228.271 176.164 229.359 176.494 230.667 176.535C231.073 176.55 231.433 176.286 231.55 175.899C232.587 172.381 237.553 154.747 238.2 137.902C238.925 119.08 238.2 137.263 238.2 137.263L237.777 125.628L230.304 125.631Z" fill="url(#paint44_linear)"/>
<path d="M242.12 177.918C242.12 177.918 242.746 179.036 243.349 182.01C243.459 182.546 243.08 183.06 242.535 183.114C241.569 183.209 240.078 183.331 238.886 183.322C238.337 183.319 237.908 182.84 237.974 182.296C238.105 181.21 238.516 179.432 239.789 178.043L242.12 177.918Z" fill="url(#paint45_linear)"/>
<path d="M242.669 174.51L241.933 178.519C241.933 178.519 241.205 179.06 239.762 178.667L240.114 174.355L242.669 174.51Z" fill="url(#paint46_linear)"/>
<path d="M244.657 126.67C247.623 144.529 244.013 170.808 242.797 175.953C242.723 176.268 242.469 176.509 242.147 176.562C241.605 176.652 240.71 176.726 239.828 176.47C239.524 176.381 239.309 176.107 239.297 175.792C239.133 171.634 239.429 146.105 236.665 136.014C236.525 135.503 236.212 135.056 235.78 134.75L230.417 130.946L230.006 124.796L244.657 126.67Z" fill="url(#paint47_linear)"/>
<path d="M225.433 93.5053C236.263 92.4257 244.455 95.1589 244.455 95.1589C247.105 110.582 244.917 128.373 244.917 128.373C238.036 130.172 230.274 127.273 230.274 127.273C229.129 120.825 224.365 105.94 224.365 105.94C222.195 105.672 220.156 106.767 220.624 103.757C221.092 100.75 224.067 93.6392 225.433 93.5053Z" fill="url(#paint48_linear)"/>
<path d="M241.044 103.745L244.455 95.1587C244.455 95.1587 252.757 100.786 254.122 107.923C252.554 108.039 249.007 108.655 246.21 110.062C245.599 106.692 241.044 103.745 241.044 103.745Z" fill="url(#paint49_linear)"/>
<path d="M233.067 111.826C233.067 111.826 242.389 117.081 245.534 112.593C246.187 111.662 246.342 110.734 246.181 109.851C248.974 108.444 251.83 108.037 253.398 107.921C253.809 110.071 253.591 112.361 252.325 114.672C246.816 124.727 231.83 114.116 231.83 114.116L233.067 111.826Z" fill="url(#paint50_linear)"/>
<path d="M234.37 86.7339L237.199 94.8947C237.246 95.0285 237.19 95.1802 237.065 95.2486C236.293 95.6739 233.517 96.9022 230.169 94.7847C229.821 94.5646 229.582 94.2047 229.532 93.7973L228.616 86.7339H234.37Z" fill="url(#paint51_linear)"/>
<path d="M225.922 84.7144C225.922 84.7144 226.837 91.2543 228.542 92.9317C230.25 94.6061 233.267 92.2179 234.865 88.6996L233.064 82.2251L225.922 84.7144Z" fill="url(#paint52_linear)"/>
<path d="M232.93 86.2815C232.784 86.3113 232.644 86.2072 232.638 86.0585C232.617 85.6064 232.539 84.7053 232.262 84.0718C232.262 84.0718 232.504 83.4562 230.623 84.2324C228.742 85.0087 225.918 86.1418 224.428 85.1425C222.973 84.17 221.837 79.9022 225.823 81.0769C225.975 81.1216 226.13 81.0145 226.133 80.8569C226.151 80.1758 226.378 78.6293 228.008 78.2903C229.532 77.975 230.271 78.7215 230.563 79.1557C230.649 79.2836 230.831 79.2985 230.936 79.1884C231.436 78.659 232.763 77.5557 234.45 78.5133C235.839 79.3014 235.977 80.2204 235.893 80.7736C235.866 80.952 236.039 81.0948 236.209 81.0353C236.677 80.8747 237.404 80.842 238.004 81.7729C238.832 83.0577 237.369 83.9469 236.933 84.1759C236.862 84.2146 236.814 84.283 236.805 84.3633C236.74 84.9789 236.367 87.6645 234.859 89.0444C234.727 89.1634 234.516 89.1039 234.465 88.9344L233.678 86.3529C233.642 86.234 233.52 86.1596 233.395 86.1864L232.93 86.2815Z" fill="url(#paint53_linear)"/>
<path d="M232.855 86.7817C232.855 86.7817 233.756 84.2627 234.638 85.1995C235.517 86.1364 234.11 87.8613 232.969 88.0992L232.855 86.7817Z" fill="url(#paint54_linear)"/>
<path d="M227.946 104.661L225.841 104.581L227.71 104.046C227.743 104.037 227.689 104.007 227.689 103.974V103.748C227.689 103.727 227.743 103.707 227.725 103.692C227.71 103.677 227.719 103.671 227.698 103.674L215.896 105.22C215.896 105.22 213.854 99.5994 213.488 99.0254C213.121 98.4544 212.25 98.9957 212.25 98.9957L214.355 106.868L228.288 105.86V104.956C228.285 104.801 228.107 104.667 227.946 104.661Z" fill="white"/>
<path d="M232.125 116.554L228.837 105.815C228.688 105.33 228.229 105.012 227.722 105.041L215.014 105.809C214.832 105.821 214.668 105.711 214.605 105.538L212.405 99.3342C212.313 99.0724 212.066 98.897 211.785 98.897C211.663 98.897 211.547 98.9535 211.472 99.0516C211.398 99.1498 211.374 99.2747 211.407 99.3936L213.204 105.96C213.306 106.332 213.44 106.698 213.601 107.049L218.451 117.583C218.573 117.845 218.833 118.053 219.122 118.053H231.076C231.424 118.053 231.749 117.845 231.958 117.568C232.164 117.289 232.226 116.887 232.125 116.554Z" fill="url(#paint55_linear)"/>
<g opacity="0.9">
<path opacity="0.9" d="M225.814 109.595L223.268 109.83L222.586 107.977C222.547 107.876 222.38 107.814 222.21 107.841L221.411 107.963C221.25 107.986 221.152 108.085 221.191 108.183L221.876 109.958L219.724 110.157C219.584 110.169 219.503 110.25 219.539 110.336L219.712 110.749C219.748 110.833 219.888 110.895 220.028 110.886L222.177 110.737L223.93 115.273C223.96 115.353 224.112 115.425 224.27 115.436L225.051 115.484C225.218 115.493 225.328 115.436 225.295 115.353L223.566 110.636L226.103 110.461C226.3 110.446 226.434 110.354 226.398 110.25L226.234 109.75C226.202 109.646 226.011 109.578 225.814 109.595Z" fill="#DDDEE0"/>
</g>
<path d="M232.96 114.193C232.96 114.193 233.669 111.285 233.383 110.256C233.097 109.224 232.542 107.897 230.697 108.192C228.852 108.486 226.673 109.262 226.673 109.262C226.673 109.262 226.783 110.607 228.187 110.172L227.317 110.844C227.317 110.844 227.442 111.921 228.625 111.344L227.817 112.233C227.817 112.233 228.327 113.117 229.198 112.552C230.068 111.986 230.485 114.541 232.96 114.193Z" fill="url(#paint56_linear)"/>
<path d="M86.4419 85.0265C86.4419 85.0265 87.4167 83.8666 89.2411 83.8101C91.0685 83.7565 93.5547 82.674 94.6249 82.5788C94.8812 82.555 95.0094 82.4807 95.0333 82.3885C95.078 82.1952 93.8915 81.9126 92.8392 81.8769C90.9731 81.8145 89.885 82.5283 89.6346 82.1625C89.3544 81.752 90.5587 80.6308 90.3381 80.381C90.1682 80.1877 89.3484 80.8122 88.472 81.1929C87.849 81.4635 85.4164 84.3662 85.4164 84.3662L86.4419 85.0265Z" fill="url(#paint57_linear)"/>
<path d="M58.6199 83.0872C58.5275 81.7697 58.2413 77.7458 60.3698 76.5443C62.5608 75.3041 66.0546 77.7696 67.4766 78.7718C73.5072 83.0217 73.6503 88.1788 76.9771 88.7438C78.4706 88.9966 80.8465 88.3631 84.4237 83.6909C85.0975 84.137 85.7682 84.5831 86.4419 85.0292C86.3316 90.2695 83.6129 94.9745 79.3083 97.0504C72.0137 100.569 64.74 94.3321 63.8665 93.5588C63.3866 93.1335 59.0492 89.1751 58.6199 83.0872Z" fill="url(#paint58_linear)"/>
<path d="M61.4966 175.069C61.4966 175.069 61.1925 176.919 61.2313 177.579C61.27 178.239 68.5974 178.575 68.6719 178.082C68.7465 177.588 67.4616 176.803 66.5554 176.526C65.6492 176.25 63.002 175.509 63.002 175.509L61.4966 175.069Z" fill="url(#paint59_linear)"/>
<path d="M63.2763 173.225L63.0437 175.527C63.0437 175.527 62.1912 176.089 61.4429 175.655L61.0673 173.151L63.2763 173.225Z" fill="url(#paint60_linear)"/>
<path d="M48.4218 178.07C48.4218 178.07 48.1177 179.92 48.1565 180.58C48.1952 181.24 55.5226 181.576 55.5971 181.083C55.6717 180.589 54.3868 179.804 53.4806 179.527C52.5774 179.251 49.9272 178.51 49.9272 178.51L48.4218 178.07Z" fill="url(#paint61_linear)"/>
<path d="M50.1984 176.225L49.9659 178.527C49.9659 178.527 49.1134 179.089 48.3651 178.655L47.9895 176.151L50.1984 176.225Z" fill="url(#paint62_linear)"/>
<path d="M61.9467 113.128C62.7933 114.842 63.6399 116.555 64.4895 118.268C65.1722 128.046 65.5091 138.679 65.2914 150.048C65.1305 158.51 64.6773 166.522 64.0245 174.043C62.8768 173.99 61.7261 173.939 60.5784 173.885C58.918 170.596 56.9565 165.615 56.7776 159.464C56.5898 153.049 58.5394 152.199 58.4142 146.054C58.2532 138.093 54.9085 135.969 53.1258 126.393C52.4432 122.732 51.9841 117.946 52.5296 112.144C55.6687 112.474 58.8077 112.801 61.9467 113.128Z" fill="url(#paint63_linear)"/>
<path opacity="0.3" d="M52.5297 112.147C54.2259 112.322 55.9191 112.501 57.6153 112.676C60.6679 117.973 61.5175 123.487 60.9839 125.926C60.2267 129.376 58.2234 130.482 58.3337 133.947C58.444 137.376 60.4682 138.265 61.753 142.304C62.6413 145.102 62.4088 147.675 61.902 152.704C60.8825 162.837 58.4321 165.936 60.486 169.258C61.0703 170.201 62.1226 171.325 64.1825 172.184C64.1318 172.806 64.0812 173.43 64.0305 174.043C62.8828 173.99 61.7321 173.939 60.5844 173.885C58.924 170.596 56.9625 165.615 56.7836 159.464C56.5958 153.049 58.5454 152.199 58.4202 146.054C58.2592 138.093 54.9145 135.969 53.1318 126.393C52.4432 122.735 51.9841 117.952 52.5297 112.147Z" fill="url(#paint64_linear)"/>
<path d="M57.3887 116.212C55.7998 124.864 54.3928 134.122 53.2987 143.939C51.9752 155.794 51.2687 166.973 50.9914 177.35C49.7304 177.386 48.4695 177.421 47.2085 177.457C42.2421 167.651 41.938 161.004 42.6535 156.677C42.9307 155.009 43.6789 151.74 43.8489 146.854C43.9681 143.449 43.7505 140.855 43.4792 137.738C42.883 130.904 42.1586 129.414 42.0543 124.186C41.9559 119.281 41.935 116.798 43.3391 115.35C47.0386 111.534 56.6584 115.873 57.3887 116.212Z" fill="url(#paint65_linear)"/>
<path d="M65.4524 120.022C66.6597 118.023 65.1424 116.093 64.7966 112.307C64.4061 108.013 66.0635 107.299 67.7031 100.185C68.7942 95.4533 69.8405 90.909 68.5914 85.5913C67.9923 83.0426 66.9787 78.7213 63.3925 76.6335C61.5413 75.5569 59.0164 75.6639 54.038 75.9227C47.8822 76.2439 44.8058 76.4045 42.5104 77.609C42.1735 77.7844 35.1919 81.5734 34.712 87.7505C34.2231 94.0377 41.0855 94.8823 42.0006 103.266C42.412 107.028 41.6787 112.819 41.2047 116.572C40.7486 120.177 40.4356 121.099 41.1481 122.19C42.8651 124.819 48.1267 124.07 58.6497 122.571C62.7725 121.982 64.5492 121.515 65.4524 120.022Z" fill="url(#paint66_linear)"/>
<path opacity="0.4" d="M49.4413 101.916C48.9971 103.549 47.3963 104.771 46.2814 108.744C46.0399 109.604 44.3288 115.713 46.5497 117.217C47.8345 118.086 48.9852 116.441 52.1004 116.224C57.499 115.852 60.0687 120.376 63.5952 119.142C64.2063 118.927 65.0142 118.469 65.8221 117.42C65.983 118.365 65.9562 119.189 65.4524 120.022C64.5521 121.515 62.7754 121.982 58.6467 122.571C48.1237 124.07 42.8621 124.819 41.1451 122.19C40.4326 121.099 40.7456 120.177 41.2017 116.572C41.6757 112.819 42.409 107.031 41.9976 103.266C41.0825 94.8822 34.2201 94.0376 34.709 87.7504C34.8402 86.0701 35.4602 84.5741 36.289 83.2715C44.9936 86.7868 50.8394 96.7826 49.4413 101.916Z" fill="url(#paint67_linear)"/>
<path d="M53.7131 69.728C53.7131 69.728 53.6088 72.0151 52.8963 73.7311C52.2524 75.2806 48.8689 76.2531 48.1833 76.5981C47.4976 76.9431 49.4681 77.9543 51.4475 78.1535C53.4269 78.3528 59.0819 77.9037 60.0985 77.1542C61.118 76.4048 59.2787 76.4613 57.8657 75.9438C56.4527 75.4263 55.6359 72.6694 55.8863 71.4173C56.1397 70.1682 53.7131 69.728 53.7131 69.728Z" fill="url(#paint68_linear)"/>
<path d="M56.1606 65.787C58.3099 63.6784 58.611 63.4316 58.8465 62.7029C59.7855 59.7794 57.5139 55.7734 54.5299 54.786C54.3749 54.7354 52.3746 54.096 51.6115 54.9614C50.9616 55.696 51.9156 56.7132 51.4624 58.1288C51.0362 59.4552 49.8855 59.5534 47.7481 61.2932C45.9893 62.7267 44.8952 63.6159 44.6418 64.868C44.1231 67.4495 47.2562 71.1938 50.0286 71.0927C51.0302 71.06 51.3015 70.5514 56.1606 65.787Z" fill="url(#paint69_linear)"/>
<path d="M50.3028 71.4974C50.3028 71.4974 52.5893 74.0789 56.0711 73.2254C59.1893 72.461 58.3933 65.3203 56.1129 64.1813C55.3527 63.8006 53.9695 63.8333 52.9291 64.3329C52.315 64.6274 52.1451 64.9367 51.1315 65.3976C50.1955 65.8259 49.9004 65.7664 49.65 66.0668C49.334 66.4415 49.1998 67.2535 50.1866 69.2074C49.4771 68.7048 48.7109 68.6007 48.2429 68.9338C48.1684 68.9873 47.9776 69.1717 47.8941 69.4156C47.596 70.2989 48.5172 71.197 50.3028 71.4974Z" fill="url(#paint70_linear)"/>
<path d="M53.8651 102.666C53.8651 102.666 55.1768 101.794 55.1768 100.92C55.1768 100.045 56.0502 98.7397 56.4885 98.7397C56.9267 98.7397 56.9267 99.1769 56.4885 100.048C56.0502 100.92 58.2383 100.486 59.1118 99.6111C59.9852 98.7397 60.8616 98.7397 60.4234 99.174C59.7318 99.8639 59.55 100.483 59.55 100.483C59.55 100.483 58.6765 103.971 54.8489 103.754L53.8651 102.666Z" fill="url(#paint71_linear)"/>
<path d="M44.6806 77.7994C41.8844 76.5532 37.2041 81.6864 36.3724 82.5995C31.9635 87.4323 25.7093 98.3917 30.6876 104.848C34.8402 110.234 45.9893 111.421 55.1738 104.411C54.7356 103.54 54.3004 102.665 53.8622 101.794C52.9082 102.139 46.6361 104.304 42.0573 100.923C41.0855 100.206 40.6532 98.9717 40.4952 97.3032C40.2001 94.1953 43.8757 93.3656 45.9922 88.7082C47.8673 84.5832 47.0922 78.873 44.6806 77.7994Z" fill="url(#paint72_linear)"/>
<defs>
<linearGradient id="paint0_linear" x1="0.236342" y1="92.8371" x2="286.002" y2="92.8371" gradientUnits="userSpaceOnUse">
<stop stop-color="#B37CFF"/>
<stop offset="1" stop-color="#F895E7"/>
</linearGradient>
<linearGradient id="paint1_linear" x1="281.403" y1="87.2931" x2="5.00946" y2="87.2931" gradientUnits="userSpaceOnUse">
<stop stop-color="#B37CFF"/>
<stop offset="1" stop-color="#F895E7"/>
</linearGradient>
<linearGradient id="paint2_linear" x1="154.969" y1="170.812" x2="206.467" y2="65.6544" gradientUnits="userSpaceOnUse">
<stop stop-color="#ED539F"/>
<stop offset="1" stop-color="#A061C2"/>
</linearGradient>
<linearGradient id="paint3_linear" x1="180.831" y1="168.464" x2="239.102" y2="120.761" gradientUnits="userSpaceOnUse">
<stop stop-color="#A737D5"/>
<stop offset="1" stop-color="#EF497A"/>
</linearGradient>
<linearGradient id="paint4_linear" x1="77.4728" y1="167.845" x2="176.87" y2="167.845" gradientUnits="userSpaceOnUse">
<stop stop-color="#53EAC9"/>
<stop offset="0.9964" stop-color="#45AED8"/>
</linearGradient>
<linearGradient id="paint5_linear" x1="124.712" y1="122.649" x2="130.146" y2="200.045" gradientUnits="userSpaceOnUse">
<stop stop-color="#2B3582"/>
<stop offset="1" stop-color="#150E42"/>
</linearGradient>
<linearGradient id="paint6_linear" x1="122.497" y1="-53.6857" x2="141.521" y2="217.277" gradientUnits="userSpaceOnUse">
<stop stop-color="#2B3582"/>
<stop offset="1" stop-color="#150E42"/>
</linearGradient>
<linearGradient id="paint7_linear" x1="76.1315" y1="106.22" x2="88.7731" y2="106.22" gradientUnits="userSpaceOnUse">
<stop stop-color="#2B3582"/>
<stop offset="1" stop-color="#150E42"/>
</linearGradient>
<linearGradient id="paint8_linear" x1="132.998" y1="163.029" x2="95.3595" y2="177.902" gradientUnits="userSpaceOnUse">
<stop stop-color="#53EAC9"/>
<stop offset="0.9964" stop-color="#45AED8"/>
</linearGradient>
<linearGradient id="paint9_linear" x1="134.793" y1="167.233" x2="97.0377" y2="182.151" gradientUnits="userSpaceOnUse">
<stop stop-color="#53EAC9"/>
<stop offset="0.9964" stop-color="#45AED8"/>
</linearGradient>
<linearGradient id="paint10_linear" x1="138.743" y1="177.684" x2="101.061" y2="192.574" gradientUnits="userSpaceOnUse">
<stop stop-color="#53EAC9"/>
<stop offset="0.9964" stop-color="#45AED8"/>
</linearGradient>
<linearGradient id="paint11_linear" x1="193.003" y1="120.295" x2="182.542" y2="135.196" gradientUnits="userSpaceOnUse">
<stop stop-color="#CB236D"/>
<stop offset="1" stop-color="#4C246D"/>
</linearGradient>
<linearGradient id="paint12_linear" x1="181.265" y1="145.353" x2="183.786" y2="221.811" gradientUnits="userSpaceOnUse">
<stop stop-color="#FDF53F"/>
<stop offset="1" stop-color="#D93C65"/>
</linearGradient>
<linearGradient id="paint13_linear" x1="166.603" y1="152.48" x2="183.322" y2="192.96" gradientUnits="userSpaceOnUse">
<stop stop-color="#F9B776"/>
<stop offset="1" stop-color="#F47960"/>
</linearGradient>
<linearGradient id="paint14_linear" x1="196.36" y1="152.393" x2="179.642" y2="192.873" gradientUnits="userSpaceOnUse">
<stop stop-color="#F9B776"/>
<stop offset="1" stop-color="#F47960"/>
</linearGradient>
<linearGradient id="paint15_linear" x1="181.338" y1="155.82" x2="181.116" y2="136.433" gradientUnits="userSpaceOnUse">
<stop stop-color="#F9B776"/>
<stop offset="1" stop-color="#F47960"/>
</linearGradient>
<linearGradient id="paint16_linear" x1="180.691" y1="145.058" x2="184.081" y2="128.516" gradientUnits="userSpaceOnUse">
<stop stop-color="#F9B776"/>
<stop offset="1" stop-color="#F47960"/>
</linearGradient>
<linearGradient id="paint17_linear" x1="193.432" y1="118.031" x2="181.661" y2="134.798" gradientUnits="userSpaceOnUse">
<stop stop-color="#CB236D"/>
<stop offset="1" stop-color="#4C246D"/>
</linearGradient>
<linearGradient id="paint18_linear" x1="178.434" y1="147.254" x2="176.004" y2="120.908" gradientUnits="userSpaceOnUse">
<stop stop-color="#F9B776"/>
<stop offset="1" stop-color="#F47960"/>
</linearGradient>
<linearGradient id="paint19_linear" x1="174.981" y1="154.262" x2="173.938" y2="196.62" gradientUnits="userSpaceOnUse">
<stop stop-color="#2B3582"/>
<stop offset="1" stop-color="#150E42"/>
</linearGradient>
<linearGradient id="paint20_linear" x1="187.404" y1="154.262" x2="188.447" y2="196.619" gradientUnits="userSpaceOnUse">
<stop stop-color="#2B3582"/>
<stop offset="1" stop-color="#150E42"/>
</linearGradient>
<linearGradient id="paint21_linear" x1="173.971" y1="187.307" x2="181.202" y2="164.682" gradientUnits="userSpaceOnUse">
<stop stop-color="#2B3582"/>
<stop offset="1" stop-color="#150E42"/>
</linearGradient>
<linearGradient id="paint22_linear" x1="169.799" y1="164.796" x2="168.257" y2="160.855" gradientUnits="userSpaceOnUse">
<stop stop-color="#F9B776"/>
<stop offset="1" stop-color="#F47960"/>
</linearGradient>
<linearGradient id="paint23_linear" x1="192.587" y1="164.796" x2="194.129" y2="160.855" gradientUnits="userSpaceOnUse">
<stop stop-color="#F9B776"/>
<stop offset="1" stop-color="#F47960"/>
</linearGradient>
<linearGradient id="paint24_linear" x1="191.588" y1="178.921" x2="200.761" y2="178.992" gradientUnits="userSpaceOnUse">
<stop stop-color="#2C759E"/>
<stop offset="1" stop-color="#051042"/>
</linearGradient>
<linearGradient id="paint25_linear" x1="201.886" y1="179.114" x2="193.833" y2="178.955" gradientUnits="userSpaceOnUse">
<stop stop-color="#53EAC9"/>
<stop offset="0.9964" stop-color="#45AED8"/>
</linearGradient>
<linearGradient id="paint26_linear" x1="197.642" y1="162.421" x2="188" y2="188.6" gradientUnits="userSpaceOnUse">
<stop stop-color="#F9B776"/>
<stop offset="1" stop-color="#F47960"/>
</linearGradient>
<linearGradient id="paint27_linear" x1="201.908" y1="178.77" x2="193.853" y2="178.611" gradientUnits="userSpaceOnUse">
<stop stop-color="#53EAC9"/>
<stop offset="0.9964" stop-color="#45AED8"/>
</linearGradient>
<linearGradient id="paint28_linear" x1="201.875" y1="178.716" x2="193.859" y2="178.557" gradientUnits="userSpaceOnUse">
<stop stop-color="#53EAC9"/>
<stop offset="0.9964" stop-color="#45AED8"/>
</linearGradient>
<linearGradient id="paint29_linear" x1="201.92" y1="179.065" x2="193.83" y2="178.509" gradientUnits="userSpaceOnUse">
<stop stop-color="#53EAC9"/>
<stop offset="0.9964" stop-color="#45AED8"/>
</linearGradient>
<linearGradient id="paint30_linear" x1="201.847" y1="179.006" x2="193.888" y2="178.46" gradientUnits="userSpaceOnUse">
<stop stop-color="#53EAC9"/>
<stop offset="0.9964" stop-color="#45AED8"/>
</linearGradient>
<linearGradient id="paint31_linear" x1="169.326" y1="178.876" x2="160.151" y2="178.692" gradientUnits="userSpaceOnUse">
<stop stop-color="#2C759E"/>
<stop offset="1" stop-color="#051042"/>
</linearGradient>
<linearGradient id="paint32_linear" x1="159.025" y1="178.777" x2="167.053" y2="178.841" gradientUnits="userSpaceOnUse">
<stop stop-color="#53EAC9"/>
<stop offset="0.9964" stop-color="#45AED8"/>
</linearGradient>
<linearGradient id="paint33_linear" x1="178.243" y1="154.536" x2="168.596" y2="180.73" gradientUnits="userSpaceOnUse">
<stop stop-color="#F9B776"/>
<stop offset="1" stop-color="#F47960"/>
</linearGradient>
<linearGradient id="paint34_linear" x1="159.034" y1="178.448" x2="167.061" y2="178.512" gradientUnits="userSpaceOnUse">
<stop stop-color="#53EAC9"/>
<stop offset="0.9964" stop-color="#45AED8"/>
</linearGradient>
<linearGradient id="paint35_linear" x1="159.021" y1="178.393" x2="167.064" y2="178.458" gradientUnits="userSpaceOnUse">
<stop stop-color="#53EAC9"/>
<stop offset="0.9964" stop-color="#45AED8"/>
</linearGradient>
<linearGradient id="paint36_linear" x1="159.007" y1="178.735" x2="167.079" y2="178.405" gradientUnits="userSpaceOnUse">
<stop stop-color="#53EAC9"/>
<stop offset="0.9964" stop-color="#45AED8"/>
</linearGradient>
<linearGradient id="paint37_linear" x1="159.051" y1="178.678" x2="167.044" y2="178.351" gradientUnits="userSpaceOnUse">
<stop stop-color="#53EAC9"/>
<stop offset="0.9964" stop-color="#45AED8"/>
</linearGradient>
<linearGradient id="paint38_linear" x1="201.746" y1="161.915" x2="176.618" y2="180.836" gradientUnits="userSpaceOnUse">
<stop stop-color="#7C27DD"/>
<stop offset="1" stop-color="#2B41D9"/>
</linearGradient>
<linearGradient id="paint39_linear" x1="178.984" y1="178.835" x2="172.414" y2="162.041" gradientUnits="userSpaceOnUse">
<stop stop-color="#7C27DD"/>
<stop offset="1" stop-color="#2B41D9"/>
</linearGradient>
<linearGradient id="paint40_linear" x1="215.013" y1="105.278" x2="216.981" y2="105.278" gradientUnits="userSpaceOnUse">
<stop stop-color="#F9B776"/>
<stop offset="1" stop-color="#F47960"/>
</linearGradient>
<linearGradient id="paint41_linear" x1="226.514" y1="108.111" x2="216.264" y2="108.111" gradientUnits="userSpaceOnUse">
<stop stop-color="#F9B776"/>
<stop offset="1" stop-color="#F47960"/>
</linearGradient>
<linearGradient id="paint42_linear" x1="224.351" y1="157.491" x2="224.083" y2="187.137" gradientUnits="userSpaceOnUse">
<stop stop-color="#CB236D"/>
<stop offset="1" stop-color="#4C246D"/>
</linearGradient>
<linearGradient id="paint43_linear" x1="230.541" y1="176.753" x2="227.176" y2="176.753" gradientUnits="userSpaceOnUse">
<stop stop-color="#F9B776"/>
<stop offset="1" stop-color="#F47960"/>
</linearGradient>
<linearGradient id="paint44_linear" x1="234.343" y1="189.527" x2="232.057" y2="128.045" gradientUnits="userSpaceOnUse">
<stop stop-color="#2B3582"/>
<stop offset="1" stop-color="#150E42"/>
</linearGradient>
<linearGradient id="paint45_linear" x1="240.893" y1="157.641" x2="240.624" y2="187.287" gradientUnits="userSpaceOnUse">
<stop stop-color="#CB236D"/>
<stop offset="1" stop-color="#4C246D"/>
</linearGradient>
<linearGradient id="paint46_linear" x1="242.668" y1="176.581" x2="239.763" y2="176.581" gradientUnits="userSpaceOnUse">
<stop stop-color="#F9B776"/>
<stop offset="1" stop-color="#F47960"/>
</linearGradient>
<linearGradient id="paint47_linear" x1="240.023" y1="189.316" x2="237.737" y2="127.834" gradientUnits="userSpaceOnUse">
<stop stop-color="#2B3582"/>
<stop offset="1" stop-color="#150E42"/>
</linearGradient>
<linearGradient id="paint48_linear" x1="232.025" y1="98.793" x2="249.419" y2="144.66" gradientUnits="userSpaceOnUse">
<stop stop-color="#FDF53F"/>
<stop offset="1" stop-color="#D93C65"/>
</linearGradient>
<linearGradient id="paint49_linear" x1="243.35" y1="94.4659" x2="260.76" y2="140.376" gradientUnits="userSpaceOnUse">
<stop stop-color="#FDF53F"/>
<stop offset="1" stop-color="#D93C65"/>
</linearGradient>
<linearGradient id="paint50_linear" x1="253.59" y1="113.463" x2="231.834" y2="113.463" gradientUnits="userSpaceOnUse">
<stop stop-color="#F9B776"/>
<stop offset="1" stop-color="#F47960"/>
</linearGradient>
<linearGradient id="paint51_linear" x1="237.213" y1="91.3607" x2="228.611" y2="91.3607" gradientUnits="userSpaceOnUse">
<stop stop-color="#F9B776"/>
<stop offset="1" stop-color="#F47960"/>
</linearGradient>
<linearGradient id="paint52_linear" x1="228.542" y1="91.1246" x2="232.801" y2="80.922" gradientUnits="userSpaceOnUse">
<stop stop-color="#F9B776"/>
<stop offset="1" stop-color="#F47960"/>
</linearGradient>
<linearGradient id="paint53_linear" x1="233.305" y1="73.0863" x2="229.089" y2="88.0391" gradientUnits="userSpaceOnUse">
<stop stop-color="#2B3582"/>
<stop offset="1" stop-color="#150E42"/>
</linearGradient>
<linearGradient id="paint54_linear" x1="231.816" y1="91.4094" x2="235.647" y2="82.2301" gradientUnits="userSpaceOnUse">
<stop stop-color="#F9B776"/>
<stop offset="1" stop-color="#F47960"/>
</linearGradient>
<linearGradient id="paint55_linear" x1="226.347" y1="97.4874" x2="219.022" y2="114.714" gradientUnits="userSpaceOnUse">
<stop stop-color="#2B3582"/>
<stop offset="1" stop-color="#150E42"/>
</linearGradient>
<linearGradient id="paint56_linear" x1="233.449" y1="111.187" x2="226.671" y2="111.187" gradientUnits="userSpaceOnUse">
<stop stop-color="#F9B776"/>
<stop offset="1" stop-color="#F47960"/>
</linearGradient>
<linearGradient id="paint57_linear" x1="99.1739" y1="76.0823" x2="88.7817" y2="84.1195" gradientUnits="userSpaceOnUse">
<stop stop-color="#FFC444"/>
<stop offset="0.9964" stop-color="#F36F56"/>
</linearGradient>
<linearGradient id="paint58_linear" x1="82.719" y1="74.2486" x2="66.9922" y2="90.1233" gradientUnits="userSpaceOnUse">
<stop stop-color="#53EAC9"/>
<stop offset="0.9964" stop-color="#45AED8"/>
</linearGradient>
<linearGradient id="paint59_linear" x1="69.2296" y1="155.113" x2="62.5685" y2="189.766" gradientUnits="userSpaceOnUse">
<stop stop-color="#311944"/>
<stop offset="1" stop-color="#893976"/>
</linearGradient>
<linearGradient id="paint60_linear" x1="62.776" y1="179.747" x2="61.7258" y2="168.323" gradientUnits="userSpaceOnUse">
<stop stop-color="#FFC444"/>
<stop offset="0.9964" stop-color="#F36F56"/>
</linearGradient>
<linearGradient id="paint61_linear" x1="57.181" y1="152.797" x2="50.5199" y2="187.45" gradientUnits="userSpaceOnUse">
<stop stop-color="#311944"/>
<stop offset="1" stop-color="#893976"/>
</linearGradient>
<linearGradient id="paint62_linear" x1="49.5357" y1="180.963" x2="48.4854" y2="169.539" gradientUnits="userSpaceOnUse">
<stop stop-color="#FFC444"/>
<stop offset="0.9964" stop-color="#F36F56"/>
</linearGradient>
<linearGradient id="paint63_linear" x1="66.4292" y1="142.445" x2="54.2266" y2="143.425" gradientUnits="userSpaceOnUse">
<stop stop-color="#444B8C"/>
<stop offset="0.9964" stop-color="#26264F"/>
</linearGradient>
<linearGradient id="paint64_linear" x1="66.429" y1="142.445" x2="54.2266" y2="143.425" gradientUnits="userSpaceOnUse">
<stop stop-color="#444B8C"/>
<stop offset="0.9964" stop-color="#26264F"/>
</linearGradient>
<linearGradient id="paint65_linear" x1="59.6796" y1="144.734" x2="41.1553" y2="146.222" gradientUnits="userSpaceOnUse">
<stop stop-color="#444B8C"/>
<stop offset="0.9964" stop-color="#26264F"/>
</linearGradient>
<linearGradient id="paint66_linear" x1="22.6215" y1="149.902" x2="59.0788" y2="87.3075" gradientUnits="userSpaceOnUse">
<stop stop-color="#53EAC9"/>
<stop offset="0.9964" stop-color="#45AED8"/>
</linearGradient>
<linearGradient id="paint67_linear" x1="22.6256" y1="149.905" x2="59.0834" y2="87.3092" gradientUnits="userSpaceOnUse">
<stop offset="0.00359712" stop-color="#E38DDD"/>
<stop offset="1" stop-color="#9571F6"/>
</linearGradient>
<linearGradient id="paint68_linear" x1="2.97976" y1="20.5263" x2="-25.3164" y2="-10.4349" gradientUnits="userSpaceOnUse">
<stop stop-color="#FFC444"/>
<stop offset="0.9964" stop-color="#F36F56"/>
</linearGradient>
<linearGradient id="paint69_linear" x1="45.7211" y1="83.5389" x2="53.9287" y2="56.475" gradientUnits="userSpaceOnUse">
<stop stop-color="#444B8C"/>
<stop offset="0.9964" stop-color="#3E4177"/>
</linearGradient>
<linearGradient id="paint70_linear" x1="-48.7789" y1="-42.6472" x2="-108.021" y2="-107.469" gradientUnits="userSpaceOnUse">
<stop stop-color="#FFC444"/>
<stop offset="1" stop-color="#F36F56"/>
</linearGradient>
<linearGradient id="paint71_linear" x1="57.2638" y1="100.454" x2="55.3177" y2="112.158" gradientUnits="userSpaceOnUse">
<stop stop-color="#FFC444"/>
<stop offset="0.2327" stop-color="#FCB048"/>
<stop offset="0.9964" stop-color="#F36F56"/>
</linearGradient>
<linearGradient id="paint72_linear" x1="39.5128" y1="135.66" x2="43.4646" y2="81.4433" gradientUnits="userSpaceOnUse">
<stop stop-color="#53EAC9"/>
<stop offset="0.9964" stop-color="#45AED8"/>
</linearGradient>
</defs>
</svg>
