<svg width="53" height="54" viewBox="0 0 53 54" fill="none" xmlns="http://www.w3.org/2000/svg">
<g filter="url(#filter0_d)">
<path d="M44.1047 28.3633L46.9101 32.3906L46.1264 32.7118L41.4696 33.6986L42.8553 38.1503L42.0716 38.4601L37.3467 37.9553L37.2332 42.3612L36.4495 42.6709L32.1108 40.709L30.6002 44.61L29.8278 44.9312L26.2955 41.7072L23.6037 44.6788L22.8314 45.0001L20.4576 40.8237L16.9366 42.5677L16.1529 42.8775L15.1762 38.1733L10.5535 38.7699L10.4513 38.7814L10.9397 34.1805L10.9624 33.9969L6.29429 33.1019L6.33972 32.9872L8.23649 28.719L8.15698 28.6846L4.06815 26.4013L7.24835 22.8445L7.14613 22.7298L4 19.345L4.10222 19.2762L8.11155 16.9471L8.03205 16.7749L6.08985 12.5985L6.86219 12.2888L10.7352 11.6118L10.1446 6.85025L10.917 6.52899L14.8695 7.35509L15.7668 2.63942L16.5391 2.31816L20.1055 4.58994L22.3884 0.379118L23.1721 0.0808037L25.9207 3.60321L29.3849 0.310276L30.1686 0.000488281L31.7587 4.47521L36.0179 2.59353L37.0401 7.12562L41.765 6.52899L41.2538 11.302L45.9333 12.197L43.9911 16.5914L48.1481 18.8976L44.9679 22.4659L48.2276 25.9653L44.1047 28.3633Z" fill="url(#paint0_linear)"/>
<path d="M14.9255 33.4221L11.7794 38.0345L10.5414 38.7574L10.4505 38.7689L10.9389 34.1679L12.37 33.3533L7.57697 32.4469L6.33896 32.9747L8.22437 28.7065L8.15622 28.6835L9.49645 28.259L5.47576 25.9413L4.06738 26.4118L7.25895 22.8435L7.15673 22.7287L8.53103 22.3386L8.81498 21.0765L5.33947 18.9309L4.10146 19.2751L8.11079 16.946L8.03128 16.7739L9.15571 16.4297C9.15571 16.4297 11.4614 20.5487 11.3364 20.7094C11.2115 20.87 14.9255 33.4221 14.9255 33.4221Z" fill="white"/>
<path d="M42.2535 33.4112L42.8554 38.1498L38.1192 37.645L37.2333 42.3607L32.8946 40.3987L30.6003 44.6095L27.068 41.3969L23.6038 44.6783L21.2414 40.5134L16.9368 42.5672L15.9486 37.863L11.2351 38.4711L11.7348 33.6981L7.06675 32.7917L8.97488 28.4776L9.00895 28.4087L8.9408 28.3628L4.84061 26.0911L7.94131 22.626L8.02081 22.5342L7.94131 22.4424L4.77246 19.0233L8.73636 16.7171L8.89537 16.6368L8.81587 16.4647L7.20305 13.0226L7.14626 12.8849L6.86231 12.2883L11.2692 11.3474L11.519 11.3015L11.485 11.0376L11.4623 10.877L10.9852 7.09071L10.9171 6.5285L13.6316 6.82681L15.4489 7.02187L15.6533 7.04481L15.6874 6.84976L16.5392 2.31767L20.8779 4.27967L23.1722 0.0803155L26.7045 3.29293L30.1687 0L32.5311 4.16493L36.8358 2.12262L37.8239 6.81534L42.5374 6.21871L42.0377 10.9917L46.7058 11.8867L44.7863 16.2237L44.7636 16.2811L44.809 16.304L48.9319 18.5873L45.8198 22.0638L45.7403 22.1556L45.8312 22.2474L49 25.6551L44.9907 27.9842L44.8771 28.053L44.9339 28.1678L46.9102 32.3901L42.2762 33.3883H42.2535V33.4112Z" fill="url(#paint1_radial)"/>
<path d="M44.1373 22.4648C44.1373 25.5053 43.5012 28.3278 42.3427 30.7947C42.2519 31.0012 42.1496 31.1962 42.0474 31.3913C41.9338 31.6208 41.8089 31.8502 41.684 32.0682C41.6726 32.0912 41.6613 32.1026 41.6499 32.1256C41.5477 32.3206 41.4341 32.5042 41.3092 32.6878C41.1956 32.8599 41.082 33.0435 40.9571 33.2156C40.7072 33.5827 40.4346 33.9499 40.1507 34.2941C40.0484 34.4318 39.9349 34.558 39.8213 34.6842C39.0149 35.6251 38.1176 36.4741 37.1181 37.2199C36.9932 37.3232 36.8682 37.4035 36.7319 37.5067C33.9265 39.4687 30.4624 40.6046 26.6007 40.6046C24.7721 40.6046 23.0003 40.3522 21.3193 39.8703C21.2852 39.8588 21.2511 39.8474 21.2284 39.8359C15.5495 38.1952 10.9382 34.0073 8.96192 28.477C8.95056 28.4426 8.92784 28.4081 8.91649 28.3737C8.2918 26.5838 7.93971 24.6563 7.91699 22.6369C7.91699 22.5795 7.91699 22.5107 7.91699 22.4533V22.4189C7.91699 20.434 8.20094 18.5293 8.7234 16.7394C8.74612 16.6591 8.76883 16.5673 8.79155 16.487C8.98463 15.8445 9.21179 15.2249 9.47302 14.6168C9.51845 14.5136 9.55253 14.4218 9.60932 14.3185C9.64339 14.2497 9.67746 14.1694 9.71154 14.1005C9.84783 13.8022 9.99548 13.5039 10.1431 13.2056C10.4725 12.563 10.8473 11.9549 11.2562 11.3698C11.3244 11.2665 11.3925 11.1633 11.472 11.0485C11.472 11.0485 11.4834 11.037 11.4834 11.0256C11.5061 10.9912 11.5402 10.9567 11.5629 10.9223C11.8582 10.5093 12.1762 10.1077 12.5056 9.71758C12.6532 9.55695 12.7895 9.39632 12.9258 9.24716H12.9372C13.0053 9.17832 13.0735 9.10948 13.1303 9.04063C13.3347 8.82264 13.5619 8.60464 13.789 8.39811C13.948 8.24895 14.1184 8.08832 14.2888 7.95064C14.6522 7.64085 15.027 7.34254 15.4132 7.0557C15.4132 7.0557 15.4246 7.04422 15.4359 7.04422C15.5154 6.98685 15.5949 6.92949 15.6744 6.87212C17.6507 5.47233 19.9109 4.49707 22.4096 4.01518V3.98076C22.4096 3.99223 25.6126 3.48739 28.5429 3.93487C29.5538 4.08402 30.5305 4.35939 31.3369 4.79539C31.6322 4.95602 31.9048 4.93307 32.1206 4.84128C35.1873 6.00012 37.8677 7.97359 39.9121 10.4978C39.9235 10.5093 39.9349 10.5207 39.9462 10.5322C40.0257 10.624 40.0939 10.7158 40.162 10.8076C40.162 10.8076 40.1734 10.819 40.1734 10.8305C41.2524 12.2303 42.1383 13.8022 42.8084 15.4888C43.683 17.6573 44.1373 19.998 44.1373 22.4648Z" fill="url(#paint2_linear)"/>
<path d="M45.8305 22.2464C45.8305 22.1776 45.8305 22.1202 45.8305 22.0628C45.7964 20.0435 45.4443 18.1159 44.8196 16.3145C44.8196 16.2916 44.8083 16.2572 44.7969 16.2342C42.6957 10.2565 37.6528 5.68996 31.4287 4.31312C30.3838 4.1066 29.4297 3.99186 28.5551 3.93449C25.693 3.73944 23.7848 4.19839 23.0693 4.39344V4.42786C20.5478 5.05891 18.2308 6.21775 16.2318 7.77816C15.6867 8.20269 15.1528 8.6731 14.6645 9.16647C14.2215 9.60247 13.8126 10.0614 13.4151 10.5318C12.5178 11.6104 11.7455 12.7921 11.1094 14.0542V14.0657C9.84872 16.567 9.14453 19.4124 9.14453 22.4185C9.14453 30.4386 14.1761 37.2539 21.2407 39.847C21.2747 39.8584 21.2975 39.8699 21.3315 39.8814C23.251 40.5698 25.3295 40.9484 27.4875 40.9484C31.1107 40.9484 34.484 39.8814 37.3234 38.0571H37.3348C38.516 37.2998 39.6064 36.4049 40.5718 35.3952C41.0147 34.9592 41.4123 34.5003 41.7984 34.0069C41.9461 33.8233 42.0937 33.6168 42.2414 33.4217C42.2528 33.4217 42.2528 33.4103 42.2641 33.3988C42.5253 33.0431 42.7752 32.676 43.0137 32.2973C43.8088 31.0237 44.4562 29.6469 44.9219 28.1898C44.9446 28.1324 44.9673 28.0635 44.9786 28.0062C45.5238 26.2507 45.8191 24.369 45.8191 22.43C45.8305 22.3612 45.8305 22.3038 45.8305 22.2464Z" fill="url(#paint3_linear)"/>
<path d="M27.4982 39.6987C18.0598 39.6987 10.3818 31.9426 10.3818 22.408C10.3818 12.8734 18.0598 5.11719 27.4982 5.11719C36.9366 5.11719 44.6145 12.8734 44.6145 22.408C44.6031 31.9426 36.9252 39.6987 27.4982 39.6987Z" fill="url(#paint4_radial)"/>
<mask id="mask0" mask-type="alpha" maskUnits="userSpaceOnUse" x="10" y="5" width="35" height="35">
<path d="M27.4982 39.6987C18.0598 39.6987 10.3818 31.9426 10.3818 22.408C10.3818 12.8734 18.0598 5.11719 27.4982 5.11719C36.9366 5.11719 44.6145 12.8734 44.6145 22.408C44.6031 31.9426 36.9252 39.6987 27.4982 39.6987Z" fill="url(#paint5_linear)"/>
</mask>
<g mask="url(#mask0)">
<path opacity="0.3" d="M27.4982 39.6987C18.0598 39.6987 10.3818 31.9426 10.3818 22.408C10.3818 12.8734 18.0598 5.11719 27.4982 5.11719C36.9366 5.11719 44.6145 12.8734 44.6145 22.408C44.6031 31.9426 36.9252 39.6987 27.4982 39.6987Z" fill="url(#paint6_linear)"/>
</g>
<mask id="mask1" mask-type="alpha" maskUnits="userSpaceOnUse" x="10" y="5" width="35" height="35">
<path d="M44.6028 22.4072C44.6028 31.9418 36.9248 39.698 27.4864 39.698C20.4559 39.698 14.4135 35.3954 11.7785 29.2685C10.8699 27.1688 10.3701 24.8511 10.3701 22.4187C10.3701 12.8841 18.048 5.12793 27.4864 5.12793C30.2464 5.12793 32.8587 5.7934 35.1757 6.97519C40.7638 9.80917 44.6028 15.6722 44.6028 22.4072Z" fill="black"/>
</mask>
<g mask="url(#mask1)">
<path d="M23.6373 32.1943V29.7275H24.7731V14.6856H23.4102V12.0122H30.4293V29.7275H31.5651V32.1943H23.6373Z" fill="#FF9D09"/>
<g opacity="0.3">
<path opacity="0.3" d="M30.4293 29.7275V12.0122H23.4102V12.953H29.6116V30.6798H30.7473V32.2058H31.5651V29.739H30.4293V29.7275Z" fill="#767676"/>
</g>
<path opacity="0.2" d="M29.623 12.9526L30.4295 12.0576V29.6467L29.623 30.6793V12.9526Z" fill="#767676"/>
<path opacity="0.2" d="M31.5766 29.7275V32.1944H30.7588V30.7831L31.5766 29.7275Z" fill="#767676"/>
<path opacity="0.6" d="M44.6024 22.4072C44.6024 31.6894 37.3106 39.2964 28.2016 39.6865C36.9472 38.9293 43.4553 31.4944 43.4553 22.4646C43.4553 12.93 36.1521 5.17384 26.7137 5.17384C26.4525 5.17384 26.1913 5.17384 25.9414 5.19678C26.4525 5.15089 26.9636 5.12794 27.4861 5.12794C36.9245 5.11647 44.6024 12.8726 44.6024 22.4072Z" fill="#FF9D09"/>
<path d="M41.4234 29.8999C41.4234 29.8999 40.935 31.1161 40.2762 31.4489C39.9582 31.6095 39.6402 31.6669 39.379 31.6439C39.095 31.6095 38.8678 31.4718 38.777 31.2309C38.6066 30.7719 39.0155 30.1294 39.6743 29.8081C39.8219 29.7393 40.0036 29.6934 40.174 29.6819C40.776 29.6475 41.4234 29.8999 41.4234 29.8999Z" fill="#E78B00"/>
<path d="M37.8799 30.9321C37.755 31.0354 37.6073 31.0584 37.4483 31.0239C37.1417 30.9551 36.7782 30.6568 36.5056 30.2093C36.1535 29.6241 36.1876 28.5686 36.2103 28.2703C36.2103 28.2129 36.2103 28.1899 36.2103 28.1899C36.2103 28.1899 37.3234 28.4883 37.7436 29.1767C38.1639 29.8421 38.2207 30.6453 37.8799 30.9321Z" fill="#E78B00"/>
<path d="M39.6292 33.1122C39.6292 33.1122 38.9705 34.2137 38.2663 34.4087C38.0505 34.4661 37.846 34.489 37.6643 34.4661C37.2327 34.4317 36.892 34.2137 36.8238 33.8809C36.7216 33.3991 37.2213 32.8483 37.9255 32.6647C37.9823 32.6533 38.0278 32.6418 38.0845 32.6418C38.766 32.5615 39.6292 33.1122 39.6292 33.1122Z" fill="#E78B00"/>
<path d="M35.6868 33.5373C35.6072 33.5603 35.5277 33.5603 35.4482 33.5258C35.1075 33.4226 34.7781 32.9063 34.6532 32.2408C34.5282 31.6097 34.8235 30.7607 34.9598 30.405C35.0053 30.3018 35.028 30.2329 35.028 30.2329C35.028 30.2329 35.9593 31.0016 36.1297 31.8392C36.3001 32.6653 36.107 33.4226 35.6868 33.5373Z" fill="#E78B00"/>
<path d="M42.7519 25.7349C42.7519 25.7349 42.4566 27.0314 41.8546 27.5019C41.4798 27.7887 41.0709 27.9149 40.7756 27.869C40.5939 27.8461 40.4349 27.7543 40.344 27.5936C40.1169 27.1806 40.4122 26.4692 41.0141 25.9988C41.2981 25.7693 41.707 25.712 42.0477 25.689C42.4452 25.6775 42.7519 25.7349 42.7519 25.7349Z" fill="#E78B00"/>
<path d="M39.6409 27.559C39.5159 27.7655 39.2774 27.8458 38.9935 27.8114C38.7209 27.777 38.4256 27.6393 38.1416 27.3984C37.5624 26.905 37.3125 25.5855 37.3125 25.5855C37.3125 25.5855 37.4034 25.5741 37.5283 25.5741C37.5397 25.5741 37.551 25.5741 37.5737 25.5741C37.9485 25.5626 38.6187 25.597 39.0275 25.9412C39.6068 26.4346 39.8907 27.1574 39.6409 27.559Z" fill="#E78B00"/>
<path d="M41.2758 18.8741C41.0146 19.6199 40.5149 20.0788 40.1287 19.9641C40.106 19.9526 40.0833 19.9526 40.0719 19.9411C39.6857 19.7461 39.5949 18.9544 39.8788 18.1742C40.0833 17.6235 40.6512 17.176 40.9692 16.958C41.1055 16.8662 41.1963 16.8203 41.1963 16.8203C41.1963 16.8203 41.5598 18.0939 41.2758 18.8741Z" fill="#E78B00"/>
<path d="M39.5266 20.2965C39.4131 20.5948 39.0837 20.7439 38.6748 20.7095C38.4703 20.698 38.2545 20.6292 38.0387 20.5259C37.38 20.1932 36.8916 18.977 36.8916 18.977C36.8916 18.977 37.3686 18.7819 37.8911 18.759C38.141 18.7475 38.4136 18.7705 38.6407 18.8852C39.2881 19.195 39.6856 19.8375 39.5266 20.2965Z" fill="#E78B00"/>
<path d="M42.1169 23.2564C41.7421 23.7842 41.2537 24.071 40.9129 23.9907C40.8334 23.9793 40.7653 23.9334 40.6971 23.876C40.3678 23.5662 40.4813 22.7745 40.9356 22.1205C41.2537 21.6616 41.9011 21.4206 42.2645 21.3174C42.4235 21.2715 42.5257 21.2485 42.5257 21.2485C42.5257 21.2485 42.5712 22.591 42.1169 23.2564Z" fill="#E78B00"/>
<path d="M39.7539 23.8531C39.6289 24.117 39.345 24.2203 38.9929 24.1859C38.7544 24.1629 38.4932 24.0597 38.2433 23.899C37.6072 23.4975 37.2324 22.2239 37.2324 22.2239C37.2324 22.2239 37.5277 22.1436 37.9025 22.1206H37.9253C38.266 22.1091 38.6749 22.1436 38.9702 22.3386C39.6176 22.7402 39.9583 23.4171 39.7539 23.8531Z" fill="#E78B00"/>
<path d="M39.7424 14.8346C39.6061 15.5574 39.1972 16.0737 38.8451 15.9705C38.8338 15.9705 38.8224 15.9705 38.811 15.959C38.4817 15.8328 38.3113 15.1903 38.4476 14.4904C38.5498 13.9855 38.9701 13.5036 39.2086 13.2512C39.3221 13.1479 39.3903 13.0791 39.3903 13.0791C39.3903 13.0791 39.8787 14.1117 39.7424 14.8346Z" fill="#E78B00"/>
<path d="M38.5949 16.9345C38.5268 17.2902 38.1065 17.4967 37.6068 17.4508C37.5159 17.4393 37.425 17.4279 37.3342 17.4049C36.7209 17.2443 36.1416 16.2805 36.1416 16.2805C36.1416 16.2805 36.7095 15.9019 37.2547 15.856C37.3796 15.8445 37.5159 15.8445 37.6295 15.8789C38.2428 16.0396 38.6744 16.5215 38.5949 16.9345Z" fill="#E78B00"/>
<path d="M37.7771 12.0236C37.743 12.6661 37.4591 13.1709 37.1297 13.148C37.0956 13.148 37.0502 13.1365 37.0161 13.1136C36.7549 12.9873 36.5845 12.5055 36.6186 11.9318C36.6413 11.4958 36.9366 11.0254 37.1297 10.7615C37.2205 10.6467 37.2773 10.5664 37.2773 10.5664C37.2773 10.5664 37.8112 11.3696 37.7771 12.0236Z" fill="#E78B00"/>
<path d="M37.1635 14.1581C37.1408 14.5368 36.6865 14.8007 36.1413 14.7662C36.1299 14.7662 36.1299 14.7662 36.1186 14.7662C35.5847 14.7089 34.9941 13.9975 34.9941 13.9975C34.9941 13.9975 35.5393 13.4927 36.0391 13.4124C36.0959 13.4009 36.164 13.4009 36.2208 13.4009C36.7546 13.4468 37.1862 13.7795 37.1635 14.1581Z" fill="#E78B00"/>
<path d="M36.085 12.2072C35.9828 12.4022 35.767 12.4711 35.4944 12.4367C35.3127 12.4137 35.1196 12.3334 34.9378 12.1957C34.4722 11.863 34.2109 10.8877 34.2109 10.8877C34.2109 10.8877 34.3813 10.8533 34.6198 10.8418C34.9038 10.8189 35.2786 10.8418 35.5285 11.0254C36.0055 11.3581 36.2554 11.8859 36.085 12.2072Z" fill="#E78B00"/>
<path d="M41.1621 29.9001C41.1621 29.9001 40.6737 31.1163 40.015 31.4491C39.7992 31.5523 39.5834 31.6212 39.379 31.6441C39.095 31.6097 38.8678 31.472 38.777 31.2311C38.6066 30.7721 39.0155 30.1296 39.6743 29.8083C39.8219 29.7395 40.0036 29.6936 40.174 29.6821C40.6851 29.7165 41.1621 29.9001 41.1621 29.9001Z" fill="#FF9D09"/>
<path d="M37.6187 30.9324C37.5733 30.9783 37.5051 31.0127 37.4483 31.0242C37.1417 30.9553 36.7782 30.657 36.5056 30.2096C36.1535 29.6244 36.1876 28.5688 36.2103 28.2705C36.5624 28.3967 37.1985 28.695 37.4824 29.1769C37.9026 29.8424 37.9594 30.6456 37.6187 30.9324Z" fill="#FF9D09"/>
<path d="M39.3674 33.1125C39.3674 33.1125 38.7086 34.214 38.0158 34.409C37.9022 34.4434 37.7773 34.4664 37.675 34.4664C37.2434 34.432 36.9027 34.214 36.8346 33.8812C36.7323 33.3993 37.2321 32.8486 37.9363 32.665C37.9931 32.6536 38.0385 32.6421 38.0953 32.6421C38.7086 32.688 39.3674 33.1125 39.3674 33.1125Z" fill="#FF9D09"/>
<path d="M35.46 33.5261C35.1192 33.4228 34.7898 32.9065 34.6649 32.2411C34.54 31.61 34.8353 30.761 34.9716 30.4053C35.2555 30.6692 35.7666 31.2428 35.8802 31.828C36.0392 32.6426 35.8461 33.3884 35.46 33.5261Z" fill="#FF9D09"/>
<path d="M42.5024 25.7344C42.5024 25.7344 42.2071 27.0309 41.6051 27.5013C41.3325 27.7193 41.0372 27.834 40.7874 27.8685C40.6056 27.8455 40.4466 27.7537 40.3558 27.5931C40.1286 27.18 40.4239 26.4687 41.0259 25.9983C41.3098 25.7688 41.7187 25.7114 42.0594 25.6885C42.3207 25.7 42.5024 25.7344 42.5024 25.7344Z" fill="#FF9D09"/>
<path d="M39.3796 27.5596C39.3001 27.6973 39.1638 27.7776 38.9935 27.8121C38.7209 27.7776 38.4256 27.64 38.1416 27.399C37.5624 26.9056 37.3125 25.5862 37.3125 25.5862C37.3125 25.5862 37.4034 25.5747 37.5283 25.5747C37.5397 25.5747 37.551 25.5747 37.5737 25.5747C37.9485 25.5862 38.4369 25.6665 38.7663 25.9419C39.3456 26.4352 39.6182 27.1581 39.3796 27.5596Z" fill="#FF9D09"/>
<path d="M41.0263 18.8736C40.8219 19.4473 40.4698 19.8603 40.1404 19.9636C40.1177 19.9521 40.095 19.9521 40.0836 19.9407C39.6975 19.7456 39.6066 18.9539 39.8905 18.1737C40.095 17.623 40.6629 17.1755 40.9809 16.9575C41.0604 17.3132 41.2421 18.254 41.0263 18.8736Z" fill="#FF9D09"/>
<path d="M39.2654 20.2967C39.1745 20.5377 38.9587 20.6754 38.6748 20.7098C38.4703 20.6983 38.2545 20.6295 38.0388 20.5262C37.38 20.1935 36.8916 18.9773 36.8916 18.9773C36.8916 18.9773 37.3686 18.7822 37.8911 18.7593C38.0615 18.7708 38.2318 18.8052 38.3795 18.8855C39.0269 19.1953 39.4358 19.8378 39.2654 20.2967Z" fill="#FF9D09"/>
<path d="M41.8556 23.2569C41.5717 23.67 41.2196 23.9339 40.9129 23.9912C40.8334 23.9798 40.7653 23.9339 40.6971 23.8765C40.3678 23.5667 40.4813 22.775 40.9356 22.121C41.2537 21.6621 41.9011 21.4211 42.2645 21.3179C42.2645 21.5932 42.2532 22.6832 41.8556 23.2569Z" fill="#FF9D09"/>
<path d="M39.4926 23.8536C39.4018 24.0372 39.2201 24.1519 38.9929 24.1863C38.7544 24.1634 38.4932 24.0601 38.2433 23.8995C37.6072 23.4979 37.2324 22.2244 37.2324 22.2244C37.2324 22.2244 37.5277 22.144 37.9025 22.1211H37.9253C38.1978 22.1326 38.4818 22.1899 38.7089 22.3391C39.345 22.7407 39.6971 23.4176 39.4926 23.8536Z" fill="#FF9D09"/>
<path d="M39.4808 14.8348C39.3672 15.4085 39.0946 15.856 38.7993 15.9592C38.4699 15.833 38.2996 15.1905 38.4359 14.4906C38.5381 13.9858 38.9583 13.5039 39.1968 13.2515C39.3331 13.5842 39.583 14.2956 39.4808 14.8348Z" fill="#FF9D09"/>
<path d="M38.3223 16.9345C38.2655 17.2213 37.9816 17.4164 37.6068 17.4508C37.5159 17.4393 37.425 17.4278 37.3342 17.4049C36.7209 17.2443 36.1416 16.2805 36.1416 16.2805C36.1416 16.2805 36.7095 15.9019 37.2547 15.856C37.2887 15.856 37.3342 15.8674 37.3683 15.8789C37.9816 16.0395 38.4132 16.5214 38.3223 16.9345Z" fill="#FF9D09"/>
<path d="M37.5162 12.0238C37.4935 12.5631 37.2777 12.9991 37.0278 13.1138C36.7666 12.9876 36.5962 12.5057 36.6303 11.932C36.653 11.496 36.9483 11.0256 37.1414 10.7617C37.2777 11.0371 37.5389 11.5649 37.5162 12.0238Z" fill="#FF9D09"/>
<path d="M36.9029 14.1584C36.8915 14.4796 36.5508 14.7206 36.1078 14.7665C35.574 14.7091 34.9834 13.9978 34.9834 13.9978C34.9834 13.9978 35.5286 13.4929 36.0283 13.4126C36.5394 13.4814 36.9256 13.8027 36.9029 14.1584Z" fill="#FF9D09"/>
<path d="M35.8238 12.2067C35.7556 12.3329 35.642 12.4132 35.4944 12.4361C35.3127 12.4132 35.1196 12.3329 34.9378 12.1952C34.4722 11.8625 34.2109 10.8872 34.2109 10.8872C34.2109 10.8872 34.3813 10.8528 34.6198 10.8413C34.847 10.8528 35.0855 10.8987 35.2672 11.0249C35.7443 11.3576 35.9828 11.8854 35.8238 12.2067Z" fill="#FF9D09"/>
<path d="M16.1288 31.0004C15.9584 31.4823 15.2883 31.5856 14.6296 31.2299C14.6069 31.2184 14.5841 31.207 14.5614 31.184C13.9367 30.7824 13.4824 29.6006 13.4824 29.6006C13.4824 29.6006 14.4478 29.1991 15.118 29.4515C15.1634 29.463 15.1975 29.4859 15.2315 29.4974C15.8903 29.8531 16.2992 30.5185 16.1288 31.0004Z" fill="#E78B00"/>
<path d="M18.4014 29.9102C17.9812 30.6331 17.3679 30.9773 17.0271 30.679C17.0158 30.6675 17.0044 30.656 17.0044 30.656C16.6864 30.3347 16.7545 29.5316 17.1634 28.8202C17.4587 28.3039 18.1061 28.0056 18.4582 27.8679C18.6059 27.8105 18.6967 27.7876 18.6967 27.7876C18.6967 27.7876 18.8217 29.1874 18.4014 29.9102Z" fill="#E78B00"/>
<path d="M18.0827 33.7774C17.9919 34.2822 17.3445 34.5346 16.6403 34.3281C16.5381 34.2937 16.4245 34.2478 16.3223 34.179C15.7544 33.8003 15.2773 32.9742 15.2773 32.9742C15.2773 32.9742 16.2768 32.2973 16.981 32.4923C17.0492 32.5153 17.1173 32.5382 17.1855 32.5612C17.7761 32.8136 18.1622 33.3184 18.0827 33.7774Z" fill="#E78B00"/>
<path d="M20.2524 32.0565C20.082 32.9285 19.6277 33.5366 19.2188 33.4104C19.1507 33.3874 19.0825 33.353 19.0257 33.2956C18.7418 33.0202 18.6282 32.3548 18.7645 31.6319C18.8895 30.9894 19.446 30.3698 19.7186 30.0945C19.8094 30.0027 19.8662 29.9453 19.8662 29.9453C19.8662 29.9453 20.4114 31.1845 20.2524 32.0565Z" fill="#E78B00"/>
<path d="M14.5504 27.1795C14.3574 27.5581 13.8122 27.5696 13.2784 27.2483C13.2784 27.2483 13.2784 27.2483 13.267 27.2483C13.1875 27.2024 13.1194 27.1451 13.0399 27.0877C12.4379 26.5943 12.1426 25.229 12.1426 25.229C12.1426 25.229 12.9263 25.0913 13.5282 25.3207C13.6532 25.3666 13.7668 25.424 13.869 25.5158C14.4823 26.0092 14.7776 26.7549 14.5504 27.1795Z" fill="#E78B00"/>
<path d="M17.6056 25.0804C17.6056 25.0804 17.3557 26.4572 16.7651 26.9735C16.254 27.4325 15.6634 27.5472 15.3681 27.2833C15.3226 27.2489 15.2886 27.203 15.2659 27.1571C15.016 26.7326 15.2999 25.9753 15.8792 25.4475C16.2767 25.0918 16.9468 25.046 17.3216 25.0689C17.492 25.0689 17.6056 25.0804 17.6056 25.0804Z" fill="#E78B00"/>
<path d="M14.8221 19.1606C14.6518 19.2524 14.4587 19.2065 14.2656 19.0573C14.0157 18.8738 13.7659 18.5066 13.6068 18.0477C13.3456 17.3019 13.6296 16.1316 13.6863 15.925C13.6977 15.9021 13.6977 15.8906 13.6977 15.8906C13.6977 15.8906 14.7313 16.4873 15.0152 17.3134C15.2992 18.128 15.2083 18.9541 14.8221 19.1606Z" fill="#E78B00"/>
<path d="M18.0257 18.1385C18.0257 18.1385 17.5373 19.412 16.8672 19.7563C16.3561 20.0316 15.845 20.0202 15.561 19.7907C15.4702 19.7218 15.4134 19.63 15.368 19.5153C15.2089 19.0334 15.6065 18.3679 16.2766 18.0237C16.7309 17.7828 17.3897 17.9205 17.7531 18.0352C17.9235 18.0926 18.0257 18.1385 18.0257 18.1385Z" fill="#E78B00"/>
<path d="M14.1994 23.2786C14.0063 23.4736 13.6996 23.4507 13.393 23.2442C13.1772 23.1179 12.9727 22.8999 12.791 22.6246C12.3367 21.9362 12.3821 20.5249 12.3821 20.5249C12.3821 20.5249 12.7229 20.5937 13.109 20.7658C13.427 20.915 13.7678 21.1215 13.9722 21.4313C14.4265 22.1312 14.5288 22.9573 14.1994 23.2786Z" fill="#E78B00"/>
<path d="M17.6735 21.5359C17.6735 21.5359 17.2987 22.8668 16.6626 23.3028C16.1515 23.647 15.6064 23.7044 15.311 23.4635C15.2429 23.4176 15.1975 23.3487 15.152 23.2569C14.9476 22.8095 15.2883 22.0866 15.9244 21.6506C16.356 21.3523 17.0261 21.4097 17.3895 21.4785C17.5599 21.5129 17.6735 21.5359 17.6735 21.5359Z" fill="#E78B00"/>
<path d="M16.0604 15.0066C15.9355 15.041 15.7878 14.9951 15.6629 14.8804C15.4357 14.6853 15.2426 14.2952 15.1518 13.8133C15.0382 13.1823 15.3449 12.3332 15.4584 12.0693C15.4812 12.012 15.4925 11.9775 15.4925 11.9775C15.4925 11.9775 16.3103 12.6889 16.4466 13.4576C16.6056 14.2034 16.4239 14.8918 16.0604 15.0066Z" fill="#E78B00"/>
<path d="M18.7752 15.3271C18.7752 15.3271 18.196 16.3367 17.5827 16.5088C17.1738 16.6236 16.799 16.5662 16.5605 16.3826C16.4355 16.2908 16.356 16.1646 16.3219 16.0155C16.2424 15.5795 16.674 15.0746 17.2874 14.9025C17.6054 14.8107 18.0029 14.9369 18.3096 15.0632C18.5822 15.1894 18.7752 15.3271 18.7752 15.3271Z" fill="#E78B00"/>
<path d="M17.7754 12.0235C17.6732 12.0349 17.5709 11.989 17.4914 11.8972C17.2984 11.7022 17.1621 11.3121 17.1393 10.8531C17.1053 10.3254 17.4119 9.71725 17.5596 9.45336C17.605 9.37304 17.6277 9.32715 17.6277 9.32715C17.6277 9.32715 18.2524 10.0729 18.2865 10.7499C18.3206 11.4268 18.0934 12.0005 17.7754 12.0235Z" fill="#E78B00"/>
<path d="M19.9335 12.9177C19.9335 12.9177 19.3202 13.6864 18.775 13.7208C18.4797 13.7438 18.2071 13.6749 18.014 13.5372C17.855 13.4225 17.7528 13.2734 17.7528 13.0898C17.7301 12.6997 18.1617 12.344 18.7069 12.2981C18.8432 12.2866 18.9908 12.321 19.1385 12.3784C19.5474 12.5505 19.9335 12.9177 19.9335 12.9177Z" fill="#E78B00"/>
<path d="M20.7065 9.66059C20.7065 9.66059 20.4453 10.6817 19.9683 11.0374C19.5594 11.3357 19.1164 11.3816 18.9006 11.1636C18.8665 11.1292 18.8438 11.0948 18.8211 11.0489C18.6507 10.7162 18.9006 10.154 19.3776 9.80975C19.673 9.59175 20.1273 9.59175 20.4226 9.62617C20.5929 9.63764 20.7065 9.66059 20.7065 9.66059Z" fill="#E78B00"/>
<path d="M15.8672 30.8754C15.7196 31.3114 15.1517 31.4377 14.5497 31.1967C13.925 30.7951 13.4707 29.6133 13.4707 29.6133C13.4707 29.6133 14.4361 29.2118 15.1062 29.4642C15.6855 29.8199 16.0262 30.428 15.8672 30.8754Z" fill="#FF9D09"/>
<path d="M18.1398 29.7857C17.7991 30.3709 17.3334 30.7036 16.9927 30.6577C16.6747 30.3365 16.7428 29.5333 17.1517 28.8219C17.447 28.3056 18.0944 28.0073 18.4465 27.8696C18.4692 28.2942 18.4579 29.235 18.1398 29.7857Z" fill="#FF9D09"/>
<path d="M17.8215 33.6404C17.7306 34.1453 17.0832 34.3977 16.3791 34.1912C16.3563 34.1797 16.345 34.1797 16.3223 34.1682C15.7544 33.7896 15.2773 32.9635 15.2773 32.9635C15.2773 32.9635 16.2768 32.2865 16.981 32.4816C17.0492 32.5045 17.1173 32.5275 17.1855 32.5504C17.6284 32.8373 17.901 33.2618 17.8215 33.6404Z" fill="#FF9D09"/>
<path d="M19.9912 31.9315C19.8435 32.7461 19.4119 33.3313 19.0257 33.2968C18.7418 33.0215 18.6282 32.356 18.7645 31.6332C18.8895 30.9906 19.446 30.3711 19.7186 30.0957C19.8662 30.5088 20.1161 31.3119 19.9912 31.9315Z" fill="#FF9D09"/>
<path d="M14.2889 27.0552C14.1185 27.3765 13.7096 27.4338 13.2666 27.2503C13.2666 27.2503 13.2666 27.2503 13.2553 27.2503C13.1758 27.2044 13.1076 27.147 13.0281 27.0896C12.4262 26.5963 12.1309 25.2309 12.1309 25.2309C12.1309 25.2309 12.9146 25.0932 13.5165 25.3227C13.5506 25.3456 13.5733 25.3686 13.6074 25.3801C14.2207 25.8734 14.516 26.6192 14.2889 27.0552Z" fill="#FF9D09"/>
<path d="M17.3207 25.0704C17.2411 25.4146 16.9913 26.4243 16.5142 26.8488C16.1167 27.193 15.6851 27.3421 15.3671 27.2848C15.3217 27.2504 15.2876 27.2045 15.2649 27.1586C15.015 26.734 15.2989 25.9768 15.8782 25.449C16.2757 25.0933 16.9458 25.0474 17.3207 25.0704Z" fill="#FF9D09"/>
<path d="M14.5726 19.0234C14.4818 19.0693 14.3795 19.0808 14.2773 19.0464C14.0274 18.8628 13.7776 18.4956 13.6186 18.0367C13.3573 17.2909 13.6413 16.1206 13.6981 15.9141C14.0274 16.155 14.5726 16.614 14.7657 17.1762C15.0497 17.9908 14.9588 18.8284 14.5726 19.0234Z" fill="#FF9D09"/>
<path d="M17.7525 18.0484C17.6616 18.2664 17.2073 19.322 16.6167 19.6432C16.2419 19.8383 15.8557 19.8957 15.5718 19.8039C15.4809 19.735 15.4241 19.6432 15.3787 19.5285C15.2197 19.0466 15.6172 18.3811 16.2873 18.0369C16.7303 17.796 17.389 17.9337 17.7525 18.0484Z" fill="#FF9D09"/>
<path d="M13.9378 23.1543C13.8015 23.292 13.5971 23.3264 13.3813 23.2461C13.1655 23.1199 12.961 22.9019 12.7793 22.6265C12.325 21.9381 12.3704 20.5269 12.3704 20.5269C12.3704 20.5269 12.7111 20.5957 13.0973 20.7678C13.3358 20.9055 13.5516 21.0776 13.7106 21.3071C14.1649 22.007 14.2672 22.8331 13.9378 23.1543Z" fill="#FF9D09"/>
<path d="M17.3902 21.4795C17.2993 21.7549 16.9472 22.799 16.402 23.1776C16.0159 23.4415 15.607 23.5448 15.3003 23.4644C15.2322 23.4186 15.1867 23.3497 15.1413 23.2579C14.9369 22.8105 15.2776 22.0876 15.9136 21.6516C16.3566 21.3648 17.0267 21.4107 17.3902 21.4795Z" fill="#FF9D09"/>
<path d="M15.8109 14.8699C15.7655 14.8814 15.72 14.8814 15.6746 14.8814C15.4474 14.6863 15.2544 14.2962 15.1635 13.8143C15.0499 13.1833 15.3566 12.3342 15.4702 12.0703C15.72 12.3342 16.1176 12.8276 16.2084 13.3209C16.3447 14.0667 16.163 14.7781 15.8109 14.8699Z" fill="#FF9D09"/>
<path d="M18.5152 15.2028C18.5152 15.2028 17.936 16.2125 17.3113 16.3731C17.0274 16.4534 16.7661 16.4419 16.539 16.3846C16.414 16.2928 16.3345 16.1666 16.3005 16.0174C16.2209 15.5814 16.6525 15.0766 17.2659 14.9045C17.5839 14.8127 17.9814 14.9389 18.2881 15.0651C18.4357 15.1454 18.5152 15.2028 18.5152 15.2028Z" fill="#FF9D09"/>
<path d="M17.5153 11.8985H17.4812C17.2881 11.7034 17.1518 11.3133 17.1291 10.8544C17.1064 10.3266 17.4131 9.71848 17.5607 9.45459C17.7425 9.72996 18.0037 10.1889 18.0264 10.6249C18.0718 11.3018 17.8333 11.8755 17.5153 11.8985Z" fill="#FF9D09"/>
<path d="M19.6729 12.7934C19.6729 12.7934 19.0596 13.5507 18.5144 13.5966C18.3327 13.608 18.1623 13.5851 18.0033 13.5392C17.8443 13.4245 17.7421 13.2753 17.7421 13.0917C17.7194 12.7016 18.151 12.3459 18.6961 12.3C18.8324 12.2886 18.9801 12.323 19.1277 12.3804C19.4344 12.5639 19.6729 12.7934 19.6729 12.7934Z" fill="#FF9D09"/>
<path d="M20.4216 9.62666C20.3534 9.87908 20.1036 10.6249 19.7174 10.9117C19.4335 11.1182 19.1382 11.21 18.911 11.1641C18.8656 11.1297 18.8429 11.0953 18.8201 11.0494C18.6498 10.7167 18.8996 10.1544 19.3767 9.81023C19.672 9.59224 20.1263 9.59224 20.4216 9.62666Z" fill="#FF9D09"/>
<path opacity="0.2" d="M44.6036 22.4076C44.6036 31.9422 36.9256 39.6984 27.4872 39.6984C27.0216 39.6984 26.5559 39.6755 26.1016 39.641C19.673 39.1133 14.2326 34.9942 11.7793 29.2689C37.1755 35.2581 35.699 11.7142 35.2447 7.5378C35.2447 7.5378 35.3696 7.15917 35.3583 7.06738C38.4703 8.66222 40.8668 11.0946 42.5364 14.181C43.854 16.6249 44.6036 19.436 44.6036 22.4076Z" fill="#FF9D09"/>
<path opacity="0.2" d="M44.6035 22.4081C44.6035 31.9427 36.9256 39.6989 27.4872 39.6989C27.0216 39.6989 26.5559 39.6759 26.1016 39.6415C37.7093 35.5798 41.2303 23.085 42.2865 16.0287L43.0702 15.2715C44.0357 17.4629 44.6035 19.4364 44.6035 22.4081Z" fill="#FF9F0B"/>
</g>
<mask id="mask2" mask-type="alpha" maskUnits="userSpaceOnUse" x="6" y="10" width="35" height="29">
<path d="M40.5825 35.3731C39.6057 36.3943 38.5154 37.2778 37.3342 38.0465L37.1297 37.2204L37.0161 36.7614L37.7317 35.637L30.4286 28.925L29.6108 29.9576L24.761 27.3072V26.7105L11.6086 15.9827L11.1088 14.0781L9.90488 14.4796L9.60957 14.319L7.19035 13.034C7.2017 13.011 7.17899 12.9651 7.13356 12.8963L6.84961 12.2997L11.2565 11.3588C11.3246 11.2556 11.3928 11.1523 11.4723 11.0376L11.4609 10.8769L11.5745 10.9113L11.7562 10.9572L13.4145 10.5327L13.5053 12.4259V12.4373L24.761 21.7769L24.7837 22.3965L29.6108 25.5632L30.4286 24.9321L35.6191 30.8296V30.8411L37.6863 32.7342L38.8448 33.8012L38.9811 33.9275L39.1741 34.0996H40.0714L40.1396 34.2946L40.5825 35.3731Z" fill="url(#paint7_linear)"/>
</mask>
<g mask="url(#mask2)">
</g>
<mask id="mask3" mask-type="alpha" maskUnits="userSpaceOnUse" x="10" y="6" width="34" height="28">
<path d="M43.0247 32.2749C42.7862 32.6535 42.5364 33.0207 42.2751 33.3764C42.2751 33.3879 42.2638 33.3993 42.2524 33.4108C42.1048 33.6059 41.9685 33.8009 41.8094 33.9845L41.3097 32.6765L41.287 32.6191H40.3216L30.4289 23.4746L29.6111 23.968L24.7613 20.1473V19.2753L14.8458 10.7618L14.6641 9.15554L13.5056 9.21291L12.9491 9.23586C12.9831 9.20143 11.9042 8.06554 10.9842 7.10176L10.916 6.53955L13.6192 6.82639C13.9372 7.45744 14.2212 7.98523 14.3007 7.92786L14.6641 7.90491L16.2429 7.7787L16.2315 9.32764L24.7726 16.6134V17.8985L29.6224 21.4323L30.4402 21.0996L41.1166 30.5309L41.4346 30.8178L42.3433 30.7833L42.4568 30.7719L43.0247 32.2749Z" fill="url(#paint8_linear)"/>
</mask>
<g mask="url(#mask3)">
</g>
</g>
<defs>
<filter id="filter0_d" x="0" y="0" width="53" height="54.0001" filterUnits="userSpaceOnUse" color-interpolation-filters="sRGB">
<feFlood flood-opacity="0" result="BackgroundImageFix"/>
<feColorMatrix in="SourceAlpha" type="matrix" values="0 0 0 0 0 0 0 0 0 0 0 0 0 0 0 0 0 0 127 0"/>
<feOffset dy="5"/>
<feGaussianBlur stdDeviation="2"/>
<feColorMatrix type="matrix" values="0 0 0 0 0 0 0 0 0 0 0 0 0 0 0 0 0 0 0.25 0"/>
<feBlend mode="normal" in2="BackgroundImageFix" result="effect1_dropShadow"/>
<feBlend mode="normal" in="SourceGraphic" in2="effect1_dropShadow" result="shape"/>
</filter>
<linearGradient id="paint0_linear" x1="3.99523" y1="22.4979" x2="48.2233" y2="22.4979" gradientUnits="userSpaceOnUse">
<stop stop-color="#FFD945"/>
<stop offset="1" stop-color="#FF9D09"/>
</linearGradient>
<radialGradient id="paint1_radial" cx="0" cy="0" r="1" gradientUnits="userSpaceOnUse" gradientTransform="translate(26.8071 21.0782) scale(29.1083 29.405)">
<stop stop-color="#FFDA45"/>
<stop offset="1" stop-color="#FF9D09"/>
</radialGradient>
<linearGradient id="paint2_linear" x1="7.93675" y1="22.1742" x2="44.1367" y2="22.1742" gradientUnits="userSpaceOnUse">
<stop stop-color="#FFD945"/>
<stop offset="1" stop-color="#FF9D09"/>
</linearGradient>
<linearGradient id="paint3_linear" x1="9.15555" y1="22.4113" x2="45.8346" y2="22.4113" gradientUnits="userSpaceOnUse">
<stop stop-color="#FF9D09"/>
<stop offset="0.9951" stop-color="#FFE373"/>
</linearGradient>
<radialGradient id="paint4_radial" cx="0" cy="0" r="1" gradientUnits="userSpaceOnUse" gradientTransform="translate(27.4937 22.4089) scale(17.1144 17.2888)">
<stop stop-color="#FFDF10"/>
<stop offset="1" stop-color="#FFC441"/>
</radialGradient>
<linearGradient id="paint5_linear" x1="14.24" y1="33.2806" x2="40.816" y2="11.9183" gradientUnits="userSpaceOnUse">
<stop/>
<stop offset="0.1621" stop-color="#020202"/>
<stop offset="0.2313" stop-color="#090909"/>
<stop offset="0.2828" stop-color="#161616"/>
<stop offset="0.3255" stop-color="#272727"/>
<stop offset="0.3628" stop-color="#3F3F3F"/>
<stop offset="0.3963" stop-color="#5B5B5B"/>
<stop offset="0.427" stop-color="#7D7D7D"/>
<stop offset="0.4554" stop-color="#A5A5A5"/>
<stop offset="0.4811" stop-color="#D0D0D0"/>
<stop offset="0.5049" stop-color="white"/>
<stop offset="0.5347" stop-color="#DCDCDC"/>
<stop offset="0.5835" stop-color="#A9A9A9"/>
<stop offset="0.6346" stop-color="#7C7C7C"/>
<stop offset="0.687" stop-color="#565656"/>
<stop offset="0.741" stop-color="#363636"/>
<stop offset="0.7972" stop-color="#1E1E1E"/>
<stop offset="0.8565" stop-color="#0D0D0D"/>
<stop offset="0.9209" stop-color="#030303"/>
<stop offset="1"/>
</linearGradient>
<linearGradient id="paint6_linear" x1="14.24" y1="33.2806" x2="40.816" y2="11.9183" gradientUnits="userSpaceOnUse">
<stop stop-color="white"/>
<stop offset="0.431" stop-color="white"/>
<stop offset="0.5049" stop-color="white"/>
<stop offset="0.5474" stop-color="white"/>
<stop offset="1" stop-color="white"/>
</linearGradient>
<linearGradient id="paint7_linear" x1="38.1899" y1="36.6614" x2="10.8281" y2="12.1863" gradientUnits="userSpaceOnUse">
<stop/>
<stop offset="1" stop-color="white"/>
</linearGradient>
<linearGradient id="paint8_linear" x1="37.6743" y1="29.773" x2="18.1288" y2="11.0085" gradientUnits="userSpaceOnUse">
<stop/>
<stop offset="1" stop-color="white"/>
</linearGradient>
</defs>
</svg>
