<svg width="53" height="54" viewBox="0 0 53 54" fill="none" xmlns="http://www.w3.org/2000/svg">
<g filter="url(#filter0_d)">
<path d="M44.6043 29.0859L46.91 32.4018L46.1263 32.7116L42.2646 33.5377L42.151 33.5607L41.515 33.6984H41.4695L41.6286 34.2147L42.7871 37.9322L42.8552 38.1617L42.0715 38.4714L40.9017 38.3452L38.0508 38.0354L37.4489 37.9666L37.3466 37.9551V38.0469L37.3012 39.6303L37.2331 42.361L36.4494 42.6708L32.5991 40.9268L32.1107 40.7088L30.6001 44.6214L29.8278 44.9312L26.5226 41.9136L26.2955 41.707L23.615 44.6787L22.8313 45L20.4802 40.8809L20.4575 40.835L16.9366 42.5676L16.1529 42.8774L15.1761 38.1731L10.5535 38.7698L10.4626 38.7812L10.9396 34.1803L10.9624 34.0082L6.28293 33.1132L6.33972 32.987L8.22512 28.7188L8.15698 28.6843L4.06815 26.4125L7.24835 22.8442L7.14613 22.7295L4 19.3447L4.10223 19.2759L8.11154 16.9467L8.03204 16.7746L6.08985 12.6096L6.86218 12.2884L9.73572 11.7835L10.7466 11.6114L10.7239 11.4737L10.2127 7.33172L10.1446 6.84982L10.9169 6.54003L11.9051 6.73508L14.8695 7.35467L14.949 6.97603L14.9717 6.87277L15.7667 2.63896L16.5391 2.3177L20.1054 4.5895L20.3894 4.0617L22.3884 0.378633L23.1721 0.0803162L25.9207 3.60275L26.4772 3.08644L29.3848 0.309791L30.1685 0L31.7245 4.38297L31.7586 4.48623L31.8949 4.42886L32.5196 4.14202L33.4509 3.72897L36.0178 2.59307L36.9037 6.51708L37.04 7.13667L37.7328 7.04488L41.7648 6.52856L41.356 10.2919L41.2537 11.3016L42.3214 11.5082L45.9332 12.1966L44.4907 15.4437L43.9796 16.591L45.0927 17.1991L48.1593 18.8972L45.8082 21.5247L44.9678 22.4656L45.8082 23.372L48.2275 25.9651L45.0359 27.8238L44.1046 28.3631L44.6043 29.0859Z" fill="url(#paint0_linear)"/>
<path d="M14.9265 33.4343L11.7803 38.0467L10.5537 38.7695L10.4628 38.781L10.9512 34.18L12.3823 33.3654L7.58929 32.459L6.35129 32.9983L8.23669 28.73L8.16854 28.6841L9.49741 28.2596L5.47673 25.9419L4.06836 26.4123L7.25991 22.844L7.1577 22.7293L8.53199 22.3392L8.81594 21.077L5.35179 18.9315L4.11379 19.2757L8.12311 16.9465L8.04361 16.7744L9.16803 16.4302C9.16803 16.4302 11.4737 20.5492 11.3487 20.7099C11.2124 20.8705 14.9265 33.4343 14.9265 33.4343Z" fill="#F3F3F3"/>
<path d="M42.2534 33.4115L42.2647 33.5377L42.401 34.5933L42.8326 37.9781L42.8553 38.1617L40.4588 37.8978L38.1191 37.6453L38.051 38.0354L37.6762 40.0089L37.2332 42.361L32.8945 40.399L32.5992 40.9268L30.6002 44.6214L27.0793 41.3972L26.5227 41.9136L23.6151 44.6787L21.2413 40.5252L20.4804 40.8809L16.9367 42.5676L15.9599 37.8633L11.2351 38.4714L11.2464 38.3567L11.7348 33.7328V33.6984L7.06675 32.7919L7.1349 32.6428L8.97487 28.4778L9.00894 28.409L8.9408 28.3746L4.8974 26.1372L4.84061 26.1028L7.9413 22.6262L8.02081 22.5344L7.98673 22.5L7.92995 22.4426L4.81789 19.0808L4.77246 19.0349L8.73636 16.7287L8.89537 16.6369L8.83857 16.5222L8.81586 16.4648L7.2144 13.0227L7.14626 12.885L6.86231 12.2884L9.64498 11.7032L10.724 11.4737L11.2692 11.3475L11.519 11.2902L11.485 11.0377L11.4622 10.8771L11.1329 8.27256L10.9852 7.10224L10.9171 6.54003L11.7916 6.63182L13.6316 6.82687L14.9491 6.97603L15.074 6.98751L15.4488 7.02193L15.6533 7.04488L15.6874 6.84982L16.5392 2.3177L20.3895 4.0617L20.8779 4.29118L23.1722 0.0803162L26.4773 3.08644L26.7045 3.29296L30.1686 0L32.5197 4.14202L32.531 4.16497L33.451 3.72896L36.8357 2.12264L37.8124 6.82687L42.5373 6.21877L42.0376 11.0033L46.6943 11.8868L44.7862 16.2239L44.7635 16.2812L44.8089 16.3042L48.9318 18.5875L45.8311 22.064L45.7402 22.1558L45.8311 22.2476L48.9999 25.6553L44.9906 27.9959L44.877 28.0533L44.9338 28.168L46.9101 32.4018L42.2761 33.3886H42.2534V33.4115Z" fill="url(#paint1_radial)"/>
<path d="M44.1383 22.4659C44.1383 25.5065 43.5022 28.329 42.3437 30.7959C42.2529 31.0024 42.1506 31.1974 42.0484 31.3925C41.9348 31.622 41.8099 31.8514 41.685 32.0695C41.6736 32.0924 41.6622 32.1039 41.6509 32.1268C41.5487 32.3219 41.4351 32.5055 41.3102 32.689C41.1966 32.8611 41.083 33.0447 40.9694 33.2168C40.7195 33.584 40.447 33.9511 40.163 34.2954C40.0608 34.433 39.9472 34.5593 39.8336 34.6855C39.0272 35.6263 38.13 36.4754 37.1305 37.2097C37.0055 37.313 36.8806 37.3933 36.7443 37.4965C33.9389 39.4585 30.4748 40.5944 26.6245 40.5944C24.7958 40.5944 23.024 40.342 21.3431 39.8601C21.3203 39.8486 21.2749 39.8372 21.2522 39.8257C15.5846 38.185 10.962 33.997 8.98572 28.4667C8.97436 28.4323 8.95164 28.3979 8.95164 28.3634C8.32695 26.5735 7.97486 24.6459 7.95215 22.6266C7.95215 22.5692 7.95215 22.5004 7.95215 22.443V22.4086C7.95215 20.4236 8.23609 18.519 8.75855 16.7291C8.78127 16.6487 8.80399 16.557 8.83806 16.4766C9.03114 15.8341 9.2583 15.2145 9.51953 14.6064C9.56496 14.5032 9.59904 14.4114 9.65583 14.3081C9.6899 14.2278 9.71262 14.1589 9.75805 14.0901C9.89435 13.7918 10.042 13.4935 10.1896 13.1952C10.519 12.5526 10.8938 11.9445 11.3027 11.3594C11.3709 11.2446 11.439 11.1528 11.5185 11.0381C11.5185 11.0381 11.5299 11.0266 11.5299 11.0151C11.5526 10.9807 11.5867 10.9463 11.6094 10.9119C11.9047 10.4988 12.2227 10.0972 12.5521 9.70713C12.6997 9.5465 12.836 9.38587 12.9723 9.23671C13.0405 9.16787 13.1086 9.09903 13.1654 9.03018C13.3698 8.81218 13.597 8.59418 13.8242 8.38765C13.9832 8.2385 14.1535 8.07786 14.3239 7.94018C14.6874 7.61891 15.0622 7.33207 15.4483 7.04523C15.4483 7.03375 15.4597 7.03375 15.471 7.03375C15.5506 6.97639 15.6301 6.91902 15.7096 6.86165C17.6858 5.47333 19.946 4.48658 22.4448 4.01616V3.98174C22.4448 3.99321 25.6477 3.48837 28.578 3.93584C29.5889 4.085 30.5656 4.36037 31.372 4.79637C31.6673 4.95701 31.9399 4.93406 32.1557 4.84227C35.2223 6.00112 37.9142 7.9746 39.9586 10.4988C39.9699 10.5103 39.9813 10.5218 39.9926 10.5332C40.0721 10.625 40.1403 10.7168 40.2084 10.8086C40.2084 10.8086 40.2198 10.8201 40.2198 10.8316C41.2988 12.2314 42.1961 13.8033 42.8548 15.4899C43.6726 17.6584 44.1383 20.0106 44.1383 22.4659Z" fill="url(#paint2_linear)"/>
<path d="M45.8308 22.0644C45.8308 21.8808 45.8309 21.7087 45.8081 21.5251C45.7513 20.0336 45.5015 18.5879 45.0926 17.211C45.0017 16.9012 44.9109 16.6144 44.8086 16.3161C44.7973 16.2931 44.7973 16.2587 44.7859 16.2358C44.6951 15.9719 44.5928 15.7194 44.4906 15.4555C43.9227 14.0443 43.1845 12.7248 42.3213 11.52C42.026 11.107 41.6966 10.7054 41.3672 10.3038C40.3109 9.06466 39.0843 7.97466 37.7441 7.05676C37.4715 6.87318 37.1875 6.6896 36.9149 6.51749C35.3703 5.57665 33.6893 4.87675 31.9061 4.42927C31.8493 4.40633 31.7925 4.39485 31.7358 4.38338C31.6335 4.36043 31.5427 4.33748 31.4405 4.31454C30.4069 4.11948 29.4415 3.99327 28.5783 3.9359C25.7161 3.74085 23.808 4.1998 23.0924 4.40633V4.44075C20.571 5.0718 18.254 6.23065 16.2664 7.79108C16.1982 7.84845 16.1301 7.90582 16.0619 7.96318C15.5849 8.34182 15.1306 8.7434 14.699 9.16793C14.6422 9.2253 14.574 9.29414 14.5173 9.35151C14.1311 9.73014 13.7904 10.1317 13.4496 10.5333C13.4496 10.5448 13.4383 10.5562 13.4269 10.5562C12.6773 11.4627 12.0185 12.4379 11.4506 13.4935C11.3484 13.6771 11.2462 13.8722 11.1553 14.0672H11.144C10.5874 15.1802 10.1445 16.3505 9.81511 17.5782C9.78103 17.7388 9.7356 17.8994 9.70153 18.0601C9.36079 19.4599 9.19043 20.917 9.19043 22.4201C9.19043 27.2276 10.9963 31.5991 13.9721 34.8806C15.9483 37.0835 18.4584 38.8046 21.2865 39.8372C21.3092 39.8487 21.3206 39.8487 21.332 39.8602C21.3547 39.8717 21.366 39.8717 21.3774 39.8831C23.2969 40.5715 25.3754 40.9502 27.5333 40.9502C30.7363 40.9502 33.7461 40.1241 36.3698 38.6554C36.7105 38.4719 37.0399 38.2653 37.3806 38.0588C37.3806 38.0588 37.3806 38.0588 37.3806 38.0473H37.392C37.426 38.0244 37.4601 38.0014 37.4942 37.9785C38.1189 37.5769 38.7095 37.1294 39.2774 36.659C39.6863 36.3148 40.0838 35.9476 40.4699 35.5575C40.5267 35.5116 40.5722 35.4543 40.629 35.3969L40.6403 35.3854C41.0151 35.0183 41.3559 34.6282 41.6852 34.2266C41.742 34.1577 41.7988 34.0774 41.867 34.0086C41.9805 33.8709 42.0941 33.7217 42.2077 33.5726C42.2418 33.5267 42.2758 33.4808 42.3099 33.4349V33.4234C42.3213 33.4234 42.3213 33.4119 42.3326 33.4005C42.5939 33.0448 42.8551 32.6776 43.0822 32.299C43.7183 31.2893 44.2521 30.2222 44.6724 29.0978C44.7859 28.788 44.8995 28.5012 44.9904 28.1914C45.0131 28.134 45.0244 28.0652 45.0472 28.0078C45.0699 27.9504 45.0812 27.8931 45.0926 27.8357C45.5242 26.413 45.7854 24.9214 45.8649 23.3839C45.8876 23.0626 45.8876 22.7528 45.8876 22.4316V22.2595C45.8308 22.1906 45.8308 22.1218 45.8308 22.0644Z" fill="url(#paint3_linear)"/>
<path d="M27.4874 39.6995C18.049 39.6995 10.3711 31.9433 10.3711 22.4086C10.3711 12.8739 18.049 5.11768 27.4874 5.11768C36.9257 5.11768 44.6037 12.8739 44.6037 22.4086C44.6037 31.9433 36.9257 39.6995 27.4874 39.6995Z" fill="url(#paint4_radial)"/>
<path d="M34.0982 25.4486C34.0982 26.4927 34.0187 27.6401 33.9165 28.6269C33.837 28.6269 33.4622 29.3153 33.3259 29.3841C33.3259 29.3841 33.3145 29.3956 33.3031 29.3956C32.0651 29.3956 26.6361 29.3727 24.6825 29.3727H21.3206C21.0594 28.6498 20.7982 27.8008 20.6051 27.0435C20.5824 26.9632 21.2411 26.3665 21.2184 26.2862C23.0129 24.9438 24.0238 24.1521 25.1596 23.0736C25.9773 22.3278 26.7497 21.5935 27.3971 20.8477C28.158 19.8036 28.6464 18.725 28.6464 17.5318C28.6464 16.6253 28.4306 16.0287 28.0331 15.478C27.6924 15.019 27.079 14.7322 26.4203 14.7322C25.8751 14.7322 25.4094 14.8354 25.0573 14.9731L24.5122 17.3597C24.4327 17.3597 23.9783 18.1284 23.8988 18.1284C23.8875 18.1284 23.8761 18.1284 23.8648 18.1284C22.9448 18.1284 22.0021 17.8874 21.173 17.8416C21.2525 16.2352 21.3547 14.6289 21.4569 13.057C21.4683 12.9537 22.0589 12.403 22.0702 12.2883C23.3196 11.749 25.4549 11.3818 27.2267 11.3818C29.6573 11.3818 31.1224 11.8637 32.2014 12.8275C33.2577 13.734 33.8483 15.1223 33.8483 16.5106C33.8483 18.312 32.9397 19.8954 31.7925 21.2034C30.6568 22.7523 29.1007 23.9915 28.0217 24.8405C27.6356 25.1618 27.3062 25.4142 26.9768 25.6437C28.9077 25.6093 32.4513 25.4372 34.0073 25.4142L34.03 25.4257L34.0982 25.4486Z" fill="#8B8B8B"/>
<path d="M34.042 25.403L34.0193 25.3915C32.4746 25.4145 28.9196 25.5866 26.9888 25.621C26.8752 25.621 26.7616 25.621 26.6594 25.6325V25.5292C27.3409 25.0473 27.8974 24.6801 28.647 24.0606C29.5443 23.3607 30.771 22.3854 31.8045 21.1921C32.9403 19.8841 33.8603 18.3007 33.8603 16.4994C33.8603 15.111 33.281 13.7227 32.2134 12.8163C31.1231 11.8525 29.6693 11.3706 27.2387 11.3706C25.4668 11.3706 23.3202 11.7492 22.0822 12.277C22.0709 12.3803 21.4802 12.9425 21.4689 13.0458C21.3667 14.5259 21.8664 15.57 21.7869 17.0616C22.3094 17.096 22.7069 17.555 23.1726 17.8647C23.3884 18.0024 23.6042 18.1057 23.8654 18.1172C23.8767 18.1172 23.8881 18.1172 23.8995 18.1172C23.979 18.1172 24.4333 17.3484 24.5128 17.3484L25.058 14.9619L25.1261 14.675C25.1375 14.6291 25.1375 14.5947 25.1488 14.5718C25.1715 14.5144 25.1943 14.4685 25.251 14.4111C25.6259 14.1702 26.2278 13.9522 27.0229 13.9522C27.6816 13.9522 28.2949 14.2505 28.6357 14.698C29.0332 15.2602 29.249 15.8454 29.249 16.7518C29.249 18.2319 28.488 19.5514 27.3863 20.8364C26.7389 21.5937 25.9666 22.328 25.1488 23.0623C24.013 24.1294 23.0022 24.9326 21.2076 26.275C21.2304 26.3553 20.5716 26.9519 20.5943 27.0323C20.776 27.7207 21.6847 27.9502 21.9232 28.5927H25.2851C27.1137 28.5927 31.6455 29.3844 33.3038 29.3844C33.3151 29.3844 33.3151 29.3844 33.3265 29.3729C33.4628 29.3041 33.8376 28.6156 33.9171 28.6156C34.0193 27.6289 34.0988 26.4815 34.0988 25.4374L34.042 25.403Z" fill="#424242"/>
<path opacity="0.2" d="M25.1599 14.5601C25.1485 14.5945 25.1371 14.6289 25.1371 14.6633L25.069 14.9502L24.5238 17.3367C24.4443 17.3367 23.99 18.1054 23.9105 18.1054C23.8991 18.1054 23.8878 18.1054 23.8764 18.1054C23.6152 18.094 23.388 17.9792 23.1836 17.853C23.195 17.5662 23.229 17.3252 23.2404 17.222C23.3767 16.5106 23.7288 15.8451 24.1717 15.2829C24.2967 15.1223 24.8191 14.4109 25.1031 14.5256C25.1258 14.5371 25.1371 14.5486 25.1599 14.5601Z" fill="#7E7E7E"/>
<path opacity="0.2" d="M34.0986 25.4487C34.0986 26.4928 34.0191 27.6402 33.9169 28.627C33.8374 28.627 33.4626 29.3154 33.3263 29.3842L33.3035 29.3727L33.1445 29.3039L33.3149 26.3207L33.4285 26.1716L34.0304 25.4028L34.0986 25.4487Z" fill="#7E7E7E"/>
<path d="M33.4406 26.1718L33.4065 26.1488C31.771 26.1718 27.8752 26.3668 26.0466 26.3898V26.2865C26.376 26.057 26.6826 25.8505 26.9893 25.621C27.3187 25.3801 27.6481 25.1277 28.0342 24.8179C29.1132 23.9688 30.6806 22.7411 31.805 21.1807C32.6455 20.0333 33.2475 18.7139 33.2475 17.2452C33.2475 15.8569 32.6682 14.4686 31.6006 13.5507C30.5216 12.5869 29.0564 12.105 26.6258 12.105C24.854 12.105 22.7074 12.4836 21.4694 13.0114C21.3672 14.5833 21.2536 16.1896 21.1854 17.796C22.0259 17.8533 22.9686 18.0828 23.8772 18.0828H23.9113L24.5246 15.4094C24.5474 15.2717 24.5814 15.2258 24.6609 15.1455C24.7745 15.0767 24.9108 14.9964 25.0812 14.9275C25.4333 14.7898 25.8876 14.6866 26.4441 14.6866C27.1029 14.6866 27.7162 14.9849 28.0569 15.4324C28.4545 15.9946 28.6703 16.5797 28.6703 17.4862C28.6703 18.668 28.1819 19.758 27.4209 20.8021C26.6713 21.8232 25.6604 22.81 24.5701 23.7967C23.4343 24.8638 22.4234 25.6669 20.6289 26.9979C20.8106 27.7437 21.0832 28.6042 21.3444 29.3271H24.7064C26.6599 29.3271 32.089 29.35 33.327 29.35V29.3385C33.4292 28.3518 33.5087 27.2159 33.5087 26.1718H33.4406Z" fill="#6C6C6C"/>
<mask id="mask0" mask-type="alpha" maskUnits="userSpaceOnUse" x="10" y="5" width="35" height="35">
<path d="M27.4874 39.6995C18.049 39.6995 10.3711 31.9433 10.3711 22.4086C10.3711 12.8739 18.049 5.11768 27.4874 5.11768C36.9257 5.11768 44.6037 12.8739 44.6037 22.4086C44.6037 31.9433 36.9257 39.6995 27.4874 39.6995Z" fill="url(#paint5_linear)"/>
</mask>
<g mask="url(#mask0)">
<path opacity="0.3" d="M27.4874 39.6995C18.049 39.6995 10.3711 31.9433 10.3711 22.4086C10.3711 12.8739 18.049 5.11768 27.4874 5.11768C36.9257 5.11768 44.6037 12.8739 44.6037 22.4086C44.6037 31.9433 36.9257 39.6995 27.4874 39.6995Z" fill="url(#paint6_linear)"/>
</g>
<mask id="mask1" mask-type="alpha" maskUnits="userSpaceOnUse" x="10" y="5" width="35" height="35">
<path d="M44.6037 22.4084C44.6037 31.943 36.9257 39.6993 27.4874 39.6993C20.4682 39.6993 14.4145 35.3966 11.7795 29.2697C10.8708 27.17 10.3711 24.8523 10.3711 22.4198C10.3711 12.8852 18.049 5.12891 27.4874 5.12891C30.2473 5.12891 32.8596 5.79438 35.1766 6.97618C40.7647 9.82167 44.6037 15.6733 44.6037 22.4084Z" fill="url(#paint7_linear)"/>
</mask>
<g mask="url(#mask1)">
<path opacity="0.3" d="M44.6037 22.4084C44.6037 31.943 36.9257 39.6993 27.4874 39.6993C20.4682 39.6993 14.4145 35.3966 11.7795 29.2697C10.8708 27.17 10.3711 24.8523 10.3711 22.4198C10.3711 12.8852 18.049 5.12891 27.4874 5.12891C30.2473 5.12891 32.8596 5.79438 35.1766 6.97618C40.7647 9.82167 44.6037 15.6733 44.6037 22.4084Z" fill="url(#paint8_linear)"/>
<path opacity="0.6" d="M44.6047 22.4084C44.6047 31.6906 37.3129 39.2977 28.2153 39.6878C36.9608 38.9306 43.4689 31.4956 43.4689 22.4657C43.4689 12.9311 36.1658 5.17481 26.7274 5.17481C26.4662 5.17481 26.205 5.17481 25.9551 5.19776C26.4662 5.15187 26.9773 5.12892 27.4997 5.12892C36.9268 5.11745 44.6047 12.8737 44.6047 22.4084Z" fill="#797979"/>
<path d="M41.4234 29.9123C41.4234 29.9123 40.935 31.1285 40.2762 31.4613C39.9582 31.6219 39.6402 31.6793 39.3789 31.6563C39.095 31.6219 38.8678 31.4842 38.777 31.2433C38.6066 30.7843 39.0155 30.1418 39.6743 29.8205C39.8219 29.7517 40.0036 29.7058 40.174 29.6943C40.776 29.6484 41.4234 29.9123 41.4234 29.9123Z" fill="#424242"/>
<path d="M37.8799 30.9339C37.755 31.0371 37.6073 31.0601 37.4483 31.0257C37.1417 30.9568 36.7782 30.6585 36.5056 30.211C36.1535 29.6259 36.1876 28.5703 36.2103 28.2605C36.2103 28.2031 36.2103 28.1802 36.2103 28.1802C36.2103 28.1802 37.3234 28.4785 37.7436 29.1669C38.1639 29.8553 38.232 30.647 37.8799 30.9339Z" fill="#424242"/>
<path d="M39.6292 33.1137C39.6292 33.1137 38.9705 34.2152 38.2663 34.4102C38.0505 34.4676 37.846 34.4905 37.6643 34.4676C37.2327 34.4332 36.892 34.2152 36.8238 33.8824C36.7216 33.4005 37.2213 32.8498 37.9255 32.6662C37.9823 32.6547 38.0278 32.6433 38.0845 32.6433C38.766 32.5629 39.6292 33.1137 39.6292 33.1137Z" fill="#424242"/>
<path d="M35.6994 33.5383C35.6199 33.5613 35.5404 33.5613 35.4609 33.5269C35.1202 33.4236 34.7908 32.9073 34.6659 32.2418C34.5409 31.6107 34.8362 30.7617 34.9725 30.406C35.018 30.3027 35.052 30.2339 35.052 30.2339C35.052 30.2339 35.9834 31.0026 36.1424 31.8402C36.3014 32.6663 36.1083 33.4236 35.6994 33.5383Z" fill="#424242"/>
<path d="M42.7529 25.7359C42.7529 25.7359 42.4576 27.0324 41.8556 27.5028C41.4808 27.7897 41.0719 27.9159 40.7766 27.87C40.5949 27.8471 40.4359 27.7438 40.345 27.5946C40.1179 27.1816 40.4132 26.4702 41.0151 25.9998C41.2991 25.7818 41.708 25.7129 42.0487 25.69C42.4462 25.6785 42.7529 25.7359 42.7529 25.7359Z" fill="#424242"/>
<path d="M39.6409 27.5717C39.5159 27.7782 39.2774 27.8586 38.9935 27.8241C38.7209 27.7897 38.4256 27.652 38.1416 27.4111C37.5624 26.9177 37.3125 25.5982 37.3125 25.5982C37.3125 25.5982 37.4034 25.5868 37.5397 25.5868C37.551 25.5868 37.5624 25.5868 37.5851 25.5868C37.9599 25.5753 38.63 25.6097 39.0389 25.9539C39.6068 26.4358 39.8794 27.1701 39.6409 27.5717Z" fill="#424242"/>
<path d="M41.2876 18.8751C41.0263 19.6209 40.5266 20.0798 40.1404 19.9651C40.1177 19.9536 40.095 19.9536 40.0836 19.9421C39.6975 19.7471 39.6066 18.9554 39.8905 18.1752C40.095 17.6244 40.6629 17.177 40.9809 16.959C41.1172 16.8672 41.2081 16.8213 41.2081 16.8213C41.2081 16.8213 41.5601 18.0949 41.2876 18.8751Z" fill="#424242"/>
<path d="M39.5276 20.2975C39.414 20.5958 39.0846 20.7449 38.6758 20.7105C38.4713 20.699 38.2555 20.6302 38.0397 20.5269C37.381 20.1942 36.8926 18.978 36.8926 18.978C36.8926 18.978 37.3696 18.7829 37.8807 18.76C38.1419 18.7485 38.4032 18.7714 38.6303 18.8862C39.2891 19.196 39.698 19.8385 39.5276 20.2975Z" fill="#424242"/>
<path d="M42.1169 23.2579C41.7421 23.7857 41.2537 24.0725 40.9129 23.9922C40.8334 23.9808 40.7653 23.9349 40.6971 23.8775C40.3678 23.5677 40.4813 22.776 40.9356 22.122C41.2537 21.6631 41.9011 21.4221 42.2645 21.3188C42.4235 21.2729 42.5257 21.25 42.5257 21.25C42.5257 21.25 42.5712 22.5924 42.1169 23.2579Z" fill="#424242"/>
<path d="M39.7539 23.8546C39.6289 24.1185 39.345 24.2218 38.9929 24.1874C38.7544 24.1644 38.4931 24.0611 38.2433 23.9005C37.6186 23.4989 37.2324 22.2253 37.2324 22.2253C37.2324 22.2253 37.5277 22.145 37.9025 22.1221H37.9253C38.266 22.1106 38.6749 22.145 38.9702 22.3401C39.6062 22.7417 39.9583 23.4186 39.7539 23.8546Z" fill="#424242"/>
<path d="M39.7424 14.836C39.6061 15.5589 39.1972 16.0752 38.8451 15.9719C38.8338 15.9719 38.8224 15.9605 38.811 15.9605C38.4817 15.8343 38.3113 15.1917 38.4476 14.4918C38.5498 13.987 38.97 13.5051 39.2086 13.2527C39.3221 13.1494 39.3903 13.0806 39.3903 13.0806C39.3903 13.0806 39.8787 14.1132 39.7424 14.836Z" fill="#424242"/>
<path d="M38.5959 16.9477C38.5277 17.3034 38.1075 17.5099 37.6077 17.464C37.5169 17.4525 37.426 17.4411 37.3352 17.4181C36.7218 17.2575 36.1426 16.2937 36.1426 16.2937C36.1426 16.2937 36.7218 15.9151 37.2557 15.8692C37.3806 15.8577 37.5055 15.8577 37.6305 15.8921C38.2438 16.0413 38.6754 16.5232 38.5959 16.9477Z" fill="#424242"/>
<path d="M37.7784 12.025C37.7444 12.6676 37.4604 13.1724 37.1424 13.1495C37.1083 13.1495 37.0629 13.138 37.0288 13.115C36.7676 12.9888 36.5972 12.5069 36.6313 11.9332C36.654 11.4972 36.9493 11.0268 37.1424 10.7629C37.2332 10.6482 37.29 10.5679 37.29 10.5679C37.29 10.5679 37.8125 11.3825 37.7784 12.025Z" fill="#424242"/>
<path d="M37.1654 14.1591C37.1427 14.5378 36.6884 14.8017 36.1432 14.7672C36.1319 14.7672 36.1319 14.7672 36.1205 14.7672C35.5754 14.7099 34.9961 13.9985 34.9961 13.9985C34.9961 13.9985 35.5413 13.4936 36.041 13.4133C36.0978 13.4019 36.166 13.4019 36.2227 13.4019C36.7566 13.4478 37.1882 13.792 37.1654 14.1591Z" fill="#424242"/>
<path d="M36.086 12.2199C35.9837 12.4149 35.7679 12.4953 35.4953 12.4494C35.3136 12.4264 35.1205 12.3461 34.9388 12.2084C34.4731 11.8757 34.2119 10.9004 34.2119 10.9004C34.2119 10.9004 34.3823 10.866 34.6208 10.8545C34.9047 10.8316 35.2795 10.8545 35.5294 11.0381C36.0064 11.3594 36.2563 11.8871 36.086 12.2199Z" fill="#424242"/>
<path d="M41.1621 29.9114C41.1621 29.9114 40.6737 31.1276 40.015 31.4603C39.7992 31.5636 39.5834 31.6324 39.3789 31.6554C39.095 31.6209 38.8678 31.4833 38.777 31.2423C38.6066 30.7834 39.0155 30.1408 39.6743 29.8196C39.8219 29.7507 40.0036 29.7048 40.174 29.6934C40.6851 29.7163 41.1621 29.9114 41.1621 29.9114Z" fill="#6C6C6C"/>
<path d="M37.6187 30.9331C37.5619 30.979 37.5051 31.002 37.4483 31.0249C37.1417 30.9561 36.7782 30.6578 36.5056 30.2103C36.1535 29.6251 36.1876 28.5696 36.2103 28.2598C36.5624 28.386 37.1985 28.6843 37.4824 29.1662C37.9026 29.8546 37.9594 30.6463 37.6187 30.9331Z" fill="#6C6C6C"/>
<path d="M39.367 33.113C39.367 33.113 38.7082 34.2145 38.0041 34.4095C37.8905 34.444 37.7656 34.4554 37.6633 34.4669C37.2317 34.4325 36.891 34.2145 36.8228 33.8817C36.7206 33.3998 37.2204 32.8491 37.9246 32.6655C37.9813 32.6541 38.0268 32.6426 38.0836 32.6426C38.7082 32.6885 39.367 33.113 39.367 33.113Z" fill="#6C6C6C"/>
<path d="M35.4609 33.5261C35.1202 33.4229 34.7908 32.9065 34.6659 32.2411C34.5409 31.61 34.8362 30.761 34.9725 30.4053C35.2565 30.6692 35.7676 31.2429 35.8812 31.828C36.0402 32.6427 35.8471 33.3884 35.4609 33.5261Z" fill="#6C6C6C"/>
<path d="M42.4907 25.7349C42.4907 25.7349 42.1954 27.0314 41.5934 27.5018C41.3208 27.7198 41.0255 27.8346 40.7756 27.869C40.5939 27.846 40.4349 27.7428 40.344 27.5936C40.1169 27.1806 40.4122 26.4692 41.0141 25.9988C41.2981 25.7808 41.707 25.7119 42.0477 25.689C42.3203 25.7004 42.4907 25.7349 42.4907 25.7349Z" fill="#6C6C6C"/>
<path d="M39.3796 27.5709C39.2888 27.7086 39.1638 27.7889 38.9935 27.8233C38.7209 27.7889 38.4256 27.6512 38.1416 27.4103C37.5624 26.9169 37.3125 25.5974 37.3125 25.5974C37.3125 25.5974 37.4034 25.5859 37.5397 25.5859C37.551 25.5859 37.5624 25.5859 37.5851 25.5859C37.9599 25.5974 38.4596 25.6777 38.7777 25.9531C39.3456 26.435 39.6181 27.1693 39.3796 27.5709Z" fill="#6C6C6C"/>
<path d="M41.0263 18.8741C40.8219 19.4478 40.4698 19.8609 40.1404 19.9641C40.1177 19.9527 40.095 19.9527 40.0836 19.9412C39.6975 19.7461 39.6066 18.9544 39.8905 18.1742C40.095 17.6235 40.6629 17.176 40.9809 16.958C41.0604 17.3137 41.2421 18.2545 41.0263 18.8741Z" fill="#6C6C6C"/>
<path d="M39.2654 20.2968C39.1745 20.5377 38.9587 20.6754 38.6748 20.7098C38.4703 20.6983 38.2545 20.6295 38.0387 20.5262C37.38 20.1935 36.8916 18.9773 36.8916 18.9773C36.8916 18.9773 37.3686 18.7822 37.8797 18.7593C38.0501 18.7708 38.2205 18.8052 38.3681 18.8855C39.0269 19.1953 39.4358 19.8378 39.2654 20.2968Z" fill="#6C6C6C"/>
<path d="M41.8556 23.2574C41.5717 23.6705 41.2196 23.9344 40.9129 23.9917C40.8334 23.9803 40.7653 23.9344 40.6971 23.877C40.3678 23.5672 40.4813 22.7755 40.9356 22.1215C41.2537 21.6626 41.9011 21.4216 42.2645 21.3184C42.2645 21.5937 42.2531 22.6837 41.8556 23.2574Z" fill="#6C6C6C"/>
<path d="M39.4926 23.8536C39.4018 24.0372 39.22 24.1519 38.9929 24.1864C38.7544 24.1634 38.4931 24.0602 38.2433 23.8995C37.6186 23.4979 37.2324 22.2244 37.2324 22.2244C37.2324 22.2244 37.5277 22.144 37.9025 22.1211H37.9253C38.1978 22.1326 38.4818 22.1899 38.7089 22.3391C39.345 22.7407 39.6971 23.4176 39.4926 23.8536Z" fill="#6C6C6C"/>
<path d="M39.4808 14.8353C39.3672 15.409 39.0946 15.8565 38.7993 15.9598C38.4699 15.8335 38.2996 15.191 38.4359 14.4911C38.5381 13.9863 38.9583 13.5044 39.1968 13.252C39.3331 13.5847 39.583 14.2961 39.4808 14.8353Z" fill="#6C6C6C"/>
<path d="M38.3233 16.9462C38.2665 17.2331 37.9826 17.4281 37.6077 17.4625C37.5169 17.4511 37.426 17.4396 37.3352 17.4166C36.7218 17.256 36.1426 16.2922 36.1426 16.2922C36.1426 16.2922 36.7218 15.9136 37.2557 15.8677C37.2897 15.8677 37.3238 15.8792 37.3692 15.8906C37.9826 16.0398 38.4141 16.5217 38.3233 16.9462Z" fill="#6C6C6C"/>
<path d="M37.5162 12.0243C37.4935 12.5636 37.2777 12.9996 37.0278 13.1143C36.7666 12.9881 36.5962 12.5062 36.6303 11.9325C36.653 11.4965 36.9483 11.0261 37.1414 10.7622C37.2777 11.0376 37.5389 11.5654 37.5162 12.0243Z" fill="#6C6C6C"/>
<path d="M36.9023 14.1579C36.8909 14.4792 36.5502 14.7201 36.1186 14.766C35.5734 14.7086 34.9941 13.9973 34.9941 13.9973C34.9941 13.9973 35.5393 13.4924 36.0391 13.4121C36.5388 13.481 36.9136 13.8022 36.9023 14.1579Z" fill="#6C6C6C"/>
<path d="M35.8238 12.2174C35.7556 12.3436 35.642 12.424 35.4944 12.4469C35.3126 12.424 35.1196 12.3436 34.9378 12.206C34.4722 11.8732 34.2109 10.8979 34.2109 10.8979C34.2109 10.8979 34.3813 10.8635 34.6198 10.8521C34.847 10.8635 35.0855 10.9094 35.2672 11.0356C35.7442 11.3569 35.9828 11.8847 35.8238 12.2174Z" fill="#6C6C6C"/>
<path d="M16.1307 31.0029C15.9717 31.4848 15.2903 31.588 14.6315 31.2324C14.6088 31.2209 14.5861 31.2094 14.5634 31.1865C13.9387 30.7849 13.4844 29.6031 13.4844 29.6031C13.4844 29.6031 14.4498 29.2015 15.1199 29.4539C15.154 29.4654 15.1994 29.4884 15.2335 29.4998C15.8922 29.8555 16.3011 30.5325 16.1307 31.0029Z" fill="#424242"/>
<path d="M18.4014 29.9127C17.9812 30.6355 17.3679 30.9797 17.0271 30.6814C17.0158 30.6699 17.0044 30.6585 17.0044 30.6585C16.6864 30.3372 16.7545 29.534 17.1634 28.8227C17.4587 28.3064 18.0948 28.008 18.4468 27.8704C18.5945 27.813 18.6854 27.79 18.6854 27.79C18.6854 27.79 18.8217 29.1898 18.4014 29.9127Z" fill="#424242"/>
<path d="M18.0831 33.7793C17.9922 34.2842 17.3448 34.5366 16.6406 34.3301C16.5384 34.2957 16.4248 34.2498 16.334 34.1809C15.7547 33.8023 15.2891 32.9762 15.2891 32.9762C15.2891 32.9762 16.2999 32.2992 16.9927 32.4943C17.0609 32.5172 17.129 32.5402 17.1972 32.5631C17.7764 32.8155 18.1626 33.3204 18.0831 33.7793Z" fill="#424242"/>
<path d="M20.2524 32.0579C20.0934 32.9299 19.6277 33.5381 19.2188 33.4118C19.1507 33.3889 19.0825 33.3545 19.0257 33.2971C18.7418 33.0217 18.6282 32.3563 18.7645 31.6334C18.8895 30.9909 19.446 30.3713 19.7186 30.0959C19.8094 30.0041 19.8662 29.9468 19.8662 29.9468C19.8662 29.9468 20.4114 31.1859 20.2524 32.0579Z" fill="#424242"/>
<path d="M14.5514 27.1927C14.347 27.5713 13.8132 27.5828 13.2793 27.2615C13.2793 27.2615 13.2793 27.2615 13.268 27.2615C13.1885 27.2156 13.1203 27.1582 13.0408 27.1009C12.4389 26.6075 12.1436 25.2421 12.1436 25.2421C12.1436 25.2421 12.9272 25.1045 13.5292 25.3339C13.6541 25.3798 13.7677 25.4372 13.8699 25.529C14.4719 26.0109 14.7786 26.7567 14.5514 27.1927Z" fill="#424242"/>
<path d="M17.6057 25.0821C17.6057 25.0821 17.3558 26.459 16.7652 26.9753C16.2541 27.4342 15.6635 27.549 15.3682 27.2851C15.3228 27.2507 15.2887 27.2048 15.266 27.1589C15.0275 26.7343 15.3 25.9771 15.8793 25.4493C16.2768 25.0936 16.9469 25.0592 17.3217 25.0706C17.4921 25.0706 17.6057 25.0821 17.6057 25.0821Z" fill="#424242"/>
<path d="M14.8348 19.1616C14.6645 19.2534 14.4714 19.2075 14.2783 19.0584C14.0284 18.8633 13.7785 18.5076 13.6195 18.0487C13.3583 17.3029 13.6423 16.1325 13.699 15.926C13.7104 15.9031 13.7104 15.8916 13.7104 15.8916C13.7104 15.8916 14.744 16.4882 15.0279 17.3143C15.3005 18.129 15.2096 18.9551 14.8348 19.1616Z" fill="#424242"/>
<path d="M18.0265 18.1399C18.0265 18.1399 17.5381 19.4135 16.868 19.7577C16.3569 20.0216 15.8458 20.0216 15.5618 19.7922C15.471 19.7233 15.4142 19.6315 15.3687 19.5168C15.1984 19.0349 15.6073 18.3694 16.2774 18.0252C16.7317 17.7843 17.3904 17.9219 17.7539 18.0367C17.9243 18.094 18.0265 18.1399 18.0265 18.1399Z" fill="#424242"/>
<path d="M14.1994 23.2918C14.0063 23.4868 13.6996 23.4639 13.393 23.2574C13.1885 23.1311 12.9727 22.9131 12.791 22.6378C12.3367 21.9494 12.3821 20.5381 12.3821 20.5381C12.3821 20.5381 12.7229 20.6069 13.109 20.779C13.427 20.9167 13.7678 21.1347 13.9722 21.4445C14.4265 22.1329 14.5288 22.959 14.1994 23.2918Z" fill="#424242"/>
<path d="M17.6754 21.5481C17.6754 21.5481 17.3006 22.879 16.6645 23.3151C16.1534 23.6707 15.6082 23.7166 15.3129 23.4757C15.2448 23.4298 15.1994 23.3609 15.1539 23.2692C14.9495 22.8217 15.3016 22.0988 15.9263 21.6628C16.3578 21.3645 17.028 21.4219 17.4028 21.4907C17.5618 21.5137 17.6754 21.5481 17.6754 21.5481Z" fill="#424242"/>
<path d="M16.0614 15.0076C15.9251 15.042 15.7888 14.9961 15.6638 14.8814C15.4367 14.6863 15.2436 14.2962 15.1527 13.8143C15.0392 13.1833 15.3458 12.3342 15.4594 12.0703C15.4821 12.0129 15.4935 11.9785 15.4935 11.9785C15.4935 11.9785 16.3112 12.6899 16.4475 13.4586C16.6066 14.2044 16.4248 14.9043 16.0614 15.0076Z" fill="#424242"/>
<path d="M18.7768 15.3295C18.7768 15.3295 18.1976 16.3392 17.5729 16.5113C17.164 16.626 16.7892 16.5687 16.5507 16.3851C16.4257 16.2933 16.3462 16.1671 16.3122 16.0179C16.2327 15.5819 16.6643 15.0771 17.2776 14.905C17.5956 14.8132 17.9931 14.9394 18.2998 15.0656C18.5837 15.1918 18.7768 15.3295 18.7768 15.3295Z" fill="#424242"/>
<path d="M17.7769 12.0247C17.6747 12.0362 17.5724 11.9903 17.4929 11.8985C17.2999 11.7034 17.1636 11.3133 17.1408 10.8544C17.1181 10.3381 17.4248 9.71848 17.5724 9.46605C17.6179 9.38574 17.6519 9.33984 17.6519 9.33984C17.6519 9.33984 18.2653 10.0856 18.3107 10.7626C18.3221 11.4395 18.0949 12.0018 17.7769 12.0247Z" fill="#424242"/>
<path d="M19.9351 12.9196C19.9351 12.9196 19.3218 13.6884 18.7766 13.7228C18.4813 13.7457 18.2087 13.6769 18.0156 13.5392C17.8566 13.4245 17.7544 13.2753 17.743 13.0917C17.7203 12.7016 18.1519 12.3459 18.6971 12.3C18.8334 12.2886 18.9811 12.323 19.1287 12.3804C19.5489 12.5525 19.9351 12.9196 19.9351 12.9196Z" fill="#424242"/>
<path d="M20.7073 9.67246C20.7073 9.67246 20.4461 10.6936 19.9804 11.0493C19.5715 11.3476 19.1285 11.3935 18.9127 11.1755C18.8787 11.1411 18.856 11.1067 18.8332 11.0608C18.6742 10.728 18.9127 10.1658 19.3898 9.82162C19.6851 9.60362 20.1394 9.60362 20.4347 9.62656C20.5937 9.63804 20.7073 9.67246 20.7073 9.67246Z" fill="#424242"/>
<path d="M15.8692 30.8757C15.7215 31.3117 15.1423 31.4379 14.5516 31.1855C13.927 30.7839 13.4727 29.6021 13.4727 29.6021C13.4727 29.6021 14.4381 29.2005 15.1082 29.453C15.6874 29.8201 16.0282 30.4282 15.8692 30.8757Z" fill="#6C6C6C"/>
<path d="M18.1398 29.7862C17.7991 30.3714 17.3334 30.7041 16.9927 30.6582C16.6747 30.337 16.7428 29.5338 17.1517 28.8224C17.447 28.3061 18.083 28.0078 18.4351 27.8701C18.4692 28.2946 18.4579 29.2355 18.1398 29.7862Z" fill="#6C6C6C"/>
<path d="M17.8215 33.6522C17.7306 34.157 17.0832 34.4094 16.3791 34.2029C16.3563 34.1914 16.3336 34.1914 16.3223 34.1799C15.743 33.8013 15.2773 32.9752 15.2773 32.9752C15.2773 32.9752 16.2882 32.2983 16.981 32.4933C17.0492 32.5163 17.1173 32.5392 17.1855 32.5621C17.6284 32.8375 17.901 33.262 17.8215 33.6522Z" fill="#6C6C6C"/>
<path d="M19.9912 31.9315C19.8435 32.7461 19.4119 33.3428 19.0257 33.2969C18.7418 33.0215 18.6282 32.356 18.7645 31.6332C18.8895 30.9907 19.446 30.3711 19.7186 30.0957C19.8662 30.5088 20.1161 31.3119 19.9912 31.9315Z" fill="#6C6C6C"/>
<path d="M14.2902 27.0547C14.1198 27.376 13.7109 27.4334 13.2793 27.2498C13.2793 27.2498 13.2793 27.2498 13.268 27.2498C13.1885 27.2039 13.1203 27.1465 13.0408 27.0892C12.4389 26.5958 12.1436 25.2304 12.1436 25.2304C12.1436 25.2304 12.9272 25.0927 13.5292 25.3222C13.5633 25.3337 13.586 25.3566 13.6201 25.3796C14.222 25.8729 14.5287 26.6187 14.2902 27.0547Z" fill="#6C6C6C"/>
<path d="M17.3217 25.0706C17.2536 25.4149 16.9924 26.4245 16.5153 26.8491C16.1178 27.2048 15.6862 27.3424 15.3682 27.2851C15.3228 27.2507 15.2887 27.2048 15.266 27.1589C15.0275 26.7343 15.3 25.9771 15.8793 25.4493C16.2768 25.0936 16.9469 25.0592 17.3217 25.0706Z" fill="#6C6C6C"/>
<path d="M14.5736 19.0347C14.4827 19.0806 14.3805 19.092 14.2783 19.0576C14.0284 18.8626 13.7785 18.5069 13.6195 18.0479C13.3583 17.3021 13.6423 16.1318 13.699 15.9253C14.0284 16.1662 14.5736 16.6252 14.7667 17.1874C15.0506 18.002 14.9598 18.8281 14.5736 19.0347Z" fill="#6C6C6C"/>
<path d="M17.7539 18.0479C17.663 18.2659 17.2201 19.3215 16.6181 19.6313C16.2433 19.8264 15.8571 19.8837 15.5618 19.7919C15.471 19.7231 15.4142 19.6313 15.3687 19.5166C15.1984 19.0347 15.6073 18.3692 16.2774 18.025C16.7317 17.7955 17.3904 17.9332 17.7539 18.0479Z" fill="#6C6C6C"/>
<path d="M13.9378 23.1543C13.7901 23.292 13.597 23.3264 13.3813 23.2461C13.1768 23.1199 12.961 22.9019 12.7793 22.6265C12.325 21.9381 12.3704 20.5269 12.3704 20.5269C12.3704 20.5269 12.7111 20.5957 13.0973 20.7678C13.3245 20.9055 13.5516 21.0776 13.6993 21.3071C14.1649 22.007 14.2672 22.8331 13.9378 23.1543Z" fill="#6C6C6C"/>
<path d="M17.3911 21.479C17.3002 21.7543 16.9481 22.7984 16.4029 23.1771C16.0168 23.441 15.6079 23.5328 15.3012 23.4639C15.2331 23.418 15.1876 23.3492 15.1422 23.2574C14.9378 22.8099 15.2899 22.0871 15.9145 21.6511C16.3575 21.3642 17.0276 21.4216 17.3911 21.479Z" fill="#6C6C6C"/>
<path d="M15.8128 14.8692C15.7674 14.8806 15.722 14.8806 15.6766 14.8692C15.4494 14.6741 15.2563 14.284 15.1654 13.8021C15.0519 13.1711 15.3585 12.322 15.4721 12.0581C15.722 12.3335 16.1195 12.8154 16.2104 13.3202C16.3467 14.0775 16.1763 14.7774 15.8128 14.8692Z" fill="#6C6C6C"/>
<path d="M18.5273 15.2028C18.5273 15.2028 17.9481 16.2125 17.3347 16.3731C17.0508 16.4534 16.7896 16.442 16.5624 16.3846C16.4375 16.2928 16.358 16.1666 16.3239 16.0174C16.2444 15.5814 16.676 15.0766 17.2893 14.9045C17.6073 14.8127 18.0049 14.9389 18.3115 15.0651C18.4365 15.1454 18.5273 15.2028 18.5273 15.2028Z" fill="#6C6C6C"/>
<path d="M17.5163 11.8983H17.4822C17.2891 11.7032 17.1528 11.3131 17.1301 10.8541C17.1074 10.3378 17.414 9.71824 17.5617 9.46582C17.7548 9.74119 18.016 10.2001 18.0274 10.6361C18.0728 11.3016 17.8343 11.8753 17.5163 11.8983Z" fill="#6C6C6C"/>
<path d="M19.6739 12.7934C19.6739 12.7934 19.0606 13.5507 18.5154 13.5966C18.3337 13.6081 18.1633 13.5851 18.0156 13.5392C17.8566 13.4245 17.7544 13.2753 17.743 13.0917C17.7203 12.7016 18.1519 12.3459 18.6971 12.3C18.8334 12.2886 18.9811 12.323 19.1287 12.3804C19.4354 12.5639 19.6739 12.7934 19.6739 12.7934Z" fill="#6C6C6C"/>
<path d="M20.4233 9.62714C20.3552 9.87957 20.1053 10.6254 19.7191 10.9122C19.4352 11.1187 19.1399 11.2105 18.9127 11.1646C18.8787 11.1302 18.856 11.0958 18.8332 11.0499C18.6742 10.7171 18.9127 10.1549 19.3898 9.81072C19.6737 9.59272 20.128 9.59272 20.4233 9.62714Z" fill="#6C6C6C"/>
<path opacity="0.2" d="M44.6045 22.4083C44.6045 31.9429 36.9265 39.6992 27.4882 39.6992C27.0225 39.6992 26.5568 39.6762 26.1025 39.6418C19.674 39.114 14.2336 34.9949 11.7803 29.2696C37.1764 35.2588 35.6999 11.7147 35.2456 7.53829C35.2456 7.53829 35.3705 7.15966 35.3592 7.06787C38.4826 8.66272 40.8677 11.0952 42.5373 14.1816C43.8548 16.6255 44.6045 19.4366 44.6045 22.4083Z" fill="#A4A4A4"/>
<path opacity="0.2" d="M44.6035 22.4081C44.6035 31.9428 36.9256 39.6991 27.4872 39.6991C27.0215 39.6991 26.5559 39.6761 26.1016 39.6417C37.7093 35.58 41.2302 23.0851 42.2865 16.0288L43.0702 15.2715C44.0356 17.4744 44.6035 19.4365 44.6035 22.4081Z" fill="#797979"/>
</g>
</g>
<defs>
<filter id="filter0_d" x="0" y="0" width="52.9999" height="54" filterUnits="userSpaceOnUse" color-interpolation-filters="sRGB">
<feFlood flood-opacity="0" result="BackgroundImageFix"/>
<feColorMatrix in="SourceAlpha" type="matrix" values="0 0 0 0 0 0 0 0 0 0 0 0 0 0 0 0 0 0 127 0"/>
<feOffset dy="5"/>
<feGaussianBlur stdDeviation="2"/>
<feColorMatrix type="matrix" values="0 0 0 0 0 0 0 0 0 0 0 0 0 0 0 0 0 0 0.25 0"/>
<feBlend mode="normal" in2="BackgroundImageFix" result="effect1_dropShadow"/>
<feBlend mode="normal" in="SourceGraphic" in2="effect1_dropShadow" result="shape"/>
</filter>
<linearGradient id="paint0_linear" x1="3.99761" y1="22.4984" x2="48.2222" y2="22.4984" gradientUnits="userSpaceOnUse">
<stop stop-color="#A0A0A0"/>
<stop offset="1" stop-color="#858585"/>
</linearGradient>
<radialGradient id="paint1_radial" cx="0" cy="0" r="1" gradientUnits="userSpaceOnUse" gradientTransform="translate(26.8071 21.0799) scale(29.1084 29.4054)">
<stop stop-color="#A0A0A0"/>
<stop offset="1" stop-color="#858585"/>
</radialGradient>
<linearGradient id="paint2_linear" x1="7.93693" y1="22.1775" x2="44.1368" y2="22.1775" gradientUnits="userSpaceOnUse">
<stop stop-color="#A0A0A0"/>
<stop offset="1" stop-color="#858585"/>
</linearGradient>
<linearGradient id="paint3_linear" x1="9.15726" y1="22.4168" x2="45.8319" y2="22.4168" gradientUnits="userSpaceOnUse">
<stop stop-color="#858585"/>
<stop offset="0.9951" stop-color="#B5B5B5"/>
</linearGradient>
<radialGradient id="paint4_radial" cx="0" cy="0" r="1" gradientUnits="userSpaceOnUse" gradientTransform="translate(27.4934 22.4118) scale(17.1147 17.2893)">
<stop stop-color="#898989"/>
<stop offset="1" stop-color="#9E9E9E"/>
</radialGradient>
<linearGradient id="paint5_linear" x1="14.2396" y1="33.2839" x2="40.8164" y2="11.9213" gradientUnits="userSpaceOnUse">
<stop/>
<stop offset="0.1621" stop-color="#020202"/>
<stop offset="0.2313" stop-color="#090909"/>
<stop offset="0.2828" stop-color="#161616"/>
<stop offset="0.3255" stop-color="#272727"/>
<stop offset="0.3628" stop-color="#3F3F3F"/>
<stop offset="0.3963" stop-color="#5B5B5B"/>
<stop offset="0.427" stop-color="#7D7D7D"/>
<stop offset="0.4554" stop-color="#A5A5A5"/>
<stop offset="0.4811" stop-color="#D0D0D0"/>
<stop offset="0.5049" stop-color="white"/>
<stop offset="0.5347" stop-color="#DCDCDC"/>
<stop offset="0.5835" stop-color="#A9A9A9"/>
<stop offset="0.6346" stop-color="#7C7C7C"/>
<stop offset="0.687" stop-color="#565656"/>
<stop offset="0.741" stop-color="#363636"/>
<stop offset="0.7972" stop-color="#1E1E1E"/>
<stop offset="0.8565" stop-color="#0D0D0D"/>
<stop offset="0.9209" stop-color="#030303"/>
<stop offset="1"/>
</linearGradient>
<linearGradient id="paint6_linear" x1="14.2396" y1="33.2839" x2="40.8164" y2="11.9213" gradientUnits="userSpaceOnUse">
<stop stop-color="#F3F3F3"/>
<stop offset="0.431" stop-color="#F3F3F3"/>
<stop offset="0.5049" stop-color="#F3F3F3"/>
<stop offset="0.5474" stop-color="#F3F3F3"/>
<stop offset="1" stop-color="#F3F3F3"/>
</linearGradient>
<linearGradient id="paint7_linear" x1="29.151" y1="5.20452" x2="25.7628" y2="39.6739" gradientUnits="userSpaceOnUse">
<stop/>
<stop offset="0.5049" stop-color="white"/>
<stop offset="0.5347" stop-color="#DCDCDC"/>
<stop offset="0.5835" stop-color="#A9A9A9"/>
<stop offset="0.6346" stop-color="#7C7C7C"/>
<stop offset="0.687" stop-color="#565656"/>
<stop offset="0.741" stop-color="#363636"/>
<stop offset="0.7972" stop-color="#1E1E1E"/>
<stop offset="0.8565" stop-color="#0D0D0D"/>
<stop offset="0.9209" stop-color="#030303"/>
<stop offset="1"/>
</linearGradient>
<linearGradient id="paint8_linear" x1="29.151" y1="5.20452" x2="25.7628" y2="39.6739" gradientUnits="userSpaceOnUse">
<stop stop-color="#F3F3F3"/>
<stop offset="0.5049" stop-color="#F3F3F3"/>
<stop offset="0.5474" stop-color="#F3F3F3"/>
<stop offset="1" stop-color="#F3F3F3"/>
</linearGradient>
</defs>
</svg>
