<svg width="53" height="54" viewBox="0 0 53 54" fill="none" xmlns="http://www.w3.org/2000/svg">
<g filter="url(#filter0_d)">
<path d="M44.6043 29.0933L46.91 32.4101L46.1263 32.72L42.2646 33.5463L42.151 33.5692L41.4696 33.707L41.6058 34.1316L41.6286 34.2234L42.8552 38.1599L42.7189 38.2173L42.0715 38.4698L40.5268 38.3091L38.0508 38.0451L37.4489 37.9763L37.3466 37.9648V38.0566L37.2899 39.9847L37.2331 42.3718L36.4494 42.6817L32.5991 40.9373L32.1107 40.7192L30.6001 44.6213L29.8278 44.9311L26.5226 41.9243L26.2955 41.7177L23.615 44.6901L22.8313 45L20.4802 40.8914L20.4575 40.834L16.9366 42.5784L16.1529 42.8883L15.1761 38.1829L10.5535 38.7797L10.4626 38.7911L10.951 34.189L10.9624 34.0168L6.28292 33.1217L6.33971 32.9954L8.22512 28.7261L8.15698 28.6917L4.06814 26.4193L7.24835 22.85L7.14613 22.7353L4 19.3497L4.10222 19.2808L8.11154 16.951L8.03204 16.7789L6.08984 12.6014L6.86218 12.2915L9.4404 11.8439L10.7466 11.6144L10.7238 11.4652L10.2582 7.7238L10.1446 6.85157L10.9169 6.5417L11.4735 6.65647L14.8808 7.35654L14.9149 7.17292L14.949 6.96634L15.7667 2.62816L16.5391 2.31829L20.1054 4.59067L20.3894 4.06274L22.3997 0.37873L23.1721 0.06886L25.9207 3.60367L26.4772 3.08722L29.3848 0.30987L30.1685 0L31.7245 4.38409L31.7586 4.48738L31.8835 4.42999L32.5196 4.14308L33.4509 3.72992L36.0178 2.58225L36.9037 6.50727L37.04 7.12701L37.7328 7.04667L41.7649 6.53022L41.356 10.2946L41.2537 11.3045L42.3214 11.5111L45.9332 12.1997L44.4907 15.4476L43.991 16.5953L45.0927 17.2035L48.148 18.9021L45.8082 21.5187L44.9678 22.4713L45.8082 23.378L48.2161 25.9717L45.0359 27.8194L44.1046 28.3588L44.6043 29.0933Z" fill="#935737"/>
<path d="M14.9378 33.431L11.7917 38.0446L10.5537 38.7677L10.4628 38.7792L10.9512 34.177L12.3823 33.3622L7.5893 32.4555L6.35128 32.9834L8.23669 28.7141L8.15719 28.6912L9.49741 28.2665L5.46537 25.9482L4.06836 26.4188L7.25991 22.8495L7.1577 22.7348L8.532 22.3446L8.81595 21.0821L5.3518 18.936L4.11378 19.2803L8.12312 16.9505L8.04361 16.7784L9.16804 16.4341C9.16804 16.4341 11.4737 20.5542 11.3487 20.7149C11.2125 20.8756 14.9378 33.431 14.9378 33.431Z" fill="#FAFAFA"/>
<path d="M42.2534 33.42L42.2647 33.5463L42.4464 34.9809L42.8553 38.1599L42.6395 38.137L40.084 37.8615L38.1305 37.6549L38.051 38.0451L37.6194 40.3175L37.2332 42.3718L32.8945 40.4093L32.5992 40.9373L30.6002 44.6213L27.0793 41.4078L26.5228 41.9243L23.6151 44.6901L21.2413 40.5241L20.4804 40.8914L16.9367 42.5784L15.9599 37.873L11.2351 38.4813L11.2464 38.3665L11.7348 33.7414V33.707L7.06675 32.8003L7.1349 32.6511L8.97488 28.4851L9.00895 28.4162L8.94079 28.3818L4.8974 26.1324L4.84062 26.1094L7.94131 22.632L8.03218 22.5402L7.98673 22.4943L7.94131 22.4484L4.8179 19.0857L4.77246 19.0398L8.73636 16.733L8.89537 16.6297L8.83857 16.5264L8.81587 16.469L7.21441 13.026L7.14626 12.8883L6.86232 12.2915L9.36104 11.7636L10.724 11.4652L11.2692 11.3504L11.519 11.293L11.485 11.0406L11.4622 10.8799L11.1897 8.67636L10.9966 7.10406L10.9171 6.5417L11.4168 6.5876L13.6316 6.82862L14.6879 6.94338L14.9491 6.96634L15.4488 7.02372L15.6533 7.04667L15.6874 6.85157L16.5392 2.31829L20.3895 4.06274L20.8779 4.29227L23.1722 0.06886L26.4773 3.08722L26.7045 3.2938L30.1686 0L32.5197 4.14308L32.531 4.16603L33.451 3.72992L36.8357 2.12318L37.8125 6.81714L42.5373 6.22035L42.0376 10.9946L46.6943 11.8898L44.7862 16.228L44.7635 16.2854L44.8089 16.3083L48.9318 18.5922L45.8311 22.0696L45.7402 22.1614L45.8311 22.2533L48.9999 25.6618L44.9906 28.0031L44.877 28.0604L44.9338 28.1752L46.9101 32.4101L42.2761 33.3856L42.2534 33.3971V33.42Z" fill="url(#paint0_linear)"/>
<path d="M44.1391 22.4712C44.1391 25.5125 43.5031 28.3358 42.3446 30.8033C42.2537 31.0098 42.1515 31.2049 42.0493 31.4C41.9357 31.6296 41.8108 31.8591 41.6858 32.0772C41.6745 32.1001 41.6631 32.1116 41.6518 32.1345C41.5495 32.3296 41.436 32.5133 41.311 32.6969C41.1974 32.8691 41.0839 33.0527 40.9589 33.2248C40.7091 33.5921 40.4365 33.9593 40.1525 34.3036C40.0503 34.4414 39.9367 34.5676 39.8231 34.6938C39.0167 35.6349 38.1195 36.4842 37.12 37.2302C36.995 37.3335 36.8701 37.4138 36.7338 37.5171C33.9284 39.4796 30.4643 40.6158 26.6026 40.6158C24.774 40.6158 23.0022 40.3633 21.3212 39.8813C21.2871 39.8698 21.2531 39.8583 21.2303 39.8469C15.5514 38.2057 10.9401 34.0167 8.96387 28.485C8.95251 28.4505 8.9298 28.4161 8.91844 28.3817C8.29376 26.5913 7.94166 24.6632 7.91895 22.6433C7.91895 22.586 7.91895 22.5171 7.91895 22.4597V22.4253C7.91895 20.4398 8.2029 18.5347 8.72536 16.7443C8.74808 16.664 8.77079 16.5722 8.7935 16.4918C8.98659 15.8492 9.21373 15.2294 9.47497 14.6212C9.5204 14.5179 9.55448 14.4261 9.61127 14.3228C9.64534 14.2539 9.67941 14.1736 9.71349 14.1047C9.84978 13.8063 9.99744 13.5079 10.1451 13.2095C10.4745 12.5668 10.8493 11.9586 11.2582 11.3733C11.3263 11.27 11.3945 11.1667 11.474 11.0519C11.4853 11.0519 11.4853 11.0404 11.4853 11.029C11.508 10.9945 11.5421 10.9601 11.5648 10.9257C11.8601 10.5125 12.1781 10.1108 12.5075 9.72062C12.6552 9.55995 12.7915 9.39927 12.9391 9.25008C13.0073 9.18122 13.0754 9.11236 13.1322 9.0435C13.3366 8.82544 13.5638 8.60738 13.791 8.4008C13.95 8.25161 14.1203 8.09093 14.2907 7.95321C14.6542 7.64334 15.0176 7.34495 15.4151 7.05803C15.4151 7.05803 15.4265 7.04656 15.4378 7.04656C15.5173 6.98917 15.5969 6.93179 15.6764 6.87441C17.6526 5.47425 19.9128 4.49874 22.4229 4.01672V3.98229C22.4229 3.99376 25.6258 3.48879 28.5562 3.93638C29.567 4.08558 30.5438 4.36102 31.3502 4.79713C31.6455 4.9578 31.9181 4.93485 32.1339 4.84304C35.2005 6.00218 37.881 7.97616 39.9254 10.501C39.9367 10.5125 39.9481 10.524 39.9594 10.5355C40.039 10.6273 40.1071 10.7191 40.1752 10.8109C40.1752 10.8109 40.1866 10.8224 40.1866 10.8339C41.2656 12.234 42.1629 13.8063 42.8216 15.4934C43.6848 17.6625 44.1391 20.0037 44.1391 22.4712Z" fill="#935737"/>
<path d="M45.8308 22.0698C45.8308 21.8862 45.8307 21.714 45.808 21.5304C45.7512 20.0384 45.5014 18.5923 45.0925 17.2151C45.0016 16.9053 44.9108 16.6184 44.8085 16.32C44.8085 16.297 44.7972 16.2626 44.7858 16.2396C44.695 15.9757 44.5927 15.7232 44.4905 15.4592C43.9226 14.0476 43.1957 12.7278 42.3098 11.5227C42.0032 11.1096 41.6851 10.7079 41.3558 10.3177C40.2995 9.07819 39.0728 7.98791 37.7213 7.06977C37.4487 6.88615 37.1761 6.70252 36.8921 6.53037C35.3588 5.58928 33.6779 4.88921 31.8833 4.44162C31.8265 4.41866 31.7697 4.40719 31.7129 4.39571C31.6107 4.37276 31.5199 4.3498 31.4176 4.32685C30.3841 4.13175 29.4187 4.0055 28.5441 3.94812C25.6819 3.75302 23.7738 4.21208 23.0583 4.41866V4.45309C20.5368 5.08431 18.2198 6.24345 16.2322 7.80428C16.0959 7.90757 15.9596 8.02234 15.8347 8.1371C15.4258 8.46993 15.0396 8.82571 14.6648 9.19296C14.5399 9.30772 14.4263 9.42249 14.3127 9.54873C13.9947 9.87008 13.6994 10.2144 13.4154 10.5587C13.3473 10.6275 13.3019 10.6964 13.2337 10.7767C12.4955 11.6949 11.8367 12.6933 11.2915 13.7492C11.2347 13.864 11.1666 13.9787 11.1098 14.0935C10.5533 15.2067 10.1103 16.3774 9.78094 17.6054C9.74686 17.766 9.70144 17.9267 9.66737 18.0874C9.33799 19.4875 9.15625 20.9451 9.15625 22.4485C9.15625 27.2572 10.9622 31.6298 13.9379 34.9236C15.9142 37.1272 18.4243 38.8372 21.2524 39.8816C21.2864 39.9045 21.3092 39.9045 21.3432 39.916C23.2741 40.6046 25.3412 40.9833 27.4992 40.9833C30.6112 40.9833 33.5416 40.1914 36.1084 38.8142C36.5287 38.5962 36.9489 38.3552 37.3464 38.0912C37.3464 38.0912 37.3464 38.0912 37.3464 38.0797C37.3805 38.0568 37.4259 38.0338 37.4487 38.0109C38.0052 37.6551 38.539 37.2649 39.0501 36.8402C39.4704 36.4959 39.8679 36.1402 40.2427 35.75C40.3563 35.6467 40.4698 35.5434 40.5834 35.4171L40.5948 35.4057C40.9696 35.0384 41.3103 34.6482 41.6397 34.2465C41.6511 34.235 41.6624 34.2236 41.6624 34.2121C41.7192 34.1547 41.7646 34.0858 41.8101 34.0285C41.9236 33.8907 42.0372 33.7415 42.1508 33.5924C42.1849 33.5464 42.2189 33.5005 42.253 33.4546V33.4432C42.253 33.4317 42.2644 33.4317 42.2757 33.4202C42.537 33.0644 42.7868 32.6972 43.0254 32.3184C43.6614 31.3085 44.1952 30.2412 44.6155 29.1165C44.729 28.8066 44.8426 28.5197 44.9335 28.2098C44.9448 28.1524 44.9789 28.0836 44.9903 28.0262C45.013 27.9688 45.0243 27.9114 45.0357 27.854C45.4673 26.4309 45.7285 24.9389 45.808 23.4011C45.8307 23.0797 45.8308 22.7699 45.8308 22.4485V22.2764C45.8308 22.1845 45.8308 22.1157 45.8308 22.0698Z" fill="#CC804D"/>
<path d="M27.4991 39.7088C18.0607 39.7088 10.3828 31.9506 10.3828 22.4135C10.3828 12.8764 18.0607 5.11816 27.4991 5.11816C36.9375 5.11816 44.6154 12.8764 44.6154 22.4135C44.604 31.9506 36.9375 39.7088 27.4991 39.7088Z" fill="#A8633F"/>
<mask id="mask0" mask-type="alpha" maskUnits="userSpaceOnUse" x="10" y="5" width="35" height="35">
<path d="M27.4991 39.7088C18.0607 39.7088 10.3828 31.9506 10.3828 22.4135C10.3828 12.8764 18.0607 5.11816 27.4991 5.11816C36.9375 5.11816 44.6154 12.8764 44.6154 22.4135C44.604 31.9506 36.9375 39.7088 27.4991 39.7088Z" fill="url(#paint1_linear)"/>
</mask>
<g mask="url(#mask0)">
<path opacity="0.3" d="M27.4991 39.7088C18.0607 39.7088 10.3828 31.9506 10.3828 22.4135C10.3828 12.8764 18.0607 5.11816 27.4991 5.11816C36.9375 5.11816 44.6154 12.8764 44.6154 22.4135C44.604 31.9506 36.9375 39.7088 27.4991 39.7088Z" fill="url(#paint2_linear)"/>
</g>
<mask id="mask1" mask-type="alpha" maskUnits="userSpaceOnUse" x="10" y="5" width="35" height="35">
<path d="M44.6154 22.4137C44.6154 31.9508 36.9375 39.7091 27.4991 39.7091C20.4686 39.7091 14.4262 35.4053 11.7912 29.2768C10.8826 27.1766 10.3828 24.8583 10.3828 22.4252C10.3828 12.8881 18.0607 5.12988 27.4991 5.12988C30.2591 5.12988 32.8713 5.79553 35.1884 6.97763C40.7651 9.81236 44.6154 15.6769 44.6154 22.4137Z" fill="url(#paint3_linear)"/>
</mask>
<g mask="url(#mask1)">
<path d="M44.6154 22.4137C44.6154 31.9508 36.9375 39.7091 27.4991 39.7091C20.4686 39.7091 14.4262 35.4053 11.7912 29.2768C10.8826 27.1766 10.3828 24.8583 10.3828 22.4252C10.3828 12.8881 18.0607 5.12988 27.4991 5.12988C30.2591 5.12988 32.8713 5.79553 35.1884 6.97763C40.7651 9.81236 44.6154 15.6769 44.6154 22.4137Z" fill="url(#paint4_linear)"/>
<path d="M33.4511 21.6915C32.8832 21.1291 32.1108 20.67 31.1227 20.3946C30.9183 20.3372 30.7025 20.2913 30.4867 20.2569V20.0847C30.9637 19.947 31.4067 19.7749 31.8155 19.5798C32.2926 19.3273 32.7128 19.0404 33.0762 18.6961C33.8031 17.9845 34.2347 17.0664 34.2347 15.9761C34.2347 14.6104 33.3829 13.4971 32.4402 12.8659C31.2817 12.0855 29.7711 11.833 27.6926 11.833C25.5687 11.833 23.5697 12.2003 22.2409 12.7282C22.2295 12.8659 21.6048 13.3824 21.6048 13.5201C21.6048 13.6119 21.5935 13.6808 21.5935 13.7726C21.5935 13.8299 21.6048 13.8873 21.6048 13.9562C21.6389 15.0694 22.0705 15.999 22.0251 17.1811C22.4339 17.2385 22.752 17.514 23.0927 17.7664C23.4107 18.0189 23.7401 18.2485 24.1376 18.2829C24.2398 18.2829 24.6828 17.491 24.7737 17.491L24.8418 17.227L25.2734 15.3334L25.3529 14.9891C25.387 14.8743 25.4097 14.8284 25.4892 14.771C25.5119 14.7481 25.5233 14.7366 25.546 14.7251C25.9095 14.4726 26.466 14.3579 27.0339 14.3579C27.8289 14.3579 28.499 14.4497 29.0215 15.0235C29.4077 15.4137 29.544 15.999 29.544 16.504C29.544 17.3074 29.3168 17.996 28.6694 18.5124C28.2492 18.8452 27.6699 19.1092 26.8521 19.2814C26.1707 19.4306 25.3188 19.5109 24.2853 19.5109C24.2853 19.5338 24.2626 19.5568 24.2398 19.6027C24.1035 19.7978 23.6379 20.211 23.6379 20.3143C23.6492 21.0029 24.2626 21.3586 24.3421 22.0243C24.3534 22.0472 24.3534 22.0817 24.3534 22.1046H25.8981C26.2048 22.1046 26.4887 22.1276 26.7613 22.162C28.5104 22.3801 29.6916 23.3211 29.6916 24.9508C29.6916 25.0082 29.6916 25.0656 29.6916 25.123C29.6689 25.5476 29.5667 25.9608 29.3622 26.3166C29.2714 26.4772 29.1691 26.6264 29.0329 26.7641C28.9874 26.8101 28.942 26.856 28.8966 26.8904C28.8625 26.9248 28.8284 26.9478 28.783 26.9822C28.2605 27.3954 27.4655 27.6134 26.4433 27.6134C26.0571 27.6134 25.5346 27.4987 25.2621 27.3609C25.1712 27.3036 25.0917 27.2462 25.069 27.1084L24.4329 24.4918C24.3989 24.5032 24.3761 24.5032 24.3421 24.5032C23.6379 24.6065 22.9223 24.7213 22.2522 24.8361C22.0137 24.882 21.7866 24.9164 21.5708 24.9623C21.5821 25.1 20.9234 25.6165 20.9347 25.7657C21.0824 27.2117 21.9456 28.3135 22.15 29.7825C22.4567 29.8514 22.7974 29.8973 23.1495 29.9432C23.1609 29.9432 23.1608 29.9432 23.1608 29.9432C24.1035 30.058 25.1485 30.0924 25.8981 30.0924C26.4206 30.0924 26.9203 30.0694 27.3973 30.0465C29.0328 29.9432 30.4185 29.6448 31.4294 29.1742C31.7701 29.0136 32.0654 28.8414 32.3153 28.6463C32.4856 28.5201 32.6447 28.3938 32.8037 28.2561C32.8377 28.2332 32.8604 28.2102 32.8832 28.1873C33.0308 28.061 33.1558 27.9348 33.292 27.8085C33.6328 27.4642 33.9167 27.0855 34.1325 26.6494C34.4506 26.0411 34.6323 25.341 34.6323 24.5032C34.6436 23.4703 34.2575 22.4719 33.4511 21.6915Z" fill="#5D2A14"/>
<path d="M32.9856 22.6549C32.2928 21.8859 31.2592 21.3006 29.8508 21.0367V20.8645C30.3052 20.7383 30.7254 20.5776 31.1229 20.3825C31.9748 19.9693 32.6449 19.384 33.0765 18.6725C33.4172 18.1101 33.5989 17.4674 33.5989 16.7444C33.5989 15.3787 32.7471 14.2654 31.8044 13.6227C30.6459 12.8423 29.1353 12.5898 27.0682 12.5898C24.9443 12.5898 22.9339 12.9456 21.6164 13.4735C21.6164 13.5654 21.605 13.6342 21.605 13.726C21.605 13.7719 21.5937 13.8293 21.5937 13.8752C21.5255 14.8048 21.4801 15.7459 21.446 16.687C21.4233 17.1002 21.412 17.5133 21.4006 17.9265C21.8663 18.0068 22.3547 18.0642 22.8544 18.1101C23.286 18.156 23.729 18.2019 24.1606 18.2364L24.4899 16.8133L24.7398 15.7344C24.7625 15.6197 24.7966 15.5623 24.8761 15.5164C24.9897 15.4246 25.1373 15.3442 25.2963 15.2869C25.6257 15.1606 26.0119 15.1032 26.4208 15.1032C27.2158 15.1032 27.8859 15.1836 28.4084 15.7689C28.7946 16.1591 28.9309 16.7444 28.9309 17.2494C28.9309 17.6855 28.8627 18.0986 28.6924 18.4659C28.4538 18.9709 28.0336 19.384 27.3294 19.6939C26.7388 19.9579 25.9437 20.13 24.9102 20.2103C24.524 20.2448 24.1151 20.2563 23.6608 20.2563C23.6608 20.5776 23.6722 20.9219 23.6722 21.2662C23.6835 21.7941 23.7063 22.345 23.7403 22.8385H25.285C27.4884 22.8385 29.0899 23.7911 29.0899 25.6847C29.0899 26.0061 29.0444 26.3045 28.9536 26.5914C28.9195 26.7061 28.8741 26.8209 28.8173 26.9242C28.6923 27.1882 28.5106 27.4292 28.2948 27.6358C27.7724 28.1063 26.9432 28.3588 25.8415 28.3588H25.8074C25.4213 28.3588 24.9329 28.244 24.6603 28.1063C24.5694 28.0489 24.4899 27.9915 24.4672 27.8538L24.1946 26.7061L23.8425 25.2371C23.7971 25.2486 23.7858 25.2486 23.7744 25.2486C23.4677 25.2945 23.1611 25.3404 22.8544 25.3863C22.1956 25.4896 21.5483 25.6044 20.9463 25.7191C21.0939 27.1767 21.2757 28.6457 21.4688 30.1262C21.4801 30.2524 21.5028 30.3902 21.5142 30.5279C22.65 30.7804 24.2174 30.8377 25.2623 30.8377C26.2731 30.8377 27.2158 30.7804 28.0677 30.6541C29.635 30.4246 30.8844 29.9999 31.6908 29.3917C31.7022 29.3917 31.7022 29.3917 31.7022 29.3917C32.1338 29.0589 32.5427 28.7031 32.8948 28.3014C33.031 28.1292 33.1673 27.9571 33.2923 27.762C33.5649 27.3488 33.7693 26.8783 33.8829 26.3389C33.951 26.0061 33.9965 25.6388 33.9965 25.2486C34.0078 24.3305 33.6671 23.4123 32.9856 22.6549Z" fill="#843C1D"/>
<path opacity="0.6" d="M44.6047 22.4138C44.6047 31.6984 37.3129 39.3074 28.2153 39.6976C36.9608 38.9402 43.4689 31.5033 43.4689 22.4711C43.4689 12.934 36.1658 5.1758 26.7274 5.1758C26.4662 5.1758 26.205 5.1758 25.9551 5.19876C26.4662 5.15285 26.9773 5.1299 27.4997 5.1299C36.9381 5.11842 44.6047 12.8766 44.6047 22.4138Z" fill="#843C1D"/>
<path d="M41.4234 29.9082C41.4234 29.9082 40.935 31.1243 40.2762 31.457C39.9582 31.6176 39.6402 31.675 39.3789 31.6521C39.095 31.6176 38.8678 31.48 38.777 31.239C38.6066 30.7801 39.0155 30.1377 39.6743 29.8164C39.8219 29.7476 39.9923 29.7017 40.174 29.6902C40.776 29.6558 41.4234 29.9082 41.4234 29.9082Z" fill="#5D2A14"/>
<path d="M37.8799 30.9407C37.755 31.0439 37.6073 31.0669 37.4483 31.0325C37.1417 30.9636 36.7782 30.6653 36.5056 30.2179C36.1535 29.6328 36.1876 28.5773 36.2103 28.279C36.2103 28.2217 36.2103 28.1987 36.2103 28.1987C36.2103 28.1987 37.3234 28.497 37.7436 29.1854C38.1639 29.8508 38.2207 30.6539 37.8799 30.9407Z" fill="#5D2A14"/>
<path d="M39.6292 33.1219C39.6292 33.1219 38.9705 34.2233 38.2663 34.4183C38.0505 34.4757 37.846 34.4986 37.6643 34.4757C37.2327 34.4413 36.892 34.2233 36.8238 33.8906C36.7216 33.4087 37.2213 32.8581 37.9255 32.6745C37.9823 32.663 38.0278 32.6516 38.0845 32.6516C38.766 32.5712 39.6292 33.1219 39.6292 33.1219Z" fill="#5D2A14"/>
<path d="M35.6994 33.5465C35.6199 33.5694 35.5404 33.5694 35.4609 33.535C35.1202 33.4317 34.7908 32.9153 34.6659 32.2496C34.5409 31.6184 34.8362 30.7691 34.9725 30.4134C35.018 30.3101 35.0407 30.2412 35.0407 30.2412C35.0407 30.2412 35.972 31.0101 36.1424 31.8479C36.3014 32.6743 36.1083 33.4317 35.6994 33.5465Z" fill="#5D2A14"/>
<path d="M42.7529 25.7422C42.7529 25.7422 42.4576 27.0386 41.8556 27.509C41.4808 27.7958 41.0719 27.922 40.7766 27.8761C40.5949 27.8532 40.4359 27.7614 40.345 27.6008C40.1179 27.1878 40.4132 26.4765 41.0151 26.0061C41.2991 25.7767 41.708 25.7193 42.0487 25.6963C42.4462 25.6849 42.7529 25.7422 42.7529 25.7422Z" fill="#5D2A14"/>
<path d="M39.6409 27.5666C39.5159 27.7732 39.2774 27.8535 38.9935 27.819C38.7209 27.7846 38.4256 27.647 38.1416 27.406C37.5624 26.9127 37.3125 25.5934 37.3125 25.5934C37.3125 25.5934 37.4034 25.5819 37.5397 25.5819C37.551 25.5819 37.5624 25.5819 37.5851 25.5819C37.9599 25.5704 38.63 25.6048 39.0389 25.949C39.6068 26.4423 39.8907 27.1651 39.6409 27.5666Z" fill="#5D2A14"/>
<path d="M41.2876 18.8788C41.0263 19.6245 40.5266 20.0834 40.1404 19.9687C40.1177 19.9572 40.095 19.9572 40.0836 19.9457C39.6975 19.7507 39.6066 18.9591 39.8905 18.179C40.0836 17.6283 40.6629 17.1808 40.9809 16.9629C41.1172 16.8711 41.2081 16.8252 41.2081 16.8252C41.2081 16.8252 41.5602 18.0987 41.2876 18.8788Z" fill="#5D2A14"/>
<path d="M39.5266 20.3017C39.4131 20.6 39.0837 20.7491 38.6748 20.7147C38.4704 20.7032 38.2546 20.6344 38.0388 20.5311C37.38 20.1984 36.8916 18.9823 36.8916 18.9823C36.8916 18.9823 37.3686 18.7873 37.8911 18.7644C38.1523 18.7529 38.4136 18.7758 38.6407 18.8906C39.2881 19.2003 39.697 19.8428 39.5266 20.3017Z" fill="#5D2A14"/>
<path d="M42.1169 23.2621C41.742 23.7898 41.2537 24.0767 40.9129 23.9964C40.8334 23.9849 40.7653 23.939 40.6971 23.8816C40.3677 23.5719 40.4813 22.7803 40.9356 22.1263C41.2537 21.6674 41.9011 21.4265 42.2645 21.3232C42.4235 21.2773 42.5257 21.2544 42.5257 21.2544C42.5257 21.2544 42.5712 22.5967 42.1169 23.2621Z" fill="#5D2A14"/>
<path d="M39.7539 23.8593C39.6289 24.1232 39.345 24.2265 38.9929 24.192C38.7544 24.1691 38.4931 24.0658 38.2433 23.9052C37.6072 23.5037 37.2324 22.2302 37.2324 22.2302C37.2324 22.2302 37.5277 22.1499 37.9025 22.127H37.9253C38.2773 22.1155 38.6749 22.1499 38.9702 22.3449C39.6062 22.7465 39.9583 23.4234 39.7539 23.8593Z" fill="#5D2A14"/>
<path d="M39.7424 14.8378C39.6061 15.5606 39.1972 16.0769 38.8451 15.9736C38.8337 15.9736 38.8224 15.9736 38.811 15.9621C38.4817 15.836 38.3113 15.1935 38.4476 14.4937C38.5498 13.9889 38.97 13.507 39.2199 13.2546C39.3335 13.1514 39.413 13.0825 39.413 13.0825C39.413 13.0825 39.8787 14.1151 39.7424 14.8378Z" fill="#5D2A14"/>
<path d="M38.5959 16.9393C38.5277 17.2949 38.1075 17.5015 37.6191 17.4556C37.5282 17.4441 37.4374 17.4326 37.3351 17.4097C36.7218 17.2491 36.1426 16.2854 36.1426 16.2854C36.1426 16.2854 36.7218 15.9068 37.2556 15.8609C37.3806 15.8494 37.5055 15.8494 37.6305 15.8838C38.2438 16.0444 38.6754 16.5263 38.5959 16.9393Z" fill="#5D2A14"/>
<path d="M37.7784 12.0268C37.7444 12.6693 37.4604 13.1741 37.1424 13.1512C37.1083 13.1512 37.0629 13.1397 37.0288 13.1167C36.7676 12.9905 36.5972 12.5087 36.6313 11.9351C36.654 11.4991 36.9493 11.0287 37.1424 10.7649C37.2332 10.6501 37.29 10.5698 37.29 10.5698C37.29 10.5698 37.8125 11.3729 37.7784 12.0268Z" fill="#5D2A14"/>
<path d="M37.1654 14.162C37.1427 14.5406 36.6884 14.8044 36.1432 14.77C36.1319 14.77 36.1319 14.77 36.1205 14.77C35.5867 14.7127 34.9961 14.0014 34.9961 14.0014C34.9961 14.0014 35.5413 13.4966 36.041 13.4163C36.0978 13.4048 36.166 13.4048 36.2227 13.4048C36.7566 13.4507 37.1882 13.7834 37.1654 14.162Z" fill="#5D2A14"/>
<path d="M36.086 12.211C35.9837 12.406 35.7679 12.4748 35.4954 12.4404C35.3136 12.4175 35.1206 12.3372 34.9388 12.1995C34.4732 11.8668 34.2119 10.8916 34.2119 10.8916C34.2119 10.8916 34.3823 10.8572 34.6208 10.8457C34.9047 10.8228 35.2796 10.8457 35.5294 11.0293C36.0065 11.362 36.2563 11.8897 36.086 12.211Z" fill="#5D2A14"/>
<path d="M41.1641 29.9084C41.1641 29.9084 40.6757 31.1245 40.0169 31.4572C39.8011 31.5605 39.5853 31.6293 39.3809 31.6522C39.097 31.6178 38.8698 31.4802 38.7789 31.2392C38.6086 30.7803 39.0175 30.1379 39.6762 29.8166C39.8239 29.7478 39.9942 29.7019 40.1759 29.6904C40.687 29.7248 41.1641 29.9084 41.1641 29.9084Z" fill="#843C1D"/>
<path d="M37.6206 30.94C37.5639 30.9859 37.5071 31.0203 37.4503 31.0318C37.1436 30.9629 36.7802 30.6646 36.5076 30.2172C36.1555 29.6321 36.1896 28.5766 36.2123 28.2783C36.5644 28.4045 37.2004 28.7028 37.4844 29.1847C37.9046 29.8501 37.9727 30.6532 37.6206 30.94Z" fill="#843C1D"/>
<path d="M39.368 33.1217C39.368 33.1217 38.7092 34.2231 38.005 34.4182C37.8915 34.4526 37.7665 34.4755 37.6643 34.4755C37.2327 34.4411 36.892 34.2231 36.8238 33.8904C36.7216 33.4086 37.2213 32.8579 37.9255 32.6743C37.9823 32.6628 38.0278 32.6514 38.0845 32.6514C38.7092 32.6973 39.368 33.1217 39.368 33.1217Z" fill="#843C1D"/>
<path d="M35.4619 33.5332C35.1212 33.4299 34.7918 32.9136 34.6669 32.2482C34.5419 31.6172 34.8372 30.7682 34.9735 30.4126C35.2575 30.6765 35.7686 31.2501 35.8821 31.8352C36.0411 32.6498 35.8481 33.3955 35.4619 33.5332Z" fill="#843C1D"/>
<path d="M42.5034 25.7417C42.5034 25.7417 42.2081 27.0381 41.6061 27.5085C41.3335 27.7265 41.0382 27.8412 40.7883 27.8756C40.6066 27.8527 40.4476 27.7609 40.3567 27.6003C40.1296 27.1872 40.4249 26.4759 41.0268 26.0056C41.3108 25.7761 41.7197 25.7187 42.0604 25.6958C42.3216 25.7073 42.5034 25.7417 42.5034 25.7417Z" fill="#843C1D"/>
<path d="M39.3796 27.5663C39.3001 27.704 39.1638 27.7843 38.9935 27.8187C38.7209 27.7843 38.4256 27.6466 38.1416 27.4057C37.5624 26.9124 37.3125 25.593 37.3125 25.593C37.3125 25.593 37.4034 25.5815 37.5397 25.5815C37.551 25.5815 37.5624 25.5815 37.5851 25.5815C37.9599 25.593 38.4596 25.6733 38.7777 25.9487C39.3455 26.442 39.6181 27.1648 39.3796 27.5663Z" fill="#843C1D"/>
<path d="M41.0273 18.8778C40.8229 19.4515 40.4708 19.8645 40.1414 19.9677C40.1187 19.9563 40.096 19.9563 40.0846 19.9448C39.6985 19.7498 39.6076 18.9582 39.8915 18.178C40.0846 17.6273 40.6639 17.1799 40.9819 16.9619C41.0614 17.3176 41.2431 18.2583 41.0273 18.8778Z" fill="#843C1D"/>
<path d="M39.2664 20.3015C39.1755 20.5424 38.9597 20.6801 38.6758 20.7145C38.4713 20.703 38.2555 20.6342 38.0397 20.5309C37.381 20.1982 36.8926 18.9821 36.8926 18.9821C36.8926 18.9821 37.3696 18.7871 37.8921 18.7642C38.0624 18.7756 38.2328 18.81 38.3805 18.8904C39.0279 19.2001 39.4367 19.8426 39.2664 20.3015Z" fill="#843C1D"/>
<path d="M41.8556 23.2631C41.5717 23.6761 41.2196 23.94 40.9129 23.9973C40.8334 23.9859 40.7653 23.94 40.6971 23.8826C40.3677 23.5729 40.4813 22.7812 40.9356 22.1273C41.2537 21.6684 41.9011 21.4275 42.2645 21.3242C42.2645 21.5996 42.2532 22.6895 41.8556 23.2631Z" fill="#843C1D"/>
<path d="M39.4946 23.8588C39.4037 24.0424 39.222 24.1571 38.9948 24.1915C38.7563 24.1686 38.4951 24.0653 38.2452 23.9047C37.6092 23.5032 37.2344 22.2297 37.2344 22.2297C37.2344 22.2297 37.5297 22.1494 37.9045 22.1265H37.9272C38.1998 22.1379 38.4837 22.1953 38.7109 22.3444C39.3469 22.746 39.699 23.4229 39.4946 23.8588Z" fill="#843C1D"/>
<path d="M39.4831 14.8376C39.3695 15.4112 39.0969 15.8587 38.813 15.9619C38.4836 15.8357 38.3132 15.1933 38.4495 14.4934C38.5518 13.9886 38.972 13.5068 39.2219 13.2544C39.3354 13.5871 39.5853 14.2984 39.4831 14.8376Z" fill="#843C1D"/>
<path d="M38.3239 16.9388C38.2671 17.2256 37.9832 17.4206 37.6084 17.455C37.5175 17.4436 37.4266 17.4321 37.3244 17.4092C36.7111 17.2485 36.1318 16.2848 36.1318 16.2848C36.1318 16.2848 36.7111 15.9062 37.2449 15.8604C37.279 15.8604 37.3131 15.8718 37.3585 15.8833C37.9832 16.0439 38.4148 16.5258 38.3239 16.9388Z" fill="#843C1D"/>
<path d="M37.5172 12.0266C37.4831 12.5659 37.2787 13.0018 37.0288 13.1165C36.7676 12.9903 36.5972 12.5085 36.6313 11.9349C36.654 11.4989 36.9493 11.0285 37.1424 10.7646C37.2787 11.04 37.5399 11.5677 37.5172 12.0266Z" fill="#843C1D"/>
<path d="M36.9042 14.1608C36.8929 14.482 36.5521 14.7229 36.1205 14.7688C35.5867 14.7114 34.9961 14.0001 34.9961 14.0001C34.9961 14.0001 35.5413 13.4953 36.041 13.415C36.5408 13.4839 36.9269 13.8051 36.9042 14.1608Z" fill="#843C1D"/>
<path d="M35.8257 12.2095C35.7576 12.3357 35.644 12.416 35.4963 12.4389C35.3146 12.416 35.1215 12.3357 34.9398 12.198C34.4741 11.8653 34.2129 10.8901 34.2129 10.8901C34.2129 10.8901 34.3833 10.8557 34.6218 10.8442C34.8489 10.8557 35.0875 10.9016 35.2692 11.0278C35.7462 11.3605 35.9961 11.8882 35.8257 12.2095Z" fill="#843C1D"/>
<path d="M16.1308 31.0101C15.9604 31.4919 15.2903 31.5952 14.6315 31.2395C14.6088 31.228 14.5861 31.2166 14.5634 31.1936C13.9387 30.7921 13.4844 29.6104 13.4844 29.6104C13.4844 29.6104 14.4498 29.2088 15.1199 29.4612C15.1653 29.4727 15.1994 29.4957 15.2335 29.5071C15.8922 29.8628 16.3011 30.5282 16.1308 31.0101Z" fill="#5D2A14"/>
<path d="M18.403 29.9193C17.9828 30.6421 17.3694 30.9863 17.0173 30.688C17.006 30.6765 16.9946 30.665 16.9946 30.665C16.6766 30.3438 16.7448 29.5407 17.1536 28.8294C17.449 28.3131 18.0963 28.0149 18.4371 27.8772C18.5847 27.8198 18.6869 27.7969 18.6869 27.7969C18.6869 27.7969 18.8232 29.1965 18.403 29.9193Z" fill="#5D2A14"/>
<path d="M18.0847 33.7875C17.9938 34.2923 17.3464 34.5447 16.6423 34.3382C16.54 34.3038 16.4378 34.2579 16.3242 34.1891C15.7563 33.8105 15.2793 32.9844 15.2793 32.9844C15.2793 32.9844 16.2901 32.3075 16.983 32.5026C17.0625 32.5255 17.1193 32.5485 17.1874 32.5714C17.778 32.8238 18.1642 33.3286 18.0847 33.7875Z" fill="#5D2A14"/>
<path d="M20.2543 32.0658C20.084 32.938 19.6297 33.5463 19.2208 33.4201C19.1526 33.3971 19.0845 33.3627 19.0277 33.3053C18.7437 33.0298 18.6302 32.3642 18.7665 31.6412C18.8914 30.9985 19.4479 30.3787 19.7205 30.1033C19.8114 30.0115 19.8682 29.9541 19.8682 29.9541C19.8682 29.9541 20.4247 31.1936 20.2543 32.0658Z" fill="#5D2A14"/>
<path d="M14.5524 27.1876C14.3479 27.5662 13.8141 27.5777 13.2803 27.2564H13.269C13.1895 27.2105 13.1213 27.1532 13.0418 27.0958C12.4398 26.6025 12.1445 25.2372 12.1445 25.2372C12.1445 25.2372 12.9169 25.0996 13.5302 25.329C13.6551 25.3749 13.7687 25.4323 13.8823 25.5241C14.4842 26.0174 14.7795 26.7631 14.5524 27.1876Z" fill="#5D2A14"/>
<path d="M17.6075 25.0877C17.6075 25.0877 17.3577 26.4644 16.7671 26.9807C16.2559 27.4396 15.6653 27.5543 15.37 27.2904C15.3246 27.256 15.2905 27.2101 15.2678 27.1642C15.0179 26.7398 15.3019 25.9826 15.8811 25.4548C16.2786 25.0992 16.9488 25.0533 17.3236 25.0762C17.4939 25.0762 17.6075 25.0877 17.6075 25.0877Z" fill="#5D2A14"/>
<path d="M14.8358 19.1664C14.6654 19.2582 14.4724 19.2123 14.2793 19.0631C14.0294 18.8794 13.7795 18.5122 13.6205 18.0531C13.3593 17.3071 13.6432 16.1365 13.7 15.9299C13.7114 15.907 13.7114 15.8955 13.7114 15.8955C13.7114 15.8955 14.7449 16.4923 15.0289 17.3186C15.3015 18.1335 15.222 18.9598 14.8358 19.1664Z" fill="#5D2A14"/>
<path d="M18.0276 18.1448C18.0276 18.1448 17.5393 19.4183 16.8692 19.7624C16.3581 20.0378 15.8469 20.0263 15.563 19.7969C15.4721 19.728 15.4153 19.6362 15.3699 19.5215C15.2109 19.0397 15.6084 18.3743 16.2785 18.0301C16.7329 17.7891 17.3916 17.9268 17.7551 18.0415C17.9254 18.0989 18.0276 18.1448 18.0276 18.1448Z" fill="#5D2A14"/>
<path d="M14.2003 23.2847C14.0073 23.4797 13.7006 23.4568 13.3939 23.2503C13.1895 23.1241 12.9737 22.9061 12.792 22.6307C12.3377 21.9424 12.3831 20.5312 12.3831 20.5312C12.3831 20.5312 12.7238 20.6001 13.11 20.7722C13.428 20.9213 13.7687 21.1278 13.9732 21.4376C14.4275 22.1374 14.5297 22.9634 14.2003 23.2847Z" fill="#5D2A14"/>
<path d="M17.6764 21.5422C17.6764 21.5422 17.3016 22.873 16.6656 23.309C16.1545 23.6532 15.6093 23.7106 15.314 23.4696C15.2458 23.4237 15.2004 23.3549 15.155 23.2631C14.9505 22.8157 15.2913 22.0929 15.9273 21.657C16.3589 21.3587 17.029 21.416 17.3925 21.4849C17.5628 21.5193 17.6764 21.5422 17.6764 21.5422Z" fill="#5D2A14"/>
<path d="M16.0624 15.0092C15.9261 15.0437 15.7898 14.9978 15.6648 14.883C15.4377 14.688 15.2446 14.2979 15.1537 13.8161C15.0401 13.1851 15.3468 12.3361 15.4604 12.0723C15.4831 12.0149 15.4945 11.9805 15.4945 11.9805C15.4945 11.9805 16.3122 12.6918 16.4485 13.4604C16.6075 14.2062 16.4258 14.8945 16.0624 15.0092Z" fill="#5D2A14"/>
<path d="M18.7778 15.3334C18.7778 15.3334 18.1986 16.3429 17.5739 16.515C17.165 16.6298 16.7902 16.5724 16.5517 16.3888C16.4267 16.2971 16.3472 16.1709 16.3131 16.0217C16.2336 15.5858 16.6652 15.081 17.2786 14.9089C17.5966 14.8171 17.9941 14.9433 18.3008 15.0695C18.5847 15.1957 18.7778 15.3334 18.7778 15.3334Z" fill="#5D2A14"/>
<path d="M17.7779 12.0269C17.6757 12.0384 17.5734 11.9925 17.4939 11.9007C17.3008 11.7056 17.1645 11.3156 17.1418 10.8567C17.1191 10.3404 17.4258 9.72088 17.5734 9.46848C17.6189 9.38818 17.6416 9.34229 17.6416 9.34229C17.6416 9.34229 18.2549 10.088 18.3003 10.7649C18.323 11.4303 18.0959 12.0039 17.7779 12.0269Z" fill="#5D2A14"/>
<path d="M19.9364 12.923C19.9364 12.923 19.3231 13.6917 18.7779 13.7261C18.4826 13.749 18.21 13.6802 18.017 13.5425C17.858 13.4278 17.7557 13.2786 17.7557 13.0951C17.733 12.705 18.1646 12.3494 18.7098 12.3035C18.8461 12.292 18.9937 12.3264 19.1414 12.3838C19.5503 12.5559 19.9364 12.923 19.9364 12.923Z" fill="#5D2A14"/>
<path d="M20.7085 9.664C20.7085 9.664 20.4472 10.6851 19.9702 11.0407C19.5613 11.339 19.1184 11.3849 18.9026 11.1669C18.8685 11.1325 18.8458 11.0981 18.8231 11.0522C18.6527 10.7195 18.9026 10.1573 19.3796 9.81315C19.6749 9.59517 20.1292 9.59517 20.4245 9.62958C20.5949 9.64106 20.7085 9.664 20.7085 9.664Z" fill="#5D2A14"/>
<path d="M15.8692 30.8836C15.7215 31.3196 15.1536 31.4458 14.5516 31.2048C13.927 30.8033 13.4727 29.6216 13.4727 29.6216C13.4727 29.6216 14.4381 29.2201 15.1082 29.4725C15.6874 29.8281 16.0282 30.4362 15.8692 30.8836Z" fill="#843C1D"/>
<path d="M18.1515 29.7929C17.8108 30.378 17.3451 30.7107 17.0044 30.6648C16.6864 30.3436 16.7545 29.5405 17.1634 28.8292C17.4587 28.3129 18.1061 28.0146 18.4469 27.877C18.4696 28.3014 18.4582 29.2422 18.1515 29.7929Z" fill="#843C1D"/>
<path d="M17.8215 33.6496C17.7306 34.1544 17.0832 34.4068 16.3791 34.2003C16.3677 34.1888 16.3336 34.1888 16.3223 34.1773C15.7544 33.7987 15.2773 32.9727 15.2773 32.9727C15.2773 32.9727 16.2882 32.2958 16.981 32.4909C17.0605 32.5138 17.1173 32.5368 17.1855 32.5597C17.6284 32.8465 17.901 33.271 17.8215 33.6496Z" fill="#843C1D"/>
<path d="M19.9921 31.9391C19.8445 32.7537 19.4129 33.3388 19.0267 33.3044C18.7428 33.029 18.6292 32.3636 18.7655 31.6408C18.8904 30.9984 19.447 30.3789 19.7195 30.1035C19.8672 30.5165 20.1171 31.3196 19.9921 31.9391Z" fill="#843C1D"/>
<path d="M14.2898 27.0609C14.1195 27.3821 13.7106 27.4395 13.2676 27.2559H13.2563C13.1767 27.2101 13.1086 27.1527 13.0291 27.0953C12.4271 26.602 12.1318 25.2368 12.1318 25.2368C12.1318 25.2368 12.9042 25.0991 13.5175 25.3285C13.5516 25.3515 13.5743 25.3744 13.6083 25.3859C14.2217 25.8792 14.517 26.6249 14.2898 27.0609Z" fill="#843C1D"/>
<path d="M17.3226 25.0762C17.2431 25.4204 16.9932 26.43 16.5162 26.8545C16.1187 27.1987 15.6871 27.3478 15.369 27.2904C15.3236 27.256 15.2895 27.2101 15.2668 27.1642C15.017 26.7398 15.3009 25.9826 15.8801 25.4548C16.2777 25.0992 16.9478 25.0533 17.3226 25.0762Z" fill="#843C1D"/>
<path d="M14.5746 19.0271C14.4837 19.0729 14.3815 19.0844 14.2793 19.05C14.0294 18.8664 13.7795 18.4993 13.6205 18.0404C13.3593 17.2947 13.6432 16.1245 13.7 15.918C14.0294 16.1589 14.5746 16.6178 14.7677 17.18C15.0516 17.9945 14.9607 18.832 14.5746 19.0271Z" fill="#843C1D"/>
<path d="M17.7541 18.0523C17.6632 18.2703 17.2089 19.3258 16.6183 19.647C16.2435 19.842 15.8573 19.8994 15.562 19.8076C15.4712 19.7388 15.4144 19.647 15.3689 19.5323C15.2099 19.0504 15.6075 18.385 16.2776 18.0408C16.7319 17.7999 17.3906 17.9376 17.7541 18.0523Z" fill="#843C1D"/>
<path d="M13.9378 23.1585C13.8015 23.2962 13.597 23.3306 13.3813 23.2503C13.1768 23.1241 12.961 22.9061 12.7793 22.6307C12.325 21.9424 12.3704 20.5312 12.3704 20.5312C12.3704 20.5312 12.7111 20.6001 13.0973 20.7722C13.3245 20.9098 13.5516 21.0819 13.6993 21.3114C14.1649 22.0112 14.2785 22.8372 13.9378 23.1585Z" fill="#843C1D"/>
<path d="M17.3901 21.4844C17.2993 21.7597 16.9472 22.8037 16.402 23.1823C16.0158 23.4462 15.607 23.5495 15.3003 23.4692C15.2322 23.4233 15.1867 23.3544 15.1413 23.2626C14.9369 22.8152 15.2776 22.0924 15.9136 21.6565C16.3566 21.3697 17.0267 21.4155 17.3901 21.4844Z" fill="#843C1D"/>
<path d="M15.8119 14.8731C15.7664 14.8845 15.721 14.8845 15.6756 14.8845C15.4484 14.6895 15.2553 14.2994 15.1645 13.8176C15.0509 13.1866 15.3575 12.3376 15.4711 12.0737C15.721 12.3376 16.1185 12.8309 16.2094 13.3242C16.3457 14.07 16.1639 14.7813 15.8119 14.8731Z" fill="#843C1D"/>
<path d="M18.5269 15.2062C18.5269 15.2062 17.9477 16.2158 17.323 16.3764C17.0391 16.4567 16.7779 16.4452 16.5507 16.3879C16.4258 16.2961 16.3462 16.1699 16.3122 16.0207C16.2327 15.5848 16.6643 15.08 17.2776 14.9079C17.5956 14.8161 17.9931 14.9423 18.2998 15.0685C18.4361 15.1488 18.5269 15.2062 18.5269 15.2062Z" fill="#843C1D"/>
<path d="M17.5153 11.9005H17.4812C17.2881 11.7054 17.1518 11.3154 17.1291 10.8564C17.1064 10.3402 17.4131 9.72066 17.5607 9.46826C17.7425 9.7436 18.0037 10.2025 18.0264 10.6385C18.0718 11.3039 17.8333 11.8775 17.5153 11.9005Z" fill="#843C1D"/>
<path d="M19.6739 12.7953C19.6739 12.7953 19.0606 13.5525 18.5154 13.5984C18.3337 13.6099 18.1633 13.5869 18.0043 13.541C17.8453 13.4263 17.743 13.2772 17.743 13.0936C17.7203 12.7035 18.1519 12.3479 18.6971 12.302C18.8334 12.2905 18.9811 12.3249 19.1287 12.3823C19.4354 12.5659 19.6739 12.7953 19.6739 12.7953Z" fill="#843C1D"/>
<path d="M20.4226 9.62861C20.3544 9.88101 20.1045 10.6267 19.7184 10.9135C19.4344 11.12 19.1391 11.2118 18.9006 11.1659C18.8665 11.1315 18.8438 11.0971 18.8211 11.0512C18.6507 10.7185 18.9006 10.1563 19.3776 9.81217C19.6729 9.59419 20.1273 9.59419 20.4226 9.62861Z" fill="#843C1D"/>
<path opacity="0.2" d="M44.6162 22.4141C44.6162 31.9512 36.9383 39.7095 27.4999 39.7095C27.0342 39.7095 26.5686 39.6865 26.1142 39.6521C19.6857 39.1241 14.2453 35.004 11.792 29.2772C37.1881 35.268 35.7116 11.7179 35.2573 7.54037C35.2573 7.54037 35.3822 7.16164 35.3595 7.06982C38.4829 8.66508 40.8681 11.0981 42.5377 14.1854C43.8552 16.6299 44.6162 19.4417 44.6162 22.4141Z" fill="#843C1D"/>
<path opacity="0.2" d="M44.6152 22.4139C44.6152 31.951 36.9373 39.7092 27.4989 39.7092C27.0333 39.7092 26.5676 39.6863 26.1133 39.6518C37.721 35.5891 41.2419 23.091 42.2982 16.0329L43.0819 15.2754C44.036 17.4674 44.6152 19.4414 44.6152 22.4139Z" fill="#A8633F"/>
</g>
</g>
<defs>
<filter id="filter0_d" x="0" y="0" width="52.9999" height="54" filterUnits="userSpaceOnUse" color-interpolation-filters="sRGB">
<feFlood flood-opacity="0" result="BackgroundImageFix"/>
<feColorMatrix in="SourceAlpha" type="matrix" values="0 0 0 0 0 0 0 0 0 0 0 0 0 0 0 0 0 0 127 0"/>
<feOffset dy="5"/>
<feGaussianBlur stdDeviation="2"/>
<feColorMatrix type="matrix" values="0 0 0 0 0 0 0 0 0 0 0 0 0 0 0 0 0 0 0.25 0"/>
<feBlend mode="normal" in2="BackgroundImageFix" result="effect1_dropShadow"/>
<feBlend mode="normal" in="SourceGraphic" in2="effect1_dropShadow" result="shape"/>
</filter>
<linearGradient id="paint0_linear" x1="4.77212" y1="22.3467" x2="49.0023" y2="22.3467" gradientUnits="userSpaceOnUse">
<stop stop-color="#A8633F"/>
<stop offset="0.4683" stop-color="#A6623E"/>
<stop offset="0.6999" stop-color="#9E5D3B"/>
<stop offset="0.879" stop-color="#915536"/>
<stop offset="1" stop-color="#834D31"/>
</linearGradient>
<linearGradient id="paint1_linear" x1="14.2415" y1="33.2891" x2="40.8231" y2="11.9281" gradientUnits="userSpaceOnUse">
<stop/>
<stop offset="0.1621" stop-color="#020202"/>
<stop offset="0.2313" stop-color="#090909"/>
<stop offset="0.2828" stop-color="#161616"/>
<stop offset="0.3255" stop-color="#272727"/>
<stop offset="0.3628" stop-color="#3F3F3F"/>
<stop offset="0.3963" stop-color="#5B5B5B"/>
<stop offset="0.427" stop-color="#7D7D7D"/>
<stop offset="0.4554" stop-color="#A5A5A5"/>
<stop offset="0.4811" stop-color="#D0D0D0"/>
<stop offset="0.5049" stop-color="white"/>
<stop offset="0.5347" stop-color="#DCDCDC"/>
<stop offset="0.5835" stop-color="#A9A9A9"/>
<stop offset="0.6346" stop-color="#7C7C7C"/>
<stop offset="0.687" stop-color="#565656"/>
<stop offset="0.741" stop-color="#363636"/>
<stop offset="0.7972" stop-color="#1E1E1E"/>
<stop offset="0.8565" stop-color="#0D0D0D"/>
<stop offset="0.9209" stop-color="#030303"/>
<stop offset="1"/>
</linearGradient>
<linearGradient id="paint2_linear" x1="14.2415" y1="33.2891" x2="40.8231" y2="11.9281" gradientUnits="userSpaceOnUse">
<stop stop-color="#FAFAFA"/>
<stop offset="0.431" stop-color="#FAFAFA"/>
<stop offset="0.5049" stop-color="#FAFAFA"/>
<stop offset="0.5474" stop-color="#FAFAFA"/>
<stop offset="1" stop-color="#FAFAFA"/>
</linearGradient>
<linearGradient id="paint3_linear" x1="29.1528" y1="5.2023" x2="25.7628" y2="39.6817" gradientUnits="userSpaceOnUse">
<stop/>
<stop offset="0.5049" stop-color="white"/>
<stop offset="0.5347" stop-color="#DCDCDC"/>
<stop offset="0.5835" stop-color="#A9A9A9"/>
<stop offset="0.6346" stop-color="#7C7C7C"/>
<stop offset="0.687" stop-color="#565656"/>
<stop offset="0.741" stop-color="#363636"/>
<stop offset="0.7972" stop-color="#1E1E1E"/>
<stop offset="0.8565" stop-color="#0D0D0D"/>
<stop offset="0.9209" stop-color="#030303"/>
<stop offset="1"/>
</linearGradient>
<linearGradient id="paint4_linear" x1="29.1528" y1="5.2023" x2="25.7628" y2="39.6817" gradientUnits="userSpaceOnUse">
<stop stop-color="#A8633F"/>
<stop offset="0.4683" stop-color="#A6623E"/>
<stop offset="0.6999" stop-color="#9E5D3B"/>
<stop offset="0.879" stop-color="#915536"/>
<stop offset="1" stop-color="#834D31"/>
</linearGradient>
</defs>
</svg>
