<svg width="268" height="179" viewBox="0 0 268 179" fill="none" xmlns="http://www.w3.org/2000/svg">
<g filter="url(#filter0_d)">
<path d="M129.293 4C108.592 4 89.6315 16.8358 83.6545 34.379C75.7566 30.3662 66.7181 28.1883 57.8598 28.1883C48.7527 28.1883 40.0401 30.4434 32.6567 34.722C15.6518 44.5568 6.46752 65.5641 11.2697 83.5788C15.6003 99.7758 31.4133 111.994 48.0581 111.994C49.5331 111.994 50.9995 111.891 52.4487 111.694C52.4658 112.226 52.4916 112.766 52.5259 113.315C51.9599 115.853 51.6941 118.417 51.7455 120.937C52.1743 143.9 76.3997 161.889 106.894 161.889C107.365 161.889 107.846 161.88 108.317 161.872C125.348 161.554 141.152 155.458 151.503 145.383C156.014 153.58 165.481 158.45 177.049 158.45C183.961 158.45 191.147 156.701 197.836 153.383C213.048 145.837 222.524 131.647 221.349 118.76C225.903 117.782 230.233 116.213 234.264 114.104C237.068 113.169 239.623 111.506 241.87 109.173C252.426 100.848 258.661 88.7406 258.987 75.9048C259.613 50.9362 238.123 30.0661 211.067 29.3802C210.613 29.3716 210.158 29.363 209.704 29.363C199.954 29.363 190.658 31.9696 182.623 36.9171C171.115 18.6879 153.467 6.58089 134.935 4.3344C133.092 4.12004 131.188 4 129.293 4Z" fill="url(#paint0_linear)"/>
<path d="M9.3376 84.0954L9.33722 84.094C4.28571 65.144 13.9251 43.246 31.6539 32.9916C39.3633 28.5241 48.4259 26.1883 57.8598 26.1883C66.2907 26.1883 74.8682 28.0908 82.5483 31.6227C89.5766 14.2796 108.669 2 129.293 2C131.271 2 133.252 2.12523 135.166 2.34776L135.176 2.34894C153.839 4.61142 171.475 16.4763 183.259 34.2198C191.22 29.7196 200.266 27.363 209.704 27.363C210.18 27.363 210.654 27.372 211.105 27.3805L211.118 27.3808C239.124 28.0909 261.643 49.7348 260.986 75.9549L260.986 75.9555C260.645 89.3748 254.148 101.989 243.215 110.66C240.831 113.107 238.091 114.906 235.051 115.949C231.397 117.847 227.509 119.318 223.441 120.328C223.755 133.768 213.763 147.715 198.724 155.175C191.781 158.619 184.293 160.45 177.049 160.45C165.948 160.45 156.405 156.149 151.084 148.496C140.339 157.967 124.852 163.564 108.355 163.871L108.354 163.871C107.885 163.88 107.386 163.889 106.894 163.889C75.8578 163.889 50.2051 145.503 49.7459 120.977C49.6982 118.634 49.9075 116.265 50.3586 113.916C49.5953 113.968 48.8281 113.994 48.0581 113.994C30.4977 113.994 13.8995 101.158 9.3376 84.0954Z" stroke="white" stroke-width="4"/>
</g>
<defs>
<filter id="filter0_d" x="0.997559" y="0" width="267.002" height="178.889" filterUnits="userSpaceOnUse" color-interpolation-filters="sRGB">
<feFlood flood-opacity="0" result="BackgroundImageFix"/>
<feColorMatrix in="SourceAlpha" type="matrix" values="0 0 0 0 0 0 0 0 0 0 0 0 0 0 0 0 0 0 127 0"/>
<feOffset dy="8"/>
<feGaussianBlur stdDeviation="2.5"/>
<feColorMatrix type="matrix" values="0 0 0 0 0.239216 0 0 0 0 0.239216 0 0 0 0 0.239216 0 0 0 0.25 0"/>
<feBlend mode="normal" in2="BackgroundImageFix" result="effect1_dropShadow"/>
<feBlend mode="normal" in="SourceGraphic" in2="effect1_dropShadow" result="shape"/>
</filter>
<linearGradient id="paint0_linear" x1="134.5" y1="161.889" x2="134.5" y2="4" gradientUnits="userSpaceOnUse">
<stop stop-color="#76019F"/>
<stop offset="1" stop-color="#FF5372"/>
</linearGradient>
</defs>
</svg>
