<svg width="268" height="179" viewBox="0 0 268 179" fill="none" xmlns="http://www.w3.org/2000/svg">
<g filter="url(#filter0_d)">
<path d="M138.707 4C159.408 4 178.368 16.8358 184.346 34.379C192.243 30.3662 201.282 28.1883 210.14 28.1883C219.247 28.1883 227.96 30.4434 235.343 34.722C252.348 44.5568 261.532 65.5641 256.73 83.5788C252.4 99.7758 236.587 111.994 219.942 111.994C218.467 111.994 217.001 111.891 215.551 111.694C215.534 112.226 215.508 112.766 215.474 113.315C216.04 115.853 216.306 118.417 216.254 120.937C215.826 143.9 191.6 161.889 161.106 161.889C160.635 161.889 160.154 161.88 159.683 161.872C142.652 161.554 126.848 155.458 116.497 145.383C111.986 153.58 102.519 158.45 90.9511 158.45C84.0393 158.45 76.8532 156.701 70.1644 153.383C54.9517 145.837 45.4759 131.647 46.6507 118.76C42.0972 117.782 37.7666 116.213 33.7362 114.104C30.932 113.169 28.3765 111.506 26.1298 109.173C15.5735 100.848 9.33922 88.7406 9.01335 75.9048C8.38735 50.9362 29.8772 30.0661 56.9326 29.3802C57.3871 29.3716 57.8415 29.363 58.296 29.363C68.0462 29.363 77.342 31.9696 85.3771 36.9171C96.8852 18.6879 114.533 6.58089 133.065 4.3344C134.908 4.12004 136.812 4 138.707 4Z" fill="url(#paint0_linear)"/>
<path d="M258.662 84.0954L258.663 84.094C263.714 65.144 254.075 43.246 236.346 32.9916C228.637 28.5241 219.574 26.1883 210.14 26.1883C201.709 26.1883 193.132 28.0908 185.452 31.6227C178.423 14.2796 159.331 2 138.707 2C136.729 2 134.748 2.12523 132.834 2.34776L132.824 2.34894C114.161 4.61142 96.5248 16.4763 84.7412 34.2198C76.7801 29.7196 67.7342 27.363 58.2961 27.363C57.8195 27.363 57.3462 27.372 56.8948 27.3805L56.8819 27.3808C28.8761 28.0909 6.3566 49.7348 7.01398 75.9549L7.01399 75.9555C7.35468 89.3748 13.852 101.989 24.7854 110.66C27.1689 113.107 29.9088 114.906 32.9487 115.949C36.6028 117.847 40.491 119.318 44.5591 120.328C44.2455 133.768 54.2369 147.715 69.2755 155.175C76.2187 158.619 83.7074 160.45 90.9511 160.45C102.052 160.45 111.595 156.149 116.916 148.496C127.661 157.967 143.148 163.564 159.645 163.871L159.646 163.871C160.115 163.88 160.614 163.889 161.106 163.889C192.142 163.889 217.795 145.503 218.254 120.977C218.302 118.634 218.092 116.265 217.641 113.916C218.405 113.968 219.172 113.994 219.942 113.994C237.502 113.994 254.101 101.158 258.662 84.0954Z" stroke="white" stroke-width="4"/>
</g>
<defs>
<filter id="filter0_d" x="0" y="0" width="267.002" height="178.889" filterUnits="userSpaceOnUse" color-interpolation-filters="sRGB">
<feFlood flood-opacity="0" result="BackgroundImageFix"/>
<feColorMatrix in="SourceAlpha" type="matrix" values="0 0 0 0 0 0 0 0 0 0 0 0 0 0 0 0 0 0 127 0"/>
<feOffset dy="8"/>
<feGaussianBlur stdDeviation="2.5"/>
<feColorMatrix type="matrix" values="0 0 0 0 0.239216 0 0 0 0 0.239216 0 0 0 0 0.239216 0 0 0 0.25 0"/>
<feBlend mode="normal" in2="BackgroundImageFix" result="effect1_dropShadow"/>
<feBlend mode="normal" in="SourceGraphic" in2="effect1_dropShadow" result="shape"/>
</filter>
<linearGradient id="paint0_linear" x1="133.5" y1="161.889" x2="133.5" y2="4" gradientUnits="userSpaceOnUse">
<stop stop-color="#002C4D"/>
<stop offset="1" stop-color="#3864FF"/>
</linearGradient>
</defs>
</svg>
