<svg width="268" height="179" viewBox="0 0 268 179" fill="none" xmlns="http://www.w3.org/2000/svg">
<g filter="url(#filter0_d)">
<path d="M129.293 161.889C108.592 161.889 89.6315 149.053 83.6545 131.51C75.7566 135.522 66.7181 137.7 57.8598 137.7C48.7527 137.7 40.0401 135.445 32.6567 131.167C15.6518 121.332 6.46752 100.325 11.2697 82.3098C15.6003 66.1128 31.4133 53.8943 48.0581 53.8943C49.5331 53.8943 50.9995 53.9972 52.4487 54.1944C52.4658 53.6628 52.4916 53.1226 52.5259 52.5739C51.9599 50.0359 51.6941 47.4721 51.7455 44.9512C52.1743 21.9891 76.3997 4 106.894 4C107.365 4 107.846 4.00857 108.317 4.01715C125.348 4.3344 141.152 10.4308 151.503 20.5057C156.014 12.3086 165.481 7.43833 177.049 7.43833C183.961 7.43833 191.147 9.1875 197.836 12.5058C213.048 20.0512 222.524 34.2418 221.349 47.1291C225.903 48.1066 230.233 49.6757 234.264 51.785C237.068 52.7196 239.623 54.3831 241.87 56.7153C252.426 65.041 258.661 77.1481 258.987 89.9839C259.613 114.953 238.123 135.823 211.067 136.508C210.613 136.517 210.158 136.526 209.704 136.526C199.954 136.526 190.658 133.919 182.623 128.972C171.115 147.201 153.467 159.308 134.935 161.554C133.092 161.769 131.188 161.889 129.293 161.889Z" fill="url(#paint0_linear)"/>
<path d="M9.3376 81.7932L9.33722 81.7947C4.28571 100.745 13.9251 122.643 31.6539 132.897C39.3633 137.365 48.4259 139.7 57.8598 139.7C66.2907 139.7 74.8682 137.798 82.5483 134.266C89.5766 151.609 108.669 163.889 129.293 163.889C131.271 163.889 133.252 163.763 135.166 163.541L135.176 163.54C153.839 161.277 171.475 149.412 183.259 131.669C191.22 136.169 200.266 138.526 209.704 138.526C210.18 138.526 210.654 138.517 211.105 138.508L211.118 138.508C239.124 137.798 261.643 116.154 260.986 89.9338L260.986 89.9331C260.645 76.5138 254.148 63.8998 243.215 55.2287C240.831 52.7818 238.091 50.9824 235.051 49.9401C231.397 48.0418 227.509 46.5704 223.441 45.5605C223.755 32.1204 213.763 18.1733 198.724 10.7141C191.781 7.26968 184.293 5.43833 177.049 5.43833C165.948 5.43833 156.405 9.74008 151.084 17.3927C140.339 7.92181 124.852 2.32482 108.355 2.0175L108.354 2.01748C107.885 2.00895 107.386 2 106.894 2C75.8578 2 50.2051 20.3854 49.7459 44.9122C49.6982 47.2548 49.9075 49.624 50.3586 51.9723C49.5953 51.9207 48.8281 51.8943 48.0581 51.8943C30.4977 51.8943 13.8995 64.731 9.3376 81.7932Z" stroke="white" stroke-width="4"/>
</g>
<defs>
<filter id="filter0_d" x="0.997559" y="0" width="267.002" height="178.889" filterUnits="userSpaceOnUse" color-interpolation-filters="sRGB">
<feFlood flood-opacity="0" result="BackgroundImageFix"/>
<feColorMatrix in="SourceAlpha" type="matrix" values="0 0 0 0 0 0 0 0 0 0 0 0 0 0 0 0 0 0 127 0"/>
<feOffset dy="8"/>
<feGaussianBlur stdDeviation="2.5"/>
<feColorMatrix type="matrix" values="0 0 0 0 0.239216 0 0 0 0 0.239216 0 0 0 0 0.239216 0 0 0 0.25 0"/>
<feBlend mode="normal" in2="BackgroundImageFix" result="effect1_dropShadow"/>
<feBlend mode="normal" in="SourceGraphic" in2="effect1_dropShadow" result="shape"/>
</filter>
<linearGradient id="paint0_linear" x1="134.5" y1="4" x2="134.5" y2="161.889" gradientUnits="userSpaceOnUse">
<stop stop-color="#7635FF"/>
<stop offset="1" stop-color="#00327D"/>
</linearGradient>
</defs>
</svg>
