<svg width="268" height="179" viewBox="0 0 268 179" fill="none" xmlns="http://www.w3.org/2000/svg">
<g filter="url(#filter0_d)">
<path d="M138.707 161.889C159.408 161.889 178.368 149.053 184.346 131.51C192.243 135.522 201.282 137.7 210.14 137.7C219.247 137.7 227.96 135.445 235.343 131.167C252.348 121.332 261.532 100.325 256.73 82.3098C252.4 66.1128 236.587 53.8943 219.942 53.8943C218.467 53.8943 217.001 53.9972 215.551 54.1944C215.534 53.6628 215.508 53.1226 215.474 52.5739C216.04 50.0359 216.306 47.4721 216.254 44.9512C215.826 21.9891 191.6 4 161.106 4C160.635 4 160.154 4.00857 159.683 4.01715C142.652 4.3344 126.848 10.4308 116.497 20.5057C111.986 12.3086 102.519 7.43833 90.9511 7.43833C84.0393 7.43833 76.8532 9.1875 70.1644 12.5058C54.9517 20.0512 45.4759 34.2418 46.6507 47.1291C42.0972 48.1066 37.7666 49.6757 33.7362 51.785C30.932 52.7196 28.3765 54.3831 26.1298 56.7153C15.5735 65.041 9.33922 77.1481 9.01335 89.9839C8.38735 114.953 29.8772 135.823 56.9326 136.508C57.3871 136.517 57.8415 136.526 58.296 136.526C68.0462 136.526 77.342 133.919 85.3771 128.972C96.8852 147.201 114.533 159.308 133.065 161.554C134.908 161.769 136.812 161.889 138.707 161.889Z" fill="url(#paint0_linear)"/>
<path d="M258.662 81.7932L258.663 81.7947C263.714 100.745 254.075 122.643 236.346 132.897C228.637 137.365 219.574 139.7 210.14 139.7C201.709 139.7 193.132 137.798 185.452 134.266C178.423 151.609 159.331 163.889 138.707 163.889C136.729 163.889 134.748 163.763 132.834 163.541L132.824 163.54C114.161 161.277 96.5248 149.412 84.7412 131.669C76.7801 136.169 67.7342 138.526 58.2961 138.526C57.8195 138.526 57.3462 138.517 56.8948 138.508L56.8819 138.508C28.8761 137.798 6.3566 116.154 7.01398 89.9338L7.01399 89.9331C7.35468 76.5138 13.852 63.8998 24.7854 55.2287C27.1689 52.7818 29.9088 50.9824 32.9487 49.9401C36.6028 48.0418 40.491 46.5704 44.5591 45.5605C44.2455 32.1204 54.2369 18.1733 69.2755 10.7141C76.2187 7.26968 83.7074 5.43833 90.9511 5.43833C102.052 5.43833 111.595 9.74008 116.916 17.3927C127.661 7.92181 143.148 2.32482 159.645 2.0175L159.646 2.01748C160.115 2.00895 160.614 2 161.106 2C192.142 2 217.795 20.3854 218.254 44.9122C218.302 47.2548 218.092 49.624 217.641 51.9723C218.405 51.9207 219.172 51.8943 219.942 51.8943C237.502 51.8943 254.101 64.731 258.662 81.7932Z" stroke="white" stroke-width="4"/>
</g>
<defs>
<filter id="filter0_d" x="0" y="0" width="267.002" height="178.889" filterUnits="userSpaceOnUse" color-interpolation-filters="sRGB">
<feFlood flood-opacity="0" result="BackgroundImageFix"/>
<feColorMatrix in="SourceAlpha" type="matrix" values="0 0 0 0 0 0 0 0 0 0 0 0 0 0 0 0 0 0 127 0"/>
<feOffset dy="8"/>
<feGaussianBlur stdDeviation="2.5"/>
<feColorMatrix type="matrix" values="0 0 0 0 0.239216 0 0 0 0 0.239216 0 0 0 0 0.239216 0 0 0 0.25 0"/>
<feBlend mode="normal" in2="BackgroundImageFix" result="effect1_dropShadow"/>
<feBlend mode="normal" in="SourceGraphic" in2="effect1_dropShadow" result="shape"/>
</filter>
<linearGradient id="paint0_linear" x1="133.5" y1="4" x2="133.5" y2="161.889" gradientUnits="userSpaceOnUse">
<stop stop-color="#EF37C7"/>
<stop offset="1" stop-color="#1800AE"/>
</linearGradient>
</defs>
</svg>
