<svg width="337" height="344" viewBox="0 0 337 344" fill="none" xmlns="http://www.w3.org/2000/svg">
<path d="M173.716 5.14502C137.236 19.6628 133.733 56.7718 100.886 59.9587C72.2605 62.7324 61.3861 35.8685 41.3002 40.6842C10.7054 48.0139 -8.5313 121.004 3.7585 181.023C16.4493 243.001 69.7483 325.387 158.065 331.005C257.221 337.32 332.245 242.529 336.821 159.341C337.317 150.347 340.242 74.9722 282.661 30.4391C279.784 28.2201 223.041 -14.4836 173.716 5.14502Z" fill="#F4F7FA" fill-opacity="0.2"/>
<path d="M157.226 333.784C154.985 332.722 151.034 328.438 150.468 326.891C146.693 316.634 138.367 297.891 142.565 287.127C143.285 285.285 152.213 286.253 153.947 284.92C159.797 284.152 161.873 284.247 167.074 280.788C182.43 270.579 165.895 236.704 197.775 237.011C221.128 237.235 236.673 250.336 245.047 216.662C253.421 182.976 298.936 131.396 326.264 165.637C341.95 185.289 312.641 206.748 316.226 230.731C319.635 253.523 306.083 267.002 281.433 272.031C256.771 277.07 264.98 289.735 265.003 310.355C265.039 335.13 229.29 327.942 213.072 323.221C200.016 319.408 164.184 318.535 157.226 333.784Z" fill="url(#paint0_linear)"/>
<g opacity="0.8">
<path opacity="0.8" d="M146.493 307.995L146.434 307.57C167.086 304.643 186.971 298.588 205.559 289.558C223.416 280.883 240.093 269.469 255.131 255.624C284.322 228.737 306.85 193.115 320.272 152.619L320.673 152.748C307.227 193.316 284.653 228.997 255.414 255.931C240.353 269.812 223.64 281.249 205.748 289.936C187.124 299.001 167.192 305.068 146.493 307.995Z" fill="#FCFDFE"/>
<path opacity="0.8" d="M266.23 320.601C248.267 307.499 214.712 296.428 191.43 295.944L191.441 295.519C214.794 296.015 248.456 307.11 266.478 320.258L266.23 320.601Z" fill="#FCFDFE"/>
<path opacity="0.8" d="M162.25 305.587L162.073 305.198C173.125 300.24 181.251 289.877 186.216 274.415C189.861 263.072 191.748 249.31 191.842 233.494H192.267C192.173 249.357 190.274 263.167 186.617 274.545C181.617 290.125 173.419 300.571 162.25 305.587Z" fill="#FCFDFE"/>
<path opacity="0.8" d="M259.424 251.953L259.235 251.576C279.557 241.177 303.346 244.34 319.729 248.826L319.623 249.239C303.299 244.765 279.628 241.614 259.424 251.953Z" fill="#FCFDFE"/>
<path opacity="0.8" d="M292.685 211.634L292.295 211.469C296.447 201.224 301.648 179.364 289.795 148.074L290.196 147.921C294.194 158.485 296.659 169.462 297.308 179.695C298.051 191.463 296.506 202.215 292.685 211.634Z" fill="#FCFDFE"/>
</g>
<path d="M238.618 332.505C227.547 330.871 216.497 328.997 205.458 326.861C205.28 327.028 201.649 302.944 213.076 290.325C235.678 265.864 220.453 243.915 216.11 230.91C209.235 212.584 212.845 192.73 231.492 192.437C252.169 191.704 255.915 157.462 252.169 126.309C249.27 111.115 263.595 92.6847 277.889 88.4646C292.486 83.7943 307.041 93.3549 311.509 123.639C318.269 158.698 292.695 179.85 283.225 197.432C273.913 214.689 295.583 228.648 278.14 243.947C263.47 257.528 244.969 267.298 251.74 284.367C258.688 301.226 257.024 315.017 238.618 332.505Z" fill="url(#paint1_linear)"/>
<g opacity="0.8">
<path opacity="0.8" d="M223.78 333.929H223.403C223.403 333.719 233.972 283.079 252.21 233.779C254.732 225.799 257.463 217.747 260.111 209.956C267.195 189.107 274.519 167.546 278.004 146.079C281.896 122.078 280.505 100.465 273.766 80.0034L274.122 79.8882C280.881 100.412 282.273 122.089 278.37 146.142C274.886 167.64 267.55 189.211 260.466 210.071C257.819 217.851 255.088 225.904 252.566 233.894C234.39 283.026 223.801 333.646 223.78 333.929Z" fill="#FCFDFE"/>
<path opacity="0.8" d="M273.284 169.64L273.002 169.389C285.339 155.671 300.229 136.173 308.223 125.691C314.46 117.513 314.68 117.293 314.92 117.324L314.857 117.691L314.889 117.502L314.962 117.67C314.648 117.879 311.938 121.419 308.516 125.901C300.532 136.404 285.632 155.912 273.284 169.64Z" fill="#FCFDFE"/>
<path opacity="0.8" d="M277.073 150.844C274.52 135.084 268.032 124.727 263.03 118.821C257.474 112.235 252.462 109.46 251.96 109.408C251.96 109.408 252.001 109.407 252.043 109.387L251.834 109.072C251.928 109.01 252.064 109.031 252.347 109.146C253.707 109.743 258.813 112.936 264.16 119.586C270.899 127.974 275.493 138.759 277.45 150.781L277.073 150.844Z" fill="#FCFDFE"/>
<path opacity="0.8" d="M241.736 266.01L241.359 265.968C243.096 251.329 239.695 235.59 231.23 219.181C226.814 210.626 221.185 202.238 214.509 194.259C214.048 193.704 213.86 193.484 213.808 193.39L214.132 193.201C214.174 193.264 214.446 193.599 214.802 194.018C221.509 202.018 227.149 210.427 231.575 219.003C240.061 235.485 243.483 251.298 241.736 266.01Z" fill="#FCFDFE"/>
<path opacity="0.8" d="M246.728 250.596L246.403 250.397C259.661 228.962 287.61 227.464 287.851 227.538L287.987 227.716L287.861 227.904L287.798 227.726L287.777 227.904C287.296 227.915 259.87 229.339 246.728 250.596ZM287.746 227.548L287.809 227.726L287.746 227.548Z" fill="#FCFDFE"/>
<path opacity="0.8" d="M225.621 325.678L225.245 325.667C225.475 319.29 223.204 308.431 211.024 292.87C210.376 292.043 210.376 292.043 210.386 291.928L210.763 291.98L210.574 291.949L210.752 291.886C210.784 291.949 211.035 292.263 211.328 292.64C223.571 308.274 225.862 319.238 225.621 325.678Z" fill="#FCFDFE"/>
<path opacity="0.8" d="M228.436 313.666L228.069 313.561C229.471 308.724 234.986 299.247 256.186 290.105C256.479 289.979 256.667 289.896 256.74 289.864L256.908 290.199C256.835 290.231 256.636 290.325 256.332 290.451C235.289 299.53 229.817 308.891 228.436 313.666Z" fill="#FCFDFE"/>
</g>
<path d="M193.79 27.465C207.507 21.6814 220.575 23.2394 227.109 25.6945C234.823 28.5981 237.382 30.7816 244.223 31.8793C250.297 32.859 256.595 26.5207 261.337 30.9941C261.655 31.301 262.044 31.6669 262.493 32.316C265.889 37.3088 261.879 43.3283 262.988 53.8567C263.554 59.2389 264.922 60.7379 266.196 71.0892C266.68 75.0197 266.574 75.6098 266.444 76.0584C264.368 83.0458 247.915 81.7239 236.333 78.7141C220.363 74.5594 215.221 67.5955 204.747 70.7588C199.911 72.2223 196.232 75.1495 193.884 77.3803C194.946 60.8205 192.729 44.0365 193.79 27.465Z" fill="url(#paint2_linear)"/>
<path d="M193.967 182.935C193.613 182.935 193.318 182.652 193.318 182.286V22.531C193.318 22.1769 193.601 21.8818 193.967 21.8818C194.321 21.8818 194.616 22.1651 194.616 22.531V182.286C194.616 182.652 194.321 182.935 193.967 182.935Z" fill="#CC9D3E"/>
<path d="M191.136 81.7945L192.292 80.1775C192.292 80.1775 192.068 79.3277 192.445 78.7139C192.822 78.1002 192.822 78.1002 192.822 78.1002C192.822 78.1002 193.306 77.6398 194.249 77.9585C194.462 78.0293 194.698 78.0057 194.875 77.8759C195.429 77.4982 195.57 78.5487 195.57 78.5487C195.57 78.5487 195.971 79.0208 195.606 79.4221C195.606 79.4221 195.559 80.0241 195.11 80.3309C194.662 80.6378 193.471 81.1454 193.471 81.1454L192.185 82.7034L191.136 81.7945Z" fill="url(#paint3_linear)"/>
<path d="M190.947 80.0947C182.69 83.3877 177.383 82.1012 174.918 81.1688C171.816 80.0003 168.844 77.8639 168.844 77.8639C164.645 74.8423 163.006 71.8325 158.866 71.1833C158.559 71.1361 157.627 71.0063 156.613 71.0889C150.645 71.62 143.993 79.5281 144.854 84.7805C146.34 93.8925 171.698 103.288 185.627 93.1371C190.109 89.8677 192.35 85.3471 193.506 82.2782C192.645 81.5583 191.796 80.8265 190.947 80.0947Z" fill="#9879F0"/>
<path d="M137.034 174.331C136.692 174.638 136.668 175.37 136.656 175.854C136.645 176.066 136.645 176.172 136.68 176.243C136.881 176.774 137.954 176.774 139.617 176.845C142.259 176.951 143.049 177.117 143.238 176.704C143.403 176.326 142.907 175.759 142.849 175.688C142.542 175.346 142.188 175.24 141.504 175.063C140.242 174.732 139.393 174.555 139.133 174.508C137.529 174.189 137.258 174.13 137.034 174.331Z" fill="url(#paint4_linear)"/>
<path d="M138.887 171.699L138.993 174.709C138.91 174.85 138.002 175.24 137.306 174.827L136.787 171.852L138.887 171.699Z" fill="url(#paint5_linear)"/>
<path d="M159.279 174.378C158.831 174.826 158.677 175.7 159.031 176.148C159.373 176.585 159.939 176.302 161.508 176.432C163.183 176.573 163.596 176.986 164.752 176.739C165.223 176.632 166.049 176.373 166.049 176.042C166.049 175.806 165.648 175.665 164.292 175.133C162.369 174.366 162.381 174.331 161.968 174.248C160.918 174.012 159.869 173.776 159.279 174.378Z" fill="url(#paint6_linear)"/>
<path d="M160.494 171.699L161.19 174.543C161.119 174.685 160.234 175.145 159.527 174.791L158.43 172.017L160.494 171.699Z" fill="url(#paint7_linear)"/>
<path d="M156.295 110.098C155.917 119.493 155.988 130.093 156.92 141.648C157.828 153.073 159.42 163.425 161.26 172.56C160.175 172.796 159.09 173.021 158.005 173.257C155.422 170.577 152.202 166.399 150.858 160.674C150.02 157.122 150.456 155.339 150.032 150.996C149.36 144.079 147.449 140.385 145.574 134.731C143.887 129.656 141.976 122.244 141.257 112.435C146.269 111.656 151.282 110.877 156.295 110.098Z" fill="url(#paint8_linear)"/>
<path opacity="0.3" d="M154.797 154.018C153.606 149.273 151.294 148.022 151.211 143.548C151.152 140.385 152.285 140.125 152.214 137.092C152.096 132.501 149.407 130.081 148.062 127.201C146.635 124.144 146.093 119.246 149.938 111.09C147.048 111.538 144.146 111.987 141.257 112.435C141.976 122.244 143.887 129.668 145.574 134.731C147.449 140.373 149.36 144.08 150.032 150.996C150.456 155.34 150.02 157.122 150.858 160.675C152.214 166.399 155.422 170.578 158.005 173.257C158.276 173.198 158.559 173.139 158.831 173.08C156.035 169.751 155.056 166.765 154.809 164.357C154.396 160.415 156 158.798 154.797 154.018Z" fill="url(#paint9_linear)"/>
<path d="M145.443 109.508C144.146 121.418 142.966 133.551 141.893 145.921C141.091 155.198 140.372 164.357 139.747 173.399C138.65 173.469 137.541 173.552 136.444 173.623C135.489 171.593 134.25 168.512 133.495 164.593C132.576 159.849 133 157.075 132.741 152.188C132.458 146.712 131.679 145.472 130.57 138.52C128.318 124.404 127.185 117.357 130.759 113.191C131.915 111.857 135.512 108.505 145.443 109.508Z" fill="url(#paint10_linear)"/>
<path d="M116.913 72.4815C122.857 70.4631 131.939 68.2205 143.038 68.6809C149.466 68.9405 154.997 70.05 159.373 71.2775C159.963 74.5942 160.552 77.9109 161.154 81.2276C161.296 84.556 161.331 89.053 160.965 94.3762C160.588 99.6994 160.222 99.7702 159.373 107.289C157.981 119.529 158.559 122.727 156.106 124.203C154.502 125.159 153.924 124.002 145.762 123.199C140.29 122.656 137.494 122.409 134.723 123.341C130.948 124.616 129.686 126.764 128.13 126.068C126.632 125.395 126.443 122.822 126.266 118.325C125.983 111.385 126.007 106.675 125.983 104.987C125.865 97.2444 123.907 91.331 121.395 83.7652C119.838 78.9968 118.175 75.1726 116.913 72.4815Z" fill="#9879F0"/>
<path d="M142.49 56.4893C142.352 59.7494 141.839 62.318 141.405 64.0567C140.911 66.0721 140.595 66.5661 140.2 66.981C139.628 67.5935 138.759 68.0875 134.04 68.9963C131.473 69.4903 131.138 69.4508 131.079 69.7076C130.743 70.9327 137.436 75.4771 144.643 74.8646C149.045 74.4892 153.172 72.1972 152.994 70.8734C152.817 69.5298 148.414 70.0238 147.229 67.554C146.42 65.835 147.545 63.543 148.868 61.6462C147.821 59.3937 143.537 58.722 142.49 56.4893Z" fill="url(#paint11_linear)"/>
<path d="M150.546 58.2084C151.652 56.8846 151.849 54.4938 150.744 52.9131C149.796 51.5498 148.197 51.2732 147.229 51.1151C144.445 50.6409 140.852 51.6288 139.49 54.1381C138.68 55.62 140.082 58.8802 140.299 59.4729C140.536 60.1249 141.03 60.3818 141.484 60.8955C142.096 61.6068 143.063 62.733 144.623 64.6299C144.781 64.1161 145.018 63.4641 145.354 62.7726C145.492 62.496 146.025 61.4685 146.795 60.6189C148.355 58.8802 149.5 59.4531 150.546 58.2084Z" fill="url(#paint12_linear)"/>
<path d="M142.334 62.97C142.334 62.97 144.012 66.0919 147.684 66.0524C150.981 66.0129 151.85 58.6824 149.836 57.0227C149.165 56.4695 147.783 56.1731 146.618 56.43C145.927 56.588 145.69 56.8449 144.584 57.082C143.558 57.2994 143.262 57.161 142.946 57.3981C142.551 57.6945 142.215 58.4849 142.748 60.6583C142.156 59.9865 141.425 59.7099 140.873 59.9272C140.794 59.9667 140.557 60.1051 140.418 60.3224C139.905 61.1523 140.616 62.2587 142.334 62.97Z" fill="url(#paint13_linear)"/>
<path d="M142.827 56.9433C142.985 57.0618 142.472 57.6348 142.393 58.4647C142.235 60.0849 143.775 62.12 145.434 62.3769C146.421 62.5349 146.717 61.9422 148.356 61.8631C149.382 61.8039 150.212 61.9817 150.725 62.12C151.14 63.918 150.567 65.6765 149.343 66.4273C148.02 67.2374 146.421 66.6249 145.75 66.3681C145.295 66.1902 143.854 65.637 143.163 64.2539C142.433 62.8115 143.262 62.0014 142.413 61.0135C141.978 60.5196 141.386 60.2627 140.833 59.3143C140.695 59.0574 140.596 58.8203 140.537 58.682C141.426 57.8126 142.591 56.7654 142.827 56.9433Z" fill="url(#paint14_linear)"/>
<path d="M149.501 62.713C149.501 62.713 148.77 63.0489 147.546 62.9106C147.487 62.9106 147.427 62.9106 147.408 62.9501C147.368 63.0686 148.138 63.6219 148.869 63.4638C149.382 63.3453 149.816 62.8908 149.757 62.7525C149.737 62.6932 149.619 62.6932 149.501 62.713Z" fill="url(#paint15_linear)"/>
<path d="M122.409 104.976L124.379 104.87C124.379 104.87 126.538 103.064 127.516 103.17C128.495 103.288 129.97 103.961 130.147 104.102C130.324 104.244 129.604 105.047 128.896 104.964C128.177 104.881 126.585 105.271 126.29 105.908C126.007 106.546 124.768 106.923 124.556 106.546L121.914 107.077L122.409 104.976Z" fill="url(#paint16_linear)"/>
<path d="M122.999 104.279C123.141 105.896 122.787 106.994 122.197 107.749C119.591 111.09 110.745 109.72 105.484 105.247C101.592 101.942 99.5282 96.7961 99.6108 92.1929C99.7641 83.2107 108.079 74.4056 120.452 71.3604C122.28 76.837 124.12 82.3255 125.948 87.8021C118.317 87.9201 113.682 93.68 114.366 97.7875C114.896 100.856 118.458 103.606 122.999 104.279Z" fill="#9879F0"/>
<path opacity="0.3" d="M152.933 120.167C148.923 118.455 148.947 114.902 145.196 113.427C139.841 111.314 133.932 116.224 133.012 114.867C132.057 113.451 139.11 109.107 138.167 104.823C137.424 101.423 132.493 102.025 129.852 97.3631C127.351 92.9487 129.781 88.853 127.563 87.3186C126.773 86.7639 125.37 86.5514 122.704 87.7199C124.556 93.5153 125.889 98.626 125.983 104.964C126.007 106.652 125.995 111.362 126.266 118.302C126.443 122.799 126.632 125.372 128.13 126.045C129.686 126.741 130.948 124.593 134.723 123.318C137.494 122.374 140.29 122.634 145.762 123.176C153.924 123.991 154.502 125.136 156.106 124.18C157.144 123.554 157.639 122.622 157.969 120.816C156.342 121.005 154.608 120.887 152.933 120.167Z" fill="#3E4076"/>
<path d="M131.775 220.717C109.059 221.519 86.3432 222.44 63.6389 223.479C57.3761 223.762 52.2809 216.845 52.1393 208.017C52.104 206.022 52.0804 204.027 52.045 202.032C51.9034 193.204 56.8099 185.532 63.1081 184.894C85.9186 182.581 108.764 180.386 131.622 178.296C131.669 192.448 131.716 206.588 131.775 220.717Z" fill="#D8DEE8"/>
<path d="M122.186 222.688C102.949 223.55 83.7244 224.482 64.5113 225.509C56.3614 225.851 49.7211 216.822 49.5324 205.361C49.5324 205.314 49.5324 205.278 49.5324 205.231C49.3437 193.77 55.7363 183.75 63.9334 182.888C83.2527 180.504 102.596 178.202 121.95 175.983C122.965 175.889 134.794 176.904 134.794 178.167C134.794 179.418 123.767 180.409 122.764 180.504C103.162 182.593 83.5711 184.765 63.9924 187.007C57.3639 187.656 52.1861 195.73 52.3277 205.019C52.3277 205.066 52.3277 205.101 52.3277 205.149C52.4692 214.426 57.8593 221.708 64.4523 221.39C83.6773 220.233 102.914 219.171 122.162 218.179C123.165 218.132 134.924 219.36 134.936 220.623C134.936 221.862 123.2 222.641 122.186 222.688Z" fill="url(#paint17_linear)"/>
<path d="M262.834 219.313C216.411 219.206 170 219.572 123.613 220.399C123.542 206.294 123.471 192.201 123.4 178.096C170.095 178.474 216.765 179.324 263.424 180.646C263.235 193.546 263.035 206.424 262.834 219.313Z" fill="#F4F7FA"/>
<path d="M264.556 182.877C217.048 181.59 169.517 180.799 121.973 180.492C121.006 180.48 120.228 179.465 120.216 178.226C120.204 176.975 120.983 175.972 121.95 175.984C169.517 176.42 217.084 177.341 264.615 178.769C265.417 178.793 266.054 179.737 266.031 180.87C266.019 182.003 265.346 182.9 264.556 182.877Z" fill="url(#paint18_linear)"/>
<path d="M263.955 221.378C216.683 221.331 169.435 221.767 122.186 222.688C121.231 222.712 120.441 221.708 120.441 220.457C120.429 219.206 121.207 218.179 122.163 218.167C169.435 217.377 216.73 217.07 264.014 217.247C264.816 217.247 265.441 218.179 265.429 219.312C265.418 220.457 264.757 221.378 263.955 221.378Z" fill="url(#paint19_linear)"/>
<path d="M132.659 222.015H132.648L130.501 222.003L121.136 222.286L65.7968 224.222C64.1574 224.269 62.5887 224.564 61.1262 225.119C54.7454 227.527 50.4168 234.385 50.8886 242.304L50.9004 242.411C51.4312 251.169 57.6822 258.25 65.325 259.336C66.1152 259.454 66.9173 259.501 67.7311 259.478L114.06 257.672L121.396 257.389L124.226 257.283L132.376 256.917L134.075 256.799H134.087L134.664 256.822L135.844 256.799L135.879 256.456L136.009 254.969L136.021 254.792L136.127 253.576L138.734 225.06L138.899 223.254L138.969 222.393L139.04 221.708L132.659 222.015Z" fill="url(#paint20_linear)"/>
<path d="M263.059 254.462L140.963 255.229C130.808 255.288 122.399 249.374 122.139 241.986L121.962 236.958C121.703 229.522 129.746 223.349 139.984 223.207L263.047 221.437L263.059 254.462Z" fill="#F4F7FA"/>
<path d="M264.38 256.197L135.785 256.952C126.987 256.999 119.58 249.233 119.226 239.602V239.495C118.872 229.817 125.784 221.791 134.653 221.661L264.368 219.737C265.288 219.725 266.043 220.504 266.043 221.496C266.043 222.475 265.3 223.278 264.38 223.29L134.771 225.096C127.624 225.19 122.057 231.646 122.328 239.46V239.566C122.599 247.344 128.579 253.612 135.679 253.565L264.38 252.703C265.3 252.691 266.031 253.47 266.031 254.438C266.031 255.406 265.3 256.197 264.38 256.197Z" fill="url(#paint21_linear)"/>
<path d="M134.393 286.012L132.376 286.082L124.993 286.33L121.053 286.46L87.3212 287.605L85.9059 287.652L79.5015 287.865L69.2404 288.207L65.0887 288.349C63.7913 288.372 62.5293 288.656 61.3381 289.151C60.5243 289.482 59.7694 289.93 59.0264 290.461C53.9548 294.061 50.499 301.851 50.499 310.798V310.928C50.499 323.132 56.9742 333.366 65.1241 333.732L132.388 335.608L136.669 335.726L136.905 333.342L137.023 332.185L140.998 292.515L141.281 290.225L141.576 287.747L141.682 286.165L141.694 285.752L134.393 286.012Z" fill="url(#paint22_linear)"/>
<path d="M263.153 288.573V329.742L229.61 331.064L144.419 334.428C141.753 334.534 139.206 334.145 136.87 333.354C129.452 330.828 124.203 324.23 124.203 316.263V309.157C124.203 299.715 131.61 291.807 141.211 290.237C142.26 290.06 143.357 289.966 144.454 289.954L219.125 289.08L263.153 288.573Z" fill="#F4F7FA"/>
<path d="M265.913 329.636C265.913 330.84 265.264 331.855 264.474 331.89L232.299 333.212L138.757 337.036C136.516 337.131 134.452 336.623 132.47 335.62C125.866 332.292 121.242 323.463 121.242 312.934V312.781C121.242 299.148 129.085 287.959 138.745 287.782H138.804L141.493 287.747L220.079 286.92L264.462 286.448C264.462 286.448 264.462 286.448 264.474 286.448C265.264 286.448 265.913 287.44 265.913 288.655C265.913 289.859 265.264 290.863 264.474 290.874L263.33 290.898L218.428 291.5L140.998 292.527L138.816 292.562C130.996 292.668 124.627 301.698 124.627 312.71V312.864C124.627 323.05 130.064 331.265 137.07 332.209C137.636 332.28 138.191 332.315 138.78 332.292L227.486 328.916L263.33 327.559L264.474 327.511C265.276 327.464 265.913 328.42 265.913 329.636Z" fill="url(#paint23_linear)"/>
<path d="M132.365 286.59L64.2402 288.125C57.9773 288.266 52.9883 283.309 52.9883 277.041V272.792C52.9883 266.537 57.9773 261.143 64.2402 260.753L132.365 256.492V286.59Z" fill="#D8DEE8"/>
<path d="M122.787 287.948L65.1009 289.565C56.9392 289.73 50.4404 283.25 50.4404 275.118V275.023C50.4404 266.891 56.9392 259.856 65.1009 259.337L122.787 254.816C123.802 254.757 135.537 255.513 135.537 256.398C135.537 257.283 124.58 257.956 123.566 258.027L65.0891 262.264C58.496 262.665 53.2239 268.331 53.2239 274.917V275.011C53.2239 281.597 58.496 286.814 65.0891 286.649L122.776 284.749C123.778 284.725 135.525 285.622 135.525 286.519C135.525 287.416 123.79 287.924 122.787 287.948Z" fill="url(#paint24_linear)"/>
<path d="M263.153 257.637V285.044L220.682 285.445L141.588 286.177L135.137 286.236L132.353 286.26L124.982 286.331H124.203V256.339L131.716 256.351H131.728L135.526 256.421L135.88 256.433L169.152 256.752L263.153 257.637Z" fill="#F4F7FA"/>
<path d="M264.474 259.195L122.787 258.027C121.832 258.015 121.054 257.295 121.054 256.41C121.054 255.525 121.832 254.816 122.787 254.828L264.474 256.28C265.276 256.292 265.913 256.953 265.913 257.755C265.913 258.558 265.264 259.207 264.474 259.195Z" fill="url(#paint25_linear)"/>
<path d="M265.913 284.997C265.913 285.799 265.264 286.448 264.474 286.448C264.474 286.448 264.474 286.448 264.462 286.448L220.068 286.921L141.47 287.735L138.757 287.77L138.651 287.877L122.787 288.136H122.776C122.009 288.136 121.36 287.57 121.136 286.932C121.101 286.814 121.077 286.637 121.065 286.496C121.065 286.46 121.065 286.413 121.065 286.378C121.065 285.492 121.844 284.737 122.799 284.737H122.858L124.238 284.725L132.388 284.654L221.566 283.923L263.342 283.58L264.486 283.557C265.264 283.557 265.913 284.194 265.913 284.997Z" fill="url(#paint26_linear)"/>
<path opacity="0.5" d="M117.48 330.179L102.265 329.306C98.5853 318.813 98.8684 308.709 102.265 296.398L117.48 296.446C114.437 309.016 114.897 320.123 117.48 330.179Z" fill="white"/>
<path opacity="0.3" d="M85.9531 289.329L85.4695 270.337L68.0019 289.576C68.0019 289.576 58.5664 294.664 60.1822 303.599L70.9741 299.302L80.563 302.631C80.5748 302.631 80.8107 293.247 85.9531 289.329Z" fill="url(#paint27_linear)"/>
<path d="M66.0445 271.53L85.4699 270.337C85.4699 270.337 76.3293 277.289 80.5752 302.631C80.5752 302.631 72.272 299.987 68.6629 295.466L60.1945 303.599C60.1827 303.599 55.0167 281.066 66.0445 271.53Z" fill="#9879F0"/>
<path d="M73.4862 190.867C72.7196 190.584 71.9058 190.903 71.6581 191.575L18.3237 337.875C18.076 338.548 18.5006 339.315 19.2554 339.586C20.0221 339.87 20.8359 339.551 21.0836 338.878L74.418 192.579C74.6656 191.918 74.241 191.139 73.4862 190.867Z" fill="#CC9D3E"/>
<path d="M101.333 210.862C101.333 211.641 100.708 212.266 99.9291 212.266H66.7278C65.9493 212.266 65.3242 211.641 65.3242 210.862V210.708C65.3242 209.929 65.9493 209.304 66.7278 209.304H99.9291C100.708 209.304 101.333 209.929 101.333 210.708V210.862Z" fill="#CC9D3E"/>
<path d="M91.5904 237.572C91.5904 238.351 90.9653 238.977 90.1869 238.977H56.9856C56.2071 238.977 55.582 238.351 55.582 237.572V237.419C55.582 236.64 56.2071 236.014 56.9856 236.014H90.1869C90.9653 236.014 91.5904 236.64 91.5904 237.419V237.572Z" fill="#CC9D3E"/>
<path d="M81.8482 264.696C81.8482 265.475 81.2231 266.1 80.4447 266.1H47.2434C46.4649 266.1 45.8398 265.475 45.8398 264.696V264.542C45.8398 263.763 46.4649 263.138 47.2434 263.138H80.4447C81.2231 263.138 81.8482 263.763 81.8482 264.542V264.696Z" fill="#CC9D3E"/>
<path d="M71.6695 292.681C71.6695 293.46 71.0444 294.086 70.266 294.086H37.0647C36.2862 294.086 35.6611 293.46 35.6611 292.681V292.528C35.6611 291.749 36.2862 291.123 37.0647 291.123H70.266C71.0444 291.123 71.6695 291.749 71.6695 292.528V292.681Z" fill="#CC9D3E"/>
<path d="M61.9273 319.391C61.9273 320.17 61.3022 320.796 60.5238 320.796H27.3225C26.544 320.796 25.9189 320.17 25.9189 319.391V319.238C25.9189 318.459 26.544 317.833 27.3225 317.833H60.5238C61.3022 317.833 61.9273 318.459 61.9273 319.238V319.391Z" fill="#CC9D3E"/>
<path d="M107.655 189.852C106.865 189.569 106.027 189.899 105.768 190.584L50.6877 341.852C50.44 342.549 50.8646 343.34 51.6548 343.623C52.445 343.906 53.2825 343.576 53.5419 342.891L108.622 191.622C108.87 190.938 108.433 190.135 107.655 189.852Z" fill="#CC9D3E"/>
<path opacity="0.3" d="M263.153 290.9V327.536L264.392 327.489C265.194 327.454 265.878 328.41 265.878 329.626C265.878 330.83 265.253 331.845 264.451 331.88L232.287 333.202C231.391 332.529 230.53 331.809 229.693 331.066C228.926 330.369 228.183 329.649 227.475 328.906C220.906 321.977 216.872 312.617 216.872 302.337C216.872 298.572 217.415 294.936 218.429 291.502C218.665 290.687 218.924 289.873 219.219 289.082C219.479 288.362 219.762 287.654 220.08 286.957C220.304 286.45 220.528 285.942 220.776 285.447C221.024 284.939 221.283 284.432 221.554 283.936C223.666 280.053 226.426 276.571 229.693 273.632C236.757 265.771 246.924 260.813 258.294 260.813C259.969 260.813 261.891 260.92 263.165 261.132V283.593L264.404 283.582C265.206 283.57 265.89 284.219 265.89 285.022C265.89 285.824 265.265 286.485 264.474 286.497C265.265 286.497 265.925 287.465 265.925 288.681C265.925 289.885 265.194 290.876 264.404 290.888L263.153 290.9Z" fill="url(#paint28_linear)"/>
<path d="M259.698 340.956C281.011 340.956 298.289 323.665 298.289 302.336C298.289 281.007 281.011 263.716 259.698 263.716C238.384 263.716 221.106 281.007 221.106 302.336C221.106 323.665 238.384 340.956 259.698 340.956Z" fill="#CC9D3E"/>
<path d="M262.611 338.04C283.924 338.04 301.202 320.75 301.202 299.421C301.202 278.091 283.924 260.801 262.611 260.801C241.297 260.801 224.02 278.091 224.02 299.421C224.02 320.75 241.297 338.04 262.611 338.04Z" fill="#F6C33E"/>
<path d="M298.536 299.421C298.536 319.273 282.449 335.373 262.61 335.373C255.534 335.373 248.941 333.331 243.374 329.79C233.337 323.416 226.685 312.203 226.685 299.421C226.685 279.568 242.772 263.468 262.61 263.468C262.941 263.468 263.271 263.468 263.601 263.48C282.979 264.011 298.536 279.898 298.536 299.421Z" fill="#F6C33E"/>
<path d="M262.61 282.908L230.341 292.74L262.61 302.584L294.868 292.74L262.61 282.908Z" fill="white"/>
<path d="M262.611 306.042L242.301 299.845V313.997C242.301 316.322 243.928 318.329 246.193 318.813C257.103 321.126 267.588 321.197 277.625 318.884C279.854 318.376 281.423 316.381 281.423 314.092V300.294L262.611 306.042Z" fill="white"/>
<path d="M237.819 311.908C236.049 312.687 234.516 312.711 233.195 311.955C232.806 311.731 232.617 311.283 232.7 310.846L235.566 296.552L238.42 310.728C238.514 311.223 238.267 311.707 237.819 311.908Z" fill="white"/>
<path d="M262.611 291.288L235.153 294.203V298.972H235.967L236.05 294.794L262.611 291.288Z" fill="white"/>
<path opacity="0.6" d="M298.537 299.42C298.537 319.273 282.449 335.373 262.611 335.373C255.534 335.373 248.941 333.331 243.374 329.79C246.747 320.595 256.525 310.716 266.633 304.531C285.35 293.082 271.126 272.391 263.601 263.48C282.98 264.011 298.537 279.898 298.537 299.42Z" fill="white"/>
<defs>
<linearGradient id="paint0_linear" x1="340.556" y1="207.685" x2="256.951" y2="291.192" gradientUnits="userSpaceOnUse">
<stop offset="0.00359712" stop-color="#AA80F9"/>
<stop offset="1" stop-color="#6165D7"/>
</linearGradient>
<linearGradient id="paint1_linear" x1="277.93" y1="93.3831" x2="245.97" y2="209.992" gradientUnits="userSpaceOnUse">
<stop stop-color="#FF9085"/>
<stop offset="0.9964" stop-color="#FB6FBB"/>
</linearGradient>
<linearGradient id="paint2_linear" x1="230.024" y1="23.4897" x2="230.024" y2="81.1521" gradientUnits="userSpaceOnUse">
<stop stop-color="#FFD873"/>
<stop offset="1" stop-color="#F6C33E"/>
</linearGradient>
<linearGradient id="paint3_linear" x1="195.493" y1="77.7319" x2="189.118" y2="83.993" gradientUnits="userSpaceOnUse">
<stop stop-color="#FFC444"/>
<stop offset="0.9964" stop-color="#F36F56"/>
</linearGradient>
<linearGradient id="paint4_linear" x1="143.157" y1="175.306" x2="136.634" y2="175.893" gradientUnits="userSpaceOnUse">
<stop stop-color="#444B8C"/>
<stop offset="0.9964" stop-color="#26264F"/>
</linearGradient>
<linearGradient id="paint5_linear" x1="139.416" y1="175.572" x2="136.133" y2="169.836" gradientUnits="userSpaceOnUse">
<stop stop-color="#FFC444"/>
<stop offset="0.9964" stop-color="#F36F56"/>
</linearGradient>
<linearGradient id="paint6_linear" x1="165.735" y1="174.643" x2="158.936" y2="176.126" gradientUnits="userSpaceOnUse">
<stop stop-color="#444B8C"/>
<stop offset="0.9964" stop-color="#26264F"/>
</linearGradient>
<linearGradient id="paint7_linear" x1="161.527" y1="175.493" x2="157.738" y2="169.908" gradientUnits="userSpaceOnUse">
<stop stop-color="#FFC444"/>
<stop offset="0.9964" stop-color="#F36F56"/>
</linearGradient>
<linearGradient id="paint8_linear" x1="164.057" y1="163.202" x2="147.732" y2="120.409" gradientUnits="userSpaceOnUse">
<stop stop-color="#311944"/>
<stop offset="1" stop-color="#893976"/>
</linearGradient>
<linearGradient id="paint9_linear" x1="161.115" y1="164.324" x2="144.79" y2="121.532" gradientUnits="userSpaceOnUse">
<stop stop-color="#311944"/>
<stop offset="1" stop-color="#893976"/>
</linearGradient>
<linearGradient id="paint10_linear" x1="153.609" y1="165.522" x2="132.165" y2="125.054" gradientUnits="userSpaceOnUse">
<stop stop-color="#311944"/>
<stop offset="1" stop-color="#893976"/>
</linearGradient>
<linearGradient id="paint11_linear" x1="135.927" y1="81.5981" x2="151.603" y2="52.9985" gradientUnits="userSpaceOnUse">
<stop stop-color="#FFC444"/>
<stop offset="0.9964" stop-color="#F36F56"/>
</linearGradient>
<linearGradient id="paint12_linear" x1="137.563" y1="72.8301" x2="146.901" y2="52.1978" gradientUnits="userSpaceOnUse">
<stop stop-color="#311944"/>
<stop offset="1" stop-color="#6B3976"/>
</linearGradient>
<linearGradient id="paint13_linear" x1="145.58" y1="58.005" x2="145.555" y2="88.7516" gradientUnits="userSpaceOnUse">
<stop stop-color="#FFC444"/>
<stop offset="0.9964" stop-color="#F36F56"/>
</linearGradient>
<linearGradient id="paint14_linear" x1="140.044" y1="73.9634" x2="149.391" y2="53.3096" gradientUnits="userSpaceOnUse">
<stop stop-color="#311944"/>
<stop offset="1" stop-color="#6B3976"/>
</linearGradient>
<linearGradient id="paint15_linear" x1="148.787" y1="61.6709" x2="148.164" y2="65.4957" gradientUnits="userSpaceOnUse">
<stop stop-color="#FFC444"/>
<stop offset="1" stop-color="#F36F56"/>
</linearGradient>
<linearGradient id="paint16_linear" x1="125.392" y1="103.641" x2="126.711" y2="107.664" gradientUnits="userSpaceOnUse">
<stop stop-color="#FFC444"/>
<stop offset="0.9964" stop-color="#F36F56"/>
</linearGradient>
<linearGradient id="paint17_linear" x1="46.6858" y1="200.235" x2="141.624" y2="201.272" gradientUnits="userSpaceOnUse">
<stop stop-color="#AA80F9"/>
<stop offset="0.9964" stop-color="#6165D7"/>
</linearGradient>
<linearGradient id="paint18_linear" x1="-812.369" y1="86.101" x2="-1068.14" y2="62.3492" gradientUnits="userSpaceOnUse">
<stop stop-color="#AA80F9"/>
<stop offset="0.9964" stop-color="#6165D7"/>
</linearGradient>
<linearGradient id="paint19_linear" x1="-808.759" y1="126.8" x2="-1062.89" y2="103.2" gradientUnits="userSpaceOnUse">
<stop stop-color="#AA80F9"/>
<stop offset="0.9964" stop-color="#6165D7"/>
</linearGradient>
<linearGradient id="paint20_linear" x1="104.949" y1="208.45" x2="77.9935" y2="299.18" gradientUnits="userSpaceOnUse">
<stop stop-color="#40447E"/>
<stop offset="0.9964" stop-color="#3C3B6B"/>
</linearGradient>
<linearGradient id="paint21_linear" x1="119.213" y1="238.348" x2="266.035" y2="238.348" gradientUnits="userSpaceOnUse">
<stop stop-color="#40447E"/>
<stop offset="0.9964" stop-color="#3C3B6B"/>
</linearGradient>
<linearGradient id="paint22_linear" x1="108.055" y1="272.067" x2="75.9833" y2="380.019" gradientUnits="userSpaceOnUse">
<stop stop-color="#40447E"/>
<stop offset="0.9964" stop-color="#3C3B6B"/>
</linearGradient>
<linearGradient id="paint23_linear" x1="121.24" y1="311.747" x2="265.916" y2="311.747" gradientUnits="userSpaceOnUse">
<stop stop-color="#40447E"/>
<stop offset="0.9964" stop-color="#3C3B6B"/>
</linearGradient>
<linearGradient id="paint24_linear" x1="47.595" y1="271.687" x2="142.135" y2="272.72" gradientUnits="userSpaceOnUse">
<stop stop-color="#FFC444"/>
<stop offset="0.9964" stop-color="#F36F56"/>
</linearGradient>
<linearGradient id="paint25_linear" x1="-804.509" y1="164.322" x2="-1058.37" y2="140.747" gradientUnits="userSpaceOnUse">
<stop stop-color="#FFC444"/>
<stop offset="0.9964" stop-color="#F36F56"/>
</linearGradient>
<linearGradient id="paint26_linear" x1="-807.126" y1="192.785" x2="-1060.98" y2="169.212" gradientUnits="userSpaceOnUse">
<stop stop-color="#FFC444"/>
<stop offset="0.9964" stop-color="#F36F56"/>
</linearGradient>
<linearGradient id="paint27_linear" x1="78.5401" y1="295.437" x2="71.9083" y2="285.626" gradientUnits="userSpaceOnUse">
<stop stop-color="#FFC444"/>
<stop offset="0.9964" stop-color="#F36F56"/>
</linearGradient>
<linearGradient id="paint28_linear" x1="216.872" y1="297.007" x2="265.906" y2="297.007" gradientUnits="userSpaceOnUse">
<stop stop-color="#40447E"/>
<stop offset="0.9964" stop-color="#3C3B6B"/>
</linearGradient>
</defs>
</svg>
