<svg width="26" height="28" viewBox="0 0 26 28" xmlns="http://www.w3.org/2000/svg">
<path d="M12.6667 14C14.0156 14 15.3343 13.5895 16.4559 12.8203C17.5776 12.0511 18.4518 10.9579 18.968 9.67879C19.4842 8.3997 19.6193 6.99224 19.3561 5.63437C19.093 4.2765 18.4434 3.02922 17.4895 2.05026C16.5356 1.07129 15.3203 0.404603 13.9973 0.134506C12.6742 -0.13559 11.3029 0.00303298 10.0566 0.532846C8.81028 1.06266 7.74506 1.95987 6.99562 3.11101C6.24617 4.26215 5.84615 5.61553 5.84615 7C5.84615 8.85652 6.56474 10.637 7.84384 11.9497C9.12293 13.2625 10.8578 14 12.6667 14ZM12.6667 16C8.43917 16 0 18.68 0 24V28H25.3333V24C25.3333 18.68 16.8942 16 12.6667 16Z"/>
</svg>
