<svg width="29" height="26" viewBox="0 0 29 26" xmlns="http://www.w3.org/2000/svg">
<path fill-rule="evenodd" clip-rule="evenodd" d="M4.11225 0H24.6735C25.7641 0 26.8101 0.421427 27.5813 1.17157C28.3525 1.92172 28.7857 2.93913 28.7857 4V22C28.7857 23.0609 28.3525 24.0783 27.5813 24.8284C26.8101 25.5786 25.7641 26 24.6735 26H4.11225C3.02161 26 1.97564 25.5786 1.20445 24.8284C0.433253 24.0783 0 23.0609 0 22V4C0 2.93913 0.433253 1.92172 1.20445 1.17157C1.97564 0.421427 3.02161 0 4.11225 0ZM2.57015 6H26.2156C26.3519 6 26.4826 5.94732 26.579 5.85355C26.6754 5.75979 26.7296 5.63261 26.7296 5.5V4C26.7281 3.47002 26.511 2.96218 26.1257 2.58743C25.7404 2.21267 25.2183 2.00148 24.6735 2H4.11225C3.5674 2.00148 3.0453 2.21267 2.66003 2.58743C2.27477 2.96218 2.05765 3.47002 2.05612 4V5.5C2.05612 5.63261 2.11028 5.75979 2.20668 5.85355C2.30308 5.94732 2.43382 6 2.57015 6ZM3.5 11C3.22386 11 3 11.2239 3 11.5C3 11.7761 3.22386 12 3.5 12H21.5C21.7761 12 22 11.7761 22 11.5C22 11.2239 21.7761 11 21.5 11H3.5ZM3 15.5C3 15.2239 3.22386 15 3.5 15H24.5C24.7761 15 25 15.2239 25 15.5C25 15.7761 24.7761 16 24.5 16H3.5C3.22386 16 3 15.7761 3 15.5ZM3.5 19C3.22386 19 3 19.2239 3 19.5C3 19.7761 3.22386 20 3.5 20H16.5C16.7761 20 17 19.7761 17 19.5C17 19.2239 16.7761 19 16.5 19H3.5Z"/>
</svg>
